<?xml version="1.0" encoding="utf-8"?>
<!-- Generator: Adobe Illustrator 16.0.0, SVG Export Plug-In . SVG Version: 6.00 Build 0)  -->
<!DOCTYPE svg PUBLIC "-//W3C//DTD SVG 1.1//EN" "http://www.w3.org/Graphics/SVG/1.1/DTD/svg11.dtd">
<svg version="1.1" xmlns="http://www.w3.org/2000/svg" xmlns:xlink="http://www.w3.org/1999/xlink" x="0px" y="0px" width="300px"
	 height="300px" viewBox="0 0 300 300" enable-background="new 0 0 300 300" xml:space="preserve">
<g id="Layer_3">
	<g id="FIX_1_">
		
			<radialGradient id="SVGID_1_" cx="936.1563" cy="-675.9321" r="146.6042" fx="924.0906" fy="-711.6644" gradientTransform="matrix(1 0 0 -1 -786.2803 -526.5801)" gradientUnits="userSpaceOnUse">
			<stop  offset="0" style="stop-color:#3A7FD7"/>
			<stop  offset="0.1527" style="stop-color:#3877CE"/>
			<stop  offset="0.4025" style="stop-color:#3160B5"/>
			<stop  offset="0.7165" style="stop-color:#263B8E"/>
			<stop  offset="1" style="stop-color:#1B1464"/>
		</radialGradient>
		<circle fill="url(#SVGID_1_)" cx="149.876" cy="149.352" r="146.604"/>
		
			<radialGradient id="SVGID_2_" cx="1049.9668" cy="278.2676" r="88.2296" fx="1042.7053" fy="256.7632" gradientTransform="matrix(0.0125 0.9999 1.6487 -0.0206 -338.0313 -824.9077)" gradientUnits="userSpaceOnUse">
			<stop  offset="0.2167" style="stop-color:#D6E8FE"/>
			<stop  offset="0.4236" style="stop-color:#D6E8FE"/>
			<stop  offset="1" style="stop-color:#5E89F5"/>
		</radialGradient>
		<path fill="url(#SVGID_2_)" d="M296.48,150.5c0,81-65.64,143.604-146.604,143.604S3.272,231.352,3.272,150.352L296.48,150.5z"/>
	</g>
	<rect x="33.5" y="94" fill="#1F1C7A" width="34" height="56"/>
	<rect x="160.5" y="93" fill="#1F1C7A" width="91" height="56"/>
	
		<radialGradient id="shadows_1_" cx="930.4688" cy="-4114.9658" r="114.329" gradientTransform="matrix(0.9999 -0.0147 -0.0026 -0.1775 -786.3936 -474.5642)" gradientUnits="userSpaceOnUse">
		<stop  offset="0" style="stop-color:#0033CC;stop-opacity:0.3"/>
		<stop  offset="0.3105" style="stop-color:#0235CC;stop-opacity:0.2069"/>
		<stop  offset="0.4478" style="stop-color:#093BCE;stop-opacity:0.1657"/>
		<stop  offset="0.551" style="stop-color:#1645D0;stop-opacity:0.1347"/>
		<stop  offset="0.6371" style="stop-color:#2853D4;stop-opacity:0.1089"/>
		<stop  offset="0.7126" style="stop-color:#3F66D9;stop-opacity:0.0862"/>
		<stop  offset="0.7807" style="stop-color:#5C7DDE;stop-opacity:0.0658"/>
		<stop  offset="0.8432" style="stop-color:#7E98E5;stop-opacity:0.047"/>
		<stop  offset="0.9013" style="stop-color:#A6B8ED;stop-opacity:0.0296"/>
		<stop  offset="0.9538" style="stop-color:#D2DBF6;stop-opacity:0.0139"/>
		<stop  offset="1" style="stop-color:#FFFFFF;stop-opacity:0"/>
	</radialGradient>
	<path id="shadows_6_" fill="url(#shadows_1_)" d="M264.512,240.585c0.041,7.128-49.102,13.197-109.768,13.554
		c-60.665,0.355-109.877-5.134-109.919-12.262c-0.042-7.129,49.104-13.197,109.769-13.552
		C215.258,227.968,264.471,233.456,264.512,240.585z"/>
	
		<radialGradient id="floor_shadow_2_" cx="916.0908" cy="-1017.9287" r="106.7048" gradientTransform="matrix(0.9999 0.011 0.0077 -0.7011 -785.8838 -516.3496)" gradientUnits="userSpaceOnUse">
		<stop  offset="0" style="stop-color:#FFFFFF;stop-opacity:0"/>
		<stop  offset="1" style="stop-color:#2134F3;stop-opacity:0.2"/>
	</radialGradient>
	<path id="floor_shadow_1_" fill="url(#floor_shadow_2_)" d="M3.272,150.5H296.48l0.176,11.813
		c-101.26-8.479-191.725,7.892-209.259,21.746c-33.593,26.553-49.984,79.834,56.789,112.196C57.496,291.904,3.272,222.5,3.272,150.5
		z"/>
	<path fill="#1F1C7A" d="M229.448,86.21h7.052l-5.577-15.46h-7.729l-5.575,15.46h7.052c-1.085,0.756-1.797,2.012-1.797,3.436
		c0,2.313,1.874,4.187,4.188,4.187s4.188-1.875,4.188-4.187C231.245,88.223,230.533,86.967,229.448,86.21z"/>
	<rect x="69.5" y="56" fill="#1F1C7A" width="20" height="94"/>
	<rect x="193.5" y="88.5" fill="#1F1C7A" width="14.25" height="4.5"/>
	<rect x="91.5" y="69" fill="#1F1C7A" width="20" height="81"/>
	
		<radialGradient id="SVGID_3_" cx="738.9531" cy="475.1201" r="121.5" gradientTransform="matrix(1 0 0 1 -588.6201 -327.6201)" gradientUnits="userSpaceOnUse">
		<stop  offset="0" style="stop-color:#FFFFFF"/>
		<stop  offset="1" style="stop-color:#FFFFFF;stop-opacity:0"/>
	</radialGradient>
	<circle fill="url(#SVGID_3_)" cx="150.333" cy="147.5" r="121.5"/>
	
		<radialGradient id="light_2_" cx="1058.2559" cy="-1788.855" r="84.138" gradientTransform="matrix(0.8221 -0.0655 -0.0331 -0.4231 -739.998 -457.2231)" gradientUnits="userSpaceOnUse">
		<stop  offset="0" style="stop-color:#FFFFFF;stop-opacity:0.3"/>
		<stop  offset="0.8531" style="stop-color:#FFFFFF;stop-opacity:0.0441"/>
		<stop  offset="1" style="stop-color:#FFFFFF;stop-opacity:0"/>
	</radialGradient>
	<path id="light_1_" fill="url(#light_2_)" d="M283.654,202.129c0.803,8.92-29.901,60.463-89.258,79.438
		c-45.196,14.451-71.418-56.291-72.225-65.211c-0.803-8.922,61.52-36.555,125.777-36.555
		C256.751,179.802,282.852,193.208,283.654,202.129z"/>
	
		<radialGradient id="shadows_2_" cx="914.4063" cy="-793.1582" r="63.0385" gradientTransform="matrix(0.9993 -0.0384 -0.0384 -0.9993 -788.2217 -511.5898)" gradientUnits="userSpaceOnUse">
		<stop  offset="0" style="stop-color:#0033CC;stop-opacity:0.3"/>
		<stop  offset="0.3105" style="stop-color:#0235CC;stop-opacity:0.2069"/>
		<stop  offset="0.4478" style="stop-color:#093BCE;stop-opacity:0.1657"/>
		<stop  offset="0.551" style="stop-color:#1645D0;stop-opacity:0.1347"/>
		<stop  offset="0.6371" style="stop-color:#2853D4;stop-opacity:0.1089"/>
		<stop  offset="0.7126" style="stop-color:#3F66D9;stop-opacity:0.0862"/>
		<stop  offset="0.7807" style="stop-color:#5C7DDE;stop-opacity:0.0658"/>
		<stop  offset="0.8432" style="stop-color:#7E98E5;stop-opacity:0.047"/>
		<stop  offset="0.9013" style="stop-color:#A6B8ED;stop-opacity:0.0296"/>
		<stop  offset="0.9538" style="stop-color:#D2DBF6;stop-opacity:0.0139"/>
		<stop  offset="1" style="stop-color:#FFFFFF;stop-opacity:0"/>
	</radialGradient>
	<path id="shadows_5_" fill="url(#shadows_2_)" d="M244.544,245.378c0.033,5.745-39.58,10.639-88.479,10.926
		c-48.898,0.286-88.568-4.139-88.604-9.885s39.581-10.639,88.48-10.924C204.842,235.207,244.512,239.631,244.544,245.378z"/>
	
		<circle id="circle_1_" fill="none" stroke="#2196F3" stroke-width="2" stroke-miterlimit="10" cx="149.874" cy="149.122" r="146.782"/>
	
		<radialGradient id="shadows_3_" cx="1516.9844" cy="-6607.0635" r="84.6012" gradientTransform="matrix(0.5229 -3.643967e-004 -3.131831e-004 -0.1092 -672.6523 -460.7583)" gradientUnits="userSpaceOnUse">
		<stop  offset="0" style="stop-color:#0033CC;stop-opacity:0.3"/>
		<stop  offset="0.2048" style="stop-color:#0335CD;stop-opacity:0.2386"/>
		<stop  offset="0.3395" style="stop-color:#0C3CCE;stop-opacity:0.1981"/>
		<stop  offset="0.4541" style="stop-color:#1B48D1;stop-opacity:0.1638"/>
		<stop  offset="0.5575" style="stop-color:#3059D6;stop-opacity:0.1327"/>
		<stop  offset="0.6533" style="stop-color:#4B6FDB;stop-opacity:0.104"/>
		<stop  offset="0.7435" style="stop-color:#6D8AE2;stop-opacity:0.077"/>
		<stop  offset="0.8293" style="stop-color:#95AAEA;stop-opacity:0.0512"/>
		<stop  offset="0.9118" style="stop-color:#C4D0F3;stop-opacity:0.0265"/>
		<stop  offset="0.9888" style="stop-color:#F7F8FD;stop-opacity:0.0034"/>
		<stop  offset="1" style="stop-color:#FFFFFF;stop-opacity:0"/>
	</radialGradient>
	<path id="shadows_4_" fill="url(#shadows_3_)" d="M166.954,259.567c0.022,3.939-20.688,7.26-46.259,7.41
		c-25.571,0.147-46.321-2.926-46.344-6.865c-0.023-3.941,20.688-7.26,46.26-7.408C146.182,252.554,166.931,255.626,166.954,259.567z
		"/>
</g>
<g id="char">
	
		<radialGradient id="SVGID_4_" cx="147.2969" cy="129.2168" r="7.898" gradientTransform="matrix(1 0 0 0.6903 0 157.5391)" gradientUnits="userSpaceOnUse">
		<stop  offset="0" style="stop-color:#FFFFFF"/>
		<stop  offset="1" style="stop-color:#9AB4DC"/>
	</radialGradient>
	<path fill="url(#SVGID_4_)" stroke="#808080" stroke-miterlimit="10" d="M142.617,240.713l0.246,3.281c0,0-1.625,3.075-2.131,4.188
		c-2.623,5.771,8.607,5.828,10.492,1.698c1.487-3.26,3.033-8.263,3.033-8.263L142.617,240.713z"/>
	
		<radialGradient id="SVGID_5_" cx="-384.4346" cy="168.8184" r="10.2099" gradientTransform="matrix(-1 0 0 0.7607 -221.4844 118.2026)" gradientUnits="userSpaceOnUse">
		<stop  offset="0" style="stop-color:#FFFFFF"/>
		<stop  offset="1" style="stop-color:#9AB4DC"/>
	</radialGradient>
	<path fill="url(#SVGID_5_)" stroke="#808080" stroke-miterlimit="10" d="M167.714,240.222l-0.246,3.616
		c0,0,1.626,3.388,2.131,4.614c2.623,6.36-8.606,6.423-10.491,1.87c-1.488-3.591-3.033-9.104-3.033-9.104L167.714,240.222z"/>
	<g>
		
			<radialGradient id="SVGID_6_" cx="197.8232" cy="193.9102" r="16.5522" gradientTransform="matrix(0.2915 -0.9566 -0.9566 -0.2915 261.1279 352.5479)" gradientUnits="userSpaceOnUse">
			<stop  offset="0" style="stop-color:#603813"/>
			<stop  offset="0.8495" style="stop-color:#42210B"/>
		</radialGradient>
		<path fill="url(#SVGID_6_)" d="M133.034,117.268c0,0-5.209,13.136-24.319,10.184c3.253-0.552,4.443-3.376,8.197-5.574
			c-5.083,1.476-11.061,2.845-13.607,0.656c5.082-1.147,8.033-3.77,9.836-7.377c-2.293-1.47-5.21,0.578-7.705-1.64
			c4.65,1.332,15.718-13.364,20.323-18.773C128.119,91.97,133.034,117.268,133.034,117.268z"/>
		<path fill="#1C0E05" d="M133.034,117.268c-0.884,2.202-2.386,4.125-4.119,5.76c-0.872,0.819-1.846,1.528-2.868,2.154
			c-1.024,0.624-2.106,1.152-3.224,1.594c-0.563,0.21-1.127,0.416-1.706,0.58c-0.571,0.189-1.162,0.305-1.745,0.452
			c-0.592,0.101-1.181,0.23-1.778,0.289c-0.595,0.084-1.192,0.139-1.792,0.172c-1.197,0.085-2.396,0.068-3.593,0.021l-1.79-0.137
			l-1.779-0.224c-0.263-0.033-0.45-0.273-0.417-0.537c0.026-0.21,0.185-0.372,0.382-0.411l0.028-0.005
			c0.378-0.075,0.749-0.172,1.104-0.316c0.354-0.149,0.698-0.322,1.024-0.54c0.658-0.424,1.262-0.968,1.877-1.525
			c0.615-0.558,1.241-1.133,1.91-1.667c0.667-0.535,1.376-1.028,2.119-1.465l0.376,0.876c-2.26,0.646-4.547,1.247-6.905,1.586
			c-1.179,0.163-2.379,0.261-3.599,0.178c-1.202-0.095-2.499-0.364-3.527-1.231c-0.188-0.158-0.211-0.488-0.054-0.675
			c0.065-0.076,0.15-0.196,0.241-0.196h0.005c2.024,0,3.987-1.175,5.647-2.388c0.83-0.603,1.579-1.287,2.23-2.081
			c0.652-0.793,1.206-1.656,1.67-2.581l0.153,0.563l-0.387-0.205l-0.417-0.147c-0.29-0.075-0.591-0.125-0.905-0.144
			c-0.628-0.04-1.291,0.014-1.978,0.034c-0.343,0.01-0.694,0.014-1.051-0.013c-0.355-0.022-0.718-0.071-1.074-0.167
			c-0.177-0.051-0.358-0.089-0.528-0.169c-0.169-0.076-0.35-0.13-0.506-0.233c-0.333-0.171-0.623-0.4-0.91-0.632
			c-0.183-0.147-0.211-0.415-0.064-0.597c0.109-0.135,0.284-0.186,0.441-0.144l0.026,0.007c0.859,0.231,1.905-0.188,2.808-0.693
			c0.922-0.52,1.788-1.177,2.621-1.868c1.666-1.393,3.21-2.951,4.706-4.549c2.99-3.207,5.766-6.617,8.575-10.008l1.063-1.268
			l0.135-0.157l0.034-0.04l0.061-0.061l0.074-0.071c0.2-0.17,0.476-0.232,0.708-0.168c0.437,0.147,0.617,0.423,0.8,0.659
			c0.662,0.988,1.017,2.036,1.398,3.081c0.718,2.1,1.295,4.229,1.815,6.372C131.378,108.619,132.275,112.931,133.034,117.268z
			 M133.034,117.268c-0.962-4.295-1.953-8.584-3.12-12.822c-0.593-2.115-1.186-4.233-1.939-6.283
			c-0.384-1.009-0.782-2.061-1.368-2.893c-0.139-0.199-0.336-0.374-0.433-0.393c-0.038-0.008-0.047,0.01-0.066,0.006l-0.073,0.073
			c-0.001,0.001-0.048,0.049-0.013,0.011l-0.033,0.04l-0.132,0.157l-1.049,1.268c-2.781,3.406-5.542,6.848-8.533,10.103
			c-1.499,1.624-3.047,3.21-4.749,4.654c-0.856,0.715-1.749,1.399-2.744,1.964c-0.5,0.277-1.021,0.535-1.598,0.701
			c-0.568,0.168-1.216,0.252-1.865,0.076l0.403-0.734c0.24,0.188,0.477,0.38,0.747,0.516c0.125,0.086,0.273,0.125,0.41,0.188
			c0.135,0.066,0.287,0.095,0.432,0.138c0.293,0.079,0.602,0.121,0.917,0.141c0.315,0.023,0.638,0.02,0.968,0.01
			c0.658-0.018,1.342-0.077,2.059-0.033c0.358,0.021,0.723,0.08,1.085,0.175c0.179,0.055,0.356,0.126,0.533,0.191l0.502,0.27
			c0.19,0.102,0.264,0.337,0.168,0.528l-0.015,0.029c-0.487,0.975-1.073,1.908-1.769,2.758c-0.694,0.851-1.499,1.615-2.387,2.263
			c-1.778,1.305-3.86,2.111-5.969,2.597l0.193-0.773c0.785,0.664,1.901,0.923,3.009,1c1.12,0.072,2.267-0.024,3.404-0.188
			c2.278-0.338,4.531-0.939,6.769-1.591c0.254-0.074,0.521,0.072,0.595,0.327c0.063,0.215-0.034,0.44-0.219,0.549
			c-1.4,0.825-2.62,1.894-3.843,3.041c-0.62,0.565-1.269,1.137-2.019,1.617c-0.371,0.243-0.777,0.445-1.194,0.616
			c-0.422,0.167-0.86,0.279-1.303,0.362l-0.007-0.953l1.733,0.238l1.741,0.153c1.163,0.06,2.328,0.09,3.489,0.021
			c2.321-0.123,4.626-0.525,6.823-1.281c1.093-0.389,2.158-0.863,3.172-1.433c1.017-0.566,1.97-1.242,2.874-1.98
			c0.9-0.744,1.729-1.577,2.477-2.48C131.832,119.298,132.518,118.331,133.034,117.268z"/>
	</g>
	<g>
		
			<radialGradient id="SVGID_7_" cx="197.3936" cy="178.7578" r="16.5522" gradientTransform="matrix(-0.0477 -0.6462 -0.7991 0.059 290.6611 237.2549)" gradientUnits="userSpaceOnUse">
			<stop  offset="0" style="stop-color:#603813"/>
			<stop  offset="0.8495" style="stop-color:#42210B"/>
		</radialGradient>
		<path fill="url(#SVGID_7_)" d="M141.116,126.619c0,0-0.25,9.169-15.413,12.074c2.288-1.128,2.394-3.117,4.599-5.356
			c-3.403,2.131-7.508,4.417-10.028,3.726c3.494-1.934,4.978-4.232,5.326-6.841c-2.13-0.322-3.75,1.623-6.239,0.901
			c3.861-0.338,8.073-11.879,10.021-16.256C130.38,112.621,141.116,126.619,141.116,126.619z"/>
		<path fill="#1C0E05" d="M141.116,126.619c-0.018,0.875-0.228,1.744-0.532,2.571c-0.305,0.829-0.718,1.619-1.205,2.361
			c-0.985,1.483-2.309,2.722-3.757,3.749c-0.731,0.504-1.489,0.978-2.282,1.379c-0.791,0.408-1.613,0.743-2.439,1.064
			c-1.662,0.618-3.376,1.074-5.106,1.424c-0.261,0.053-0.515-0.116-0.568-0.377c-0.044-0.218,0.067-0.432,0.257-0.527l0.007-0.003
			c0.487-0.243,0.917-0.56,1.28-0.96c0.368-0.396,0.674-0.871,0.989-1.368c0.618-1.001,1.321-2.056,2.201-2.932l0.597,0.744
			c-1.556,0.964-3.142,1.9-4.829,2.677c-0.845,0.385-1.716,0.732-2.64,0.966c-0.919,0.226-1.917,0.359-2.932,0.105
			c-0.237-0.059-0.38-0.299-0.321-0.536c0.03-0.122,0.109-0.22,0.211-0.277l0.012-0.007c1.276-0.716,2.484-1.569,3.407-2.665
			c0.929-1.088,1.518-2.425,1.706-3.844l0.364,0.485c-0.23-0.028-0.461-0.038-0.697-0.019c-0.235,0.026-0.473,0.068-0.713,0.133
			c-0.481,0.128-0.969,0.324-1.484,0.506c-0.514,0.182-1.063,0.35-1.647,0.413c-0.582,0.066-1.187,0.014-1.752-0.146
			c-0.228-0.065-0.36-0.149-0.296-0.377c0.049-0.173,0.198-0.157,0.367-0.157h0.011c0.606,0,1.217-0.606,1.738-1.099
			c0.528-0.489,0.997-1.146,1.432-1.751c0.873-1.214,1.616-2.578,2.313-3.925c1.39-2.704,2.563-5.541,3.77-8.357l0.462-1.065
			l0.03-0.071l0.054-0.098c0.001-0.017,0.115-0.16,0.185-0.208c0.159-0.118,0.342-0.143,0.49-0.14
			c0.288,0.024,0.488,0.124,0.68,0.22c0.732,0.416,1.291,0.947,1.859,1.478c1.111,1.078,2.142,2.217,3.128,3.392
			C137.431,121.729,139.322,124.138,141.116,126.619z M141.116,126.619c-1.956-2.354-3.92-4.7-5.991-6.944
			c-1.041-1.115-2.077-2.238-3.197-3.255c-0.558-0.498-1.143-1.007-1.755-1.329c-0.148-0.074-0.308-0.129-0.404-0.131
			c-0.042,0.004-0.056,0.011-0.052,0.01c0.003,0.018,0.035-0.063-0.003,0.008c-0.004,0.006-0.041,0.075-0.018,0.029l-0.028,0.065
			l-0.448,1.05c-1.173,2.82-2.325,5.668-3.706,8.424c-0.694,1.376-1.436,2.735-2.336,4.017c-0.454,0.638-0.948,1.257-1.54,1.811
			c-0.584,0.544-1.305,1.066-2.24,1.177l0.082-0.84c0.464,0.129,0.94,0.17,1.42,0.116c0.48-0.052,0.961-0.195,1.453-0.37
			c0.492-0.173,0.997-0.379,1.548-0.528c0.276-0.075,0.564-0.128,0.86-0.159c0.298-0.025,0.6-0.015,0.902,0.024
			c0.231,0.03,0.396,0.241,0.366,0.473l-0.001,0.012c-0.199,1.566-0.866,3.092-1.891,4.295c-1.019,1.214-2.311,2.124-3.647,2.879
			l-0.098-0.82c0.198,0.026,0.382,0.093,0.591,0.089c0.202,0.019,0.408,0.02,0.618-0.001c0.417-0.022,0.841-0.112,1.261-0.214
			c0.842-0.218,1.67-0.551,2.479-0.926c1.619-0.758,3.173-1.687,4.707-2.65c0.225-0.141,0.521-0.073,0.662,0.151
			c0.121,0.192,0.087,0.438-0.065,0.593c-0.801,0.818-1.421,1.763-2.041,2.79c-0.318,0.508-0.669,1.034-1.114,1.509
			c-0.442,0.478-0.991,0.873-1.572,1.153l-0.304-0.907c1.694-0.314,3.368-0.733,4.986-1.306c1.609-0.589,3.176-1.299,4.625-2.207
			c1.444-0.915,2.745-2.057,3.793-3.415c0.523-0.677,0.983-1.41,1.343-2.194C140.71,128.312,141.004,127.486,141.116,126.619z"/>
	</g>
	<g>
		
			<radialGradient id="SVGID_8_" cx="191.3301" cy="118.6851" r="16.5524" gradientTransform="matrix(0.3121 -0.5678 0.7022 0.386 32.4902 182.3555)" gradientUnits="userSpaceOnUse">
			<stop  offset="0" style="stop-color:#603813"/>
			<stop  offset="0.8495" style="stop-color:#42210B"/>
		</radialGradient>
		<path fill="url(#SVGID_8_)" d="M170.428,124.18c0,0-3.585,8.442,8.997,17.389c-1.611-1.977-0.881-3.83-1.955-6.783
			c2.209,3.353,4.991,7.14,7.571,7.558c-2.374-3.212-2.768-5.919-2-8.437c2.072,0.593,2.736,3.035,5.3,3.415
			c-3.371-1.913-2.401-14.16-2.354-18.951C186.013,115.912,170.428,124.18,170.428,124.18z"/>
		<path fill="#1C0E05" d="M170.428,124.18c-0.259,0.834-0.335,1.708-0.342,2.568c0.001,0.863,0.114,1.721,0.309,2.555
			c0.389,1.67,1.098,3.25,2.03,4.682c0.939,1.428,2.07,2.726,3.288,3.93c1.233,1.193,2.582,2.27,3.991,3.26l-0.653,0.699
			c-0.412-0.497-0.747-1.084-0.95-1.703c-0.208-0.618-0.308-1.241-0.386-1.836c-0.137-1.192-0.309-2.309-0.696-3.386
			c-0.091-0.249,0.037-0.524,0.286-0.616c0.213-0.078,0.446,0.006,0.566,0.188c0.994,1.514,2.021,3.004,3.178,4.367
			c0.58,0.678,1.194,1.325,1.869,1.873c0.34,0.268,0.688,0.525,1.059,0.719c0.183,0.106,0.37,0.192,0.562,0.258
			c0.188,0.09,0.384,0.106,0.574,0.164l-0.43,0.706c-0.902-1.243-1.699-2.608-2.121-4.136c-0.433-1.52-0.404-3.186,0.065-4.692
			l0.004-0.012c0.069-0.223,0.307-0.347,0.529-0.277c0.29,0.09,0.569,0.206,0.83,0.353c0.256,0.151,0.496,0.32,0.717,0.502
			c0.439,0.365,0.813,0.762,1.188,1.125c0.375,0.363,0.753,0.693,1.168,0.94c0.414,0.249,0.864,0.41,1.34,0.485l-0.274,0.798
			c-0.805-0.49-1.243-1.264-1.548-2.001c-0.309-0.75-0.5-1.519-0.648-2.287c-0.286-1.54-0.395-3.084-0.454-4.625
			c-0.109-3.08,0.028-6.149,0.134-9.202l0.029-1.142l0.002-0.071c0.001,0.052-0.003-0.027-0.004-0.034
			c-0.006-0.081-0.011,0.008,0-0.008c0.004,0.001-0.007-0.01-0.043-0.031c-0.089-0.038-0.257-0.054-0.423-0.049
			c-0.691,0.039-1.435,0.258-2.149,0.479c-1.44,0.459-2.851,1.049-4.261,1.631C175.947,121.535,173.186,122.853,170.428,124.18z
			 M170.428,124.18c2.663-1.511,5.385-2.916,8.152-4.237c1.387-0.658,2.797-1.265,4.256-1.784c0.737-0.247,1.468-0.498,2.306-0.572
			c0.215-0.008,0.438-0.016,0.71,0.082c0.136,0.059,0.292,0.157,0.388,0.33c0.044,0.072-0.077,0.249-0.083,0.265L186,118.374v0.072
			l0.146,1.153c-0.074,3.063-0.096,6.114,0.044,9.15c0.073,1.515,0.239,3.03,0.528,4.497c0.145,0.731,0.35,1.454,0.627,2.119
			c0.269,0.665,0.672,1.271,1.196,1.583l0.015,0.005c0.204,0.121,0.273,0.384,0.152,0.588c-0.092,0.155-0.265,0.23-0.432,0.205
			c-0.582-0.089-1.154-0.293-1.655-0.596c-0.505-0.3-0.934-0.681-1.325-1.06c-0.393-0.38-0.755-0.761-1.139-1.078
			c-0.192-0.159-0.391-0.296-0.595-0.417c-0.206-0.115-0.421-0.203-0.642-0.273l0.533-0.29c-0.419,1.369-0.439,2.829-0.047,4.206
			c0.385,1.381,1.128,2.659,1.991,3.84l0.008,0.01c0.144,0.197,0.101,0.474-0.096,0.618c-0.103,0.074-0.227,0.099-0.342,0.078
			c-1.028-0.191-1.881-0.727-2.623-1.315c-0.743-0.597-1.392-1.275-2-1.977c-1.211-1.409-2.264-2.919-3.278-4.443l0.853-0.428
			c0.436,1.163,0.638,2.414,0.782,3.582c0.079,0.583,0.161,1.142,0.33,1.655c0.164,0.515,0.424,0.981,0.766,1.405l0.005,0.005
			c0.167,0.208,0.135,0.511-0.072,0.678c-0.174,0.14-0.414,0.14-0.587,0.015c-1.428-1.038-2.797-2.165-4.052-3.418
			c-0.617-0.636-1.227-1.282-1.775-1.982c-0.555-0.695-1.047-1.44-1.502-2.203c-0.891-1.537-1.58-3.213-1.858-4.972
			c-0.135-0.877-0.182-1.768-0.114-2.648C169.909,125.86,170.08,124.983,170.428,124.18z"/>
	</g>
	<linearGradient id="SVGID_9_" gradientUnits="userSpaceOnUse" x1="154.0518" y1="188.5098" x2="155.3675" y2="263.1705">
		<stop  offset="0" style="stop-color:#1B1464"/>
		<stop  offset="1" style="stop-color:#1E2AA6"/>
	</linearGradient>
	<path fill="url(#SVGID_9_)" stroke="#00097F" stroke-miterlimit="10" d="M169.174,240.713c0,0-3.565,2.582-7.131,2.705
		s-7.131-2.705-7.131-2.705s-2.951,2.951-7.623,2.459c-4.672-0.491-7.193-1.168-7.193-1.168s-2.213-1.967-2.09-2.459
		c0.123-0.491,0.984-0.922,0.984-1.353c0-0.43-1.229-0.799-1.353-1.291c-0.123-0.491,0.964-1.372,0.452-3.01
		c-0.513-1.638-11.21-52.392-11.21-52.392h54.099c0,0-10.313,52.402-10.535,52.777c-0.224,0.374,0.207,1.223,0.638,1.715
		c0.43,0.492-1.491,1.143-1.476,1.5s0.86,0.688,1.291,1.549C171.292,239.834,169.174,240.713,169.174,240.713z"/>
	<g>
		
			<radialGradient id="SVGID_10_" cx="55.8848" cy="645.0605" r="15.1949" gradientTransform="matrix(-0.2915 -0.9566 0.9566 -0.2915 -423.9033 352.5479)" gradientUnits="userSpaceOnUse">
			<stop  offset="0" style="stop-color:#603813"/>
			<stop  offset="0.8495" style="stop-color:#42210B"/>
		</radialGradient>
		<path fill="url(#SVGID_10_)" d="M177.929,123.202c0,0,6.024,10.347,15.614,12.068c-0.737-1.967,0.107-5.943-0.737-8.606
			c0.968,1.926,3.442,3.319,7.745,4.426c-1.967-3.443-2.745-5.123-4.549-8.729c1.992,1.393,5.129,2.708,7.623,0.492
			c-4.304-1.721-8.305-20.78-12.91-26.188C188.354,93.89,177.929,123.202,177.929,123.202z"/>
		<path fill="#1C0E05" d="M177.929,123.202c0.968,1.388,2.027,2.703,3.18,3.927c1.145,1.229,2.354,2.394,3.67,3.422
			c1.316,1.024,2.712,1.938,4.187,2.683c1.477,0.743,3.05,1.273,4.663,1.561l-0.537,0.645c-0.275-0.786-0.325-1.547-0.359-2.289
			c-0.027-0.742-0.02-1.469-0.014-2.189c0.007-1.429,0.019-2.872-0.37-4.153l-0.002-0.006c-0.076-0.254,0.066-0.522,0.32-0.599
			c0.228-0.069,0.466,0.039,0.568,0.244c0.617,1.229,1.869,2.093,3.189,2.729c1.334,0.643,2.779,1.093,4.238,1.48l-0.499,0.653
			l-2.351-4.348l-2.197-4.41c-0.106-0.214-0.02-0.474,0.194-0.58c0.146-0.073,0.314-0.054,0.44,0.032
			c1.092,0.756,2.315,1.362,3.588,1.546c0.317,0.045,0.636,0.064,0.95,0.044c0.313-0.015,0.625-0.065,0.923-0.155
			c0.147-0.049,0.301-0.083,0.439-0.156c0.139-0.07,0.29-0.115,0.42-0.207c0.275-0.15,0.522-0.348,0.77-0.547l0.126,0.719
			c-0.703-0.295-1.175-0.803-1.596-1.302c-0.412-0.51-0.762-1.05-1.08-1.6c-0.634-1.102-1.165-2.242-1.66-3.392
			c-0.984-2.302-1.838-4.643-2.698-6.975c-0.859-2.332-1.71-4.665-2.661-6.948c-0.478-1.141-0.98-2.27-1.545-3.36
			c-0.283-0.544-0.582-1.079-0.908-1.592c-0.163-0.256-0.333-0.507-0.513-0.748c-0.15-0.208-0.447-0.576-0.438-0.511
			c-0.058-0.036-0.328,0.105-0.518,0.297c-0.204,0.19-0.395,0.42-0.576,0.658c-0.361,0.479-0.688,0.999-1.002,1.527
			c-0.623,1.06-1.188,2.162-1.733,3.273c-1.085,2.228-2.083,4.502-3.067,6.782C181.516,113.928,179.703,118.558,177.929,123.202z
			 M177.929,123.202c1.596-4.71,3.32-9.376,5.153-14.002c0.919-2.313,1.884-4.608,2.944-6.866c0.531-1.129,1.084-2.249,1.704-3.342
			c0.313-0.546,0.639-1.085,1.019-1.604c0.191-0.259,0.394-0.514,0.641-0.752c0.254-0.209,0.521-0.535,1.104-0.482
			c0.142,0.028,0.259,0.082,0.373,0.181c0.092,0.078,0.146,0.151,0.192,0.208c0.104,0.124,0.203,0.25,0.299,0.378
			c0.194,0.256,0.374,0.519,0.547,0.786c0.344,0.534,0.656,1.083,0.95,1.64c0.587,1.113,1.103,2.254,1.594,3.403
			c0.977,2.3,1.845,4.634,2.721,6.96c0.876,2.326,1.743,4.653,2.729,6.916c0.497,1.128,1.017,2.247,1.627,3.297
			c0.605,1.016,1.327,2.116,2.259,2.532l0.031,0.014c0.211,0.094,0.306,0.342,0.212,0.553c-0.027,0.061-0.069,0.113-0.117,0.153
			c-0.29,0.237-0.583,0.47-0.916,0.653c-0.156,0.107-0.339,0.168-0.509,0.251c-0.17,0.087-0.355,0.131-0.535,0.19
			c-0.363,0.108-0.74,0.169-1.115,0.188c-0.375,0.023-0.75,0.002-1.117-0.05c-1.473-0.216-2.791-0.883-3.964-1.69l0.635-0.548
			l2.206,4.396l2.344,4.306l0.004,0.008c0.118,0.216,0.038,0.487-0.179,0.605c-0.103,0.056-0.219,0.067-0.324,0.04
			c-1.495-0.386-2.987-0.835-4.416-1.509c-0.712-0.338-1.409-0.736-2.048-1.241c-0.641-0.498-1.206-1.14-1.599-1.892l0.887-0.361
			c0.462,1.5,0.441,3,0.451,4.449c-0.002,0.726-0.021,1.445,0,2.149c0.022,0.699,0.079,1.399,0.28,1.984l0.006,0.019
			c0.087,0.25-0.047,0.522-0.297,0.609c-0.081,0.028-0.167,0.032-0.246,0.017c-3.432-0.663-6.575-2.377-9.136-4.643
			c-1.29-1.126-2.485-2.354-3.552-3.682C179.717,126.086,178.725,124.699,177.929,123.202z"/>
	</g>
	<path fill="#1B1464" stroke="#161699" stroke-width="0.75" stroke-miterlimit="10" d="M190.69,155.017
		c0.093,0.649-1.511,1.2-4.303,1.599c-2.796,0.396-5.933,0.772-6.025,0.122c-0.094-0.65,2.616-2.184,5.41-2.581
		C188.565,153.757,190.599,154.365,190.69,155.017z"/>
	
		<radialGradient id="SVGID_11_" cx="153.873" cy="137.9556" r="24.1735" gradientTransform="matrix(1 0 0 2.1959 0 -164.9771)" gradientUnits="userSpaceOnUse">
		<stop  offset="0" style="stop-color:#2699F3"/>
		<stop  offset="0.5166" style="stop-color:#2367F3"/>
		<stop  offset="1" style="stop-color:#2144F3"/>
	</radialGradient>
	<path fill="url(#SVGID_11_)" stroke="#161699" stroke-miterlimit="10" d="M187.617,184.771c0,0-19.663,7.5-32.214,7.5
		c-26.926,0-36.885-8.853-36.885-8.853s3.771,0.739,7.049-13.031c2.648-11.125,3.128-26.931,6.844-29.264
		c7.05-4.426,36.926-4.835,42.172-1.065c2.884,2.073,4.664,16.967,7.705,28.524C185.567,181.042,187.617,184.771,187.617,184.771z"
		/>
	<g>
		
			<radialGradient id="SVGID_12_" cx="-384.7354" cy="613.6406" r="14.3371" gradientTransform="matrix(-0.3067 0.9518 0.9518 0.3067 -521.249 350.2324)" gradientUnits="userSpaceOnUse">
			<stop  offset="0" style="stop-color:#FFE2A2"/>
			<stop  offset="0.472" style="stop-color:#FFC98A"/>
			<stop  offset="1" style="stop-color:#FFA96A"/>
		</radialGradient>
		<path fill="url(#SVGID_12_)" d="M182.708,153.074c0,0,2.613,10.214,2.532,12.182c-0.098,2.271-4.06,10.943-5.353,13.15
			c-0.916,1.562-1.28,2.933-3.828,2.273c-6.478-1.674-4.782,2.245-1.72,2.129c3.066-0.113-4.294,3.295-3.119,4.773
			c1.175,1.48,4.454-1.865,4.454-1.865s-3.736,5.4-1.26,4.547c2.479-0.854,3.005-3.985,3.005-3.985s-1.099,5.975,0.541,4.302
			c1.637-1.673,3.073-9.328,3.073-9.328s7.881-13.352,8.111-15.135c0.23-1.785-3.242-12.544-3.242-12.544"/>
		<path fill="#8C6239" d="M182.708,153.074c0.576,2.111,1.132,4.229,1.638,6.359c0.251,1.066,0.495,2.134,0.712,3.21
			c0.107,0.538,0.209,1.078,0.287,1.626c0.091,0.533,0.115,1.147-0.006,1.682c-0.231,1.117-0.591,2.142-0.958,3.184
			c-0.377,1.033-0.792,2.049-1.213,3.063c-0.858,2.021-1.74,4.023-2.767,5.984l-0.797,1.448c-0.279,0.479-0.637,1.024-1.238,1.336
			c-0.6,0.307-1.263,0.296-1.835,0.209c-0.589-0.102-1.098-0.25-1.616-0.337c-0.521-0.09-1.047-0.153-1.554-0.15
			c-0.486-0.007-1.042,0.092-1.233,0.302c-0.084,0.092-0.092,0.159-0.046,0.318c0.06,0.154,0.195,0.326,0.364,0.469
			c0.343,0.287,0.8,0.483,1.27,0.554c0.246,0.043,0.452,0.043,0.738,0.034c0.165,0.001,0.32,0.002,0.525,0.049
			c0.105,0.034,0.236,0.057,0.401,0.226c0.186,0.184,0.177,0.517,0.117,0.633c-0.22,0.475-0.438,0.585-0.654,0.808
			c-0.217,0.192-0.435,0.367-0.65,0.54c-0.851,0.684-1.763,1.333-2.379,2.09c-0.145,0.18-0.254,0.39-0.256,0.488
			c-0.002,0.05,0,0.055,0.02,0.084c-0.007-0.008,0.027,0.034-0.015-0.015l0.035,0.038l0.069,0.074l0.063,0.04
			c0.214,0.147,0.697,0.051,1.131-0.165c0.886-0.436,1.73-1.151,2.468-1.875c0.19-0.188,0.496-0.188,0.685,0.001
			c0.165,0.166,0.184,0.425,0.059,0.612c-0.503,0.746-0.987,1.53-1.403,2.32c-0.203,0.396-0.397,0.802-0.519,1.188
			c-0.061,0.184-0.092,0.392-0.08,0.455c0.013,0.023-0.015-0.057-0.091-0.09c-0.038-0.027-0.024,0.002,0.051-0.017
			c0.046,0.002,0.182-0.047,0.209-0.05l0.32-0.133c0.212-0.098,0.33-0.172,0.505-0.291c0.335-0.224,0.618-0.53,0.869-0.862
			c0.25-0.334,0.46-0.708,0.63-1.103c0.166-0.389,0.307-0.824,0.384-1.211l0.943,0.166c-0.109,0.608-0.203,1.234-0.271,1.852
			c-0.065,0.615-0.118,1.245-0.077,1.814c0.011,0.139,0.031,0.274,0.061,0.371c0.014,0.046,0.032,0.081,0.031,0.078
			c0.007,0.003-0.067-0.068-0.146-0.067c-0.133,0.021,0.003-0.006,0.075-0.09c0.056-0.052,0.07-0.066,0.129-0.135
			c0.06-0.063,0.102-0.117,0.132-0.164c0.147-0.202,0.309-0.473,0.438-0.74c0.134-0.271,0.45-0.551,0.563-0.838
			c0.896-2.316,1.175-4.811,2.175-7.272v-0.008c0-0.047-0.164-0.092-0.141-0.131l3.725-6.496c1.249-2.178,2.453-4.361,3.576-6.595
			c0.272-0.557,0.529-1.129,0.712-1.686c0.129-0.508-0.036-1.139-0.124-1.751c-0.22-1.226-0.524-2.448-0.83-3.665
			c-0.623-2.434-1.313-4.853-2.012-7.27c0.831,2.375,1.606,4.769,2.319,7.185c0.353,1.209,0.696,2.421,0.968,3.661
			c0.105,0.615,0.315,1.252,0.155,1.981c-0.197,0.645-0.466,1.209-0.732,1.787c-1.09,2.284-2.296,4.492-3.504,6.702
			c-1.218,2.205-2.44,4.403-3.711,6.579l0.052-0.138c-0.241,1.264-0.518,2.509-0.834,3.753c-0.321,1.242-0.669,2.479-1.145,3.696
			c-0.118,0.305-0.249,0.607-0.396,0.908c-0.147,0.305-0.305,0.589-0.53,0.901c-0.061,0.084-0.117,0.154-0.167,0.208
			c-0.044,0.054-0.137,0.154-0.2,0.209c-0.162,0.117-0.295,0.316-0.756,0.329c-0.239-0.009-0.457-0.179-0.539-0.307
			c-0.095-0.133-0.136-0.246-0.171-0.352c-0.063-0.208-0.085-0.389-0.103-0.567c-0.053-0.701,0.029-1.345,0.092-1.994
			c0.068-0.647,0.295-1.28,0.295-1.925v-0.007c0-0.261,0.268-0.435,0.529-0.39c0.26,0.045,0.423,0.293,0.377,0.554l-0.009,0.009
			c-0.101,0.521-0.25,0.969-0.441,1.432c-0.192,0.455-0.435,0.896-0.734,1.304c-0.302,0.404-0.654,0.79-1.086,1.086
			c-0.2,0.147-0.487,0.31-0.693,0.401l-0.319,0.135c-0.192,0.063-0.276,0.095-0.462,0.12c-0.151,0.025-0.375,0.034-0.628-0.077
			c-0.29-0.142-0.425-0.448-0.451-0.65c-0.041-0.397,0.047-0.649,0.119-0.905c0.16-0.495,0.375-0.923,0.596-1.348
			c0.451-0.842,0.945-1.63,1.48-2.413l0.742,0.614c-0.827,0.794-1.673,1.52-2.756,2.054c-0.274,0.126-0.568,0.238-0.905,0.292
			c-0.328,0.058-0.744,0.033-1.105-0.181c-0.087-0.049-0.196-0.142-0.266-0.205l-0.069-0.076l-0.035-0.037
			c-0.063-0.075-0.048-0.063-0.074-0.099c-0.141-0.194-0.201-0.472-0.174-0.694c0.059-0.451,0.269-0.72,0.452-0.968
			c0.785-0.937,1.698-1.546,2.548-2.229c0.213-0.167,0.423-0.334,0.616-0.504c0.179-0.147,0.403-0.396,0.406-0.427
			c-0.011-0.011-0.025,0.166,0.063,0.249c0.07,0.066,0.065,0.043,0.041,0.041c-0.062-0.016-0.182-0.025-0.29-0.024
			c-0.261,0.007-0.604,0.005-0.897-0.052c-0.608-0.101-1.198-0.345-1.692-0.763c-0.243-0.213-0.471-0.473-0.609-0.831
			c-0.148-0.35-0.086-0.908,0.237-1.204c0.299-0.301,0.639-0.402,0.944-0.472c0.312-0.065,0.613-0.086,0.906-0.083
			c0.589,0.007,1.151,0.091,1.706,0.197c1.107,0.222,2.151,0.66,2.964,0.262c0.775-0.385,1.207-1.555,1.777-2.447
			c1.038-1.897,1.96-3.889,2.848-5.879c0.437-0.999,0.866-2.003,1.259-3.019c0.392-1.008,0.783-2.048,1.027-3.067
			c0.134-0.535,0.123-1.028,0.051-1.577c-0.062-0.537-0.147-1.076-0.239-1.613c-0.187-1.075-0.4-2.147-0.622-3.218
			C183.676,157.343,183.207,155.205,182.708,153.074z"/>
	</g>
	<path fill="#1B1464" stroke="#161699" stroke-width="0.75" stroke-miterlimit="10" d="M127.333,157.084
		c-0.643,0.775-3.692-0.188-6.583-2.584c-2.893-2.4-4.56-3.059-3.917-3.833c0.643-0.778,1.073-3.083,3.965-0.684
		C123.691,152.381,127.978,156.309,127.333,157.084z"/>
	<g>
		
			<radialGradient id="SVGID_13_" cx="-272.249" cy="77.3662" r="6.0178" gradientTransform="matrix(0.4007 0.9162 -0.9162 0.4007 295.9409 373.6836)" gradientUnits="userSpaceOnUse">
			<stop  offset="0" style="stop-color:#FFE2A2"/>
			<stop  offset="0.472" style="stop-color:#FFC98A"/>
			<stop  offset="1" style="stop-color:#FFA96A"/>
		</radialGradient>
		<path fill="url(#SVGID_13_)" d="M109.833,159.667C108.5,156.833,119.75,149,119.75,149l3.189,3.709c0,0-6.648,3.937-7.773,5.624
			c0,0-1,2.5-2.667,3S109.833,159.667,109.833,159.667z"/>
		<path fill="#8C6239" d="M109.833,159.667c-0.269-0.596-0.009-1.26,0.269-1.802c0.298-0.555,0.662-1.071,1.054-1.564
			c0.796-0.975,1.653-1.904,2.559-2.781c1.819-1.751,3.722-3.407,5.762-4.911c0.194-0.143,0.463-0.112,0.621,0.064l0.014,0.016
			c1.081,1.221,2.146,2.456,3.191,3.708l0.009,0.01c0.168,0.201,0.141,0.5-0.061,0.668c-0.021,0.018-0.045,0.034-0.067,0.048
			c-1.38,0.794-2.766,1.6-4.13,2.431c-0.678,0.423-1.352,0.853-2.003,1.312c-0.322,0.232-0.646,0.464-0.951,0.717
			c-0.159,0.121-0.3,0.256-0.445,0.389c-0.154,0.128-0.262,0.283-0.396,0.426l0.011-0.021c-0.272,0.584-0.603,1.125-0.991,1.63
			c-0.39,0.499-0.861,0.954-1.44,1.226c-0.147,0.053-0.297,0.127-0.453,0.147c-0.152,0.042-0.313,0.044-0.473,0.045
			c-0.319-0.023-0.623-0.142-0.886-0.316C110.5,160.753,110.115,160.227,109.833,159.667z M109.833,159.667
			c0.288,0.556,0.68,1.076,1.207,1.42c0.263,0.169,0.563,0.28,0.875,0.3c0.155-0.003,0.309-0.005,0.463-0.05
			c0.158-0.022,0.291-0.102,0.437-0.158c0.556-0.286,0.999-0.747,1.363-1.25c0.366-0.503,0.662-1.064,0.884-1.638
			c0.002-0.006,0.007-0.016,0.011-0.021c0.126-0.163,0.238-0.349,0.383-0.491c0.139-0.15,0.275-0.306,0.426-0.441
			c0.291-0.286,0.599-0.549,0.906-0.813c0.621-0.521,1.262-1.012,1.909-1.496c1.295-0.966,2.623-1.877,3.997-2.731l-0.119,0.725
			c-1.081-1.221-2.143-2.458-3.188-3.71l0.634,0.081c-1.028,0.69-2.05,1.418-3.068,2.14c-1.014,0.731-2.011,1.486-2.977,2.28
			c-0.958,0.801-1.915,1.616-2.739,2.559c-0.41,0.471-0.809,0.959-1.108,1.51C109.846,158.415,109.576,159.067,109.833,159.667z"/>
	</g>
	<radialGradient id="SVGID_14_" cx="113.25" cy="151" r="20.57" gradientUnits="userSpaceOnUse">
		<stop  offset="0" style="stop-color:#2367F3"/>
		<stop  offset="1" style="stop-color:#2144F3"/>
	</radialGradient>
	
		<path fill="url(#SVGID_14_)" stroke="#161699" stroke-width="0.75" stroke-linecap="round" stroke-linejoin="round" stroke-miterlimit="10" d="
		M123.125,143.875c-0.75,0.5-5,3.625-6.458,6.292c0,0,0.977-1.882,3.25,0c1.787,1.478,7.5,6.167,7.5,6.167
		s4.708-11.709,11.083-17.709C130.875,139.917,126.722,141.478,123.125,143.875z"/>
	<radialGradient id="SVGID_15_" cx="194.75" cy="151.5" r="19.6866" gradientUnits="userSpaceOnUse">
		<stop  offset="0" style="stop-color:#2367F3"/>
		<stop  offset="1" style="stop-color:#2144F3"/>
	</radialGradient>
	
		<path fill="url(#SVGID_15_)" stroke="#161699" stroke-width="0.75" stroke-linecap="round" stroke-linejoin="round" stroke-miterlimit="10" d="
		M183.313,142.353c2.356,2.16,7.377,12.664,7.377,12.664s-0.645-1.277-3.565-0.86c-2.296,0.327-6.803,1.968-6.803,1.968
		s-4.894-10.973-9.197-16.874C175.552,139.25,180.773,140.025,183.313,142.353z"/>
	
		<radialGradient id="SVGID_16_" cx="154.9814" cy="55.7393" r="21.5501" gradientTransform="matrix(0.0278 0.7486 -2.2353 0.0465 275.2747 21.8734)" gradientUnits="userSpaceOnUse">
		<stop  offset="0" style="stop-color:#040739;stop-opacity:0.6"/>
		<stop  offset="1" style="stop-color:#040739;stop-opacity:0"/>
	</radialGradient>
	<path fill="url(#SVGID_16_)" d="M183.929,145.328c0,8.305-14.056,15.959-30.165,15.959s-29.169-6.733-29.169-15.039
		c0-3.954,2.206-4.369,6.155-5.749c7.875-2.75,12.223-0.088,22.357,0.041c9.101,0.115,18.013-2.392,23.772-1.105
		C181.314,140.427,183.929,141.716,183.929,145.328z"/>
	
		<radialGradient id="SVGID_17_" cx="156.1416" cy="136.9429" r="14.3855" gradientTransform="matrix(0.8515 0 0 1 23.0405 0)" gradientUnits="userSpaceOnUse">
		<stop  offset="0" style="stop-color:#FFE2A2"/>
		<stop  offset="0.472" style="stop-color:#FFC98A"/>
		<stop  offset="1" style="stop-color:#FFA96A"/>
	</radialGradient>
	<ellipse fill="url(#SVGID_17_)" stroke="#1B1464" stroke-miterlimit="10" cx="156" cy="136.943" rx="13" ry="13.447"/>
	<linearGradient id="SVGID_18_" gradientUnits="userSpaceOnUse" x1="155.6865" y1="133.4751" x2="156.6865" y2="152.1416">
		<stop  offset="0" style="stop-color:#C76139"/>
		<stop  offset="0.4079" style="stop-color:#CE6F43;stop-opacity:0.5921"/>
		<stop  offset="1" style="stop-color:#DB8B56;stop-opacity:0"/>
	</linearGradient>
	<path fill="url(#SVGID_18_)" d="M143.124,138.696c0,0,14.854-1.032,25.693,0.12c-1.587,4.929-5.348,12.823-10.922,12.344
		C152.322,150.68,146.429,148.886,143.124,138.696z"/>
	
		<radialGradient id="SVGID_19_" cx="3097.9063" cy="-1084.334" r="44.7214" gradientTransform="matrix(0.0984 0 0 0.2157 -196.5391 331.6343)" gradientUnits="userSpaceOnUse">
		<stop  offset="0" style="stop-color:#FFE2A2"/>
		<stop  offset="0.472" style="stop-color:#FFC98A"/>
		<stop  offset="1" style="stop-color:#FFA96A"/>
	</radialGradient>
	<ellipse fill="url(#SVGID_19_)" stroke="#8C6239" stroke-miterlimit="10" cx="108.436" cy="97.762" rx="4.672" ry="9.017"/>
	
		<radialGradient id="SVGID_20_" cx="156.1426" cy="99.5654" r="44.7208" gradientTransform="matrix(0.9139 0 0 1 13.9204 0)" gradientUnits="userSpaceOnUse">
		<stop  offset="0" style="stop-color:#FFE2A2"/>
		<stop  offset="0.472" style="stop-color:#FFC98A"/>
		<stop  offset="1" style="stop-color:#FFA96A"/>
	</radialGradient>
	<ellipse fill="url(#SVGID_20_)" stroke="#8C6239" stroke-miterlimit="10" cx="156.625" cy="99.565" rx="43.375" ry="41.804"/>
	
		<radialGradient id="SVGID_21_" cx="4067.0703" cy="-1056.9727" r="44.7223" gradientTransform="matrix(0.0984 0 0 0.2157 -196.5391 331.6343)" gradientUnits="userSpaceOnUse">
		<stop  offset="0" style="stop-color:#FFE2A2"/>
		<stop  offset="0.472" style="stop-color:#FFC98A"/>
		<stop  offset="1" style="stop-color:#FFA96A"/>
	</radialGradient>
	<ellipse fill="url(#SVGID_21_)" stroke="#8C6239" stroke-miterlimit="10" cx="203.846" cy="103.663" rx="4.672" ry="9.017"/>
	<g>
		<linearGradient id="SVGID_22_" gradientUnits="userSpaceOnUse" x1="115.7393" y1="109.3491" x2="139.3459" y2="112.2999">
			<stop  offset="0" style="stop-color:#C76139;stop-opacity:0.8"/>
			<stop  offset="0.4079" style="stop-color:#CE6F43;stop-opacity:0.4737"/>
			<stop  offset="1" style="stop-color:#DB8B56;stop-opacity:0"/>
		</linearGradient>
		<path fill="url(#SVGID_22_)" d="M145.649,140.075c0,0-16.721-5.083-21.803-13.935c-25.574-25.409,16.561-40.696,16.561-40.696
			S103.19,122.37,145.649,140.075z"/>
	</g>
	<line fill="none" stroke="#1B1464" stroke-miterlimit="10" x1="134.25" y1="105.625" x2="112.875" y2="91.25"/>
	<line fill="none" stroke="#1B1464" stroke-miterlimit="10" x1="181.875" y1="107.625" x2="203.25" y2="93.25"/>
	<g>
		
			<linearGradient id="SVGID_23_" gradientUnits="userSpaceOnUse" x1="-393.7266" y1="110.2061" x2="-370.4304" y2="113.1181" gradientTransform="matrix(-1 0 0 1 -195.542 0)">
			<stop  offset="0" style="stop-color:#C76139;stop-opacity:0.8"/>
			<stop  offset="0.4079" style="stop-color:#CE6F43;stop-opacity:0.4737"/>
			<stop  offset="1" style="stop-color:#DB8B56;stop-opacity:0"/>
		</linearGradient>
		<path fill="url(#SVGID_23_)" d="M168.608,140.059c0,0,16.721-5.082,21.804-13.935c25.287-28.525-19.304-38.689-19.304-38.689
			S211.067,122.354,168.608,140.059z"/>
	</g>
	<g>
		<linearGradient id="SVGID_24_" gradientUnits="userSpaceOnUse" x1="147.6582" y1="83.2021" x2="150.5263" y2="101.9314">
			<stop  offset="0" style="stop-color:#C76139"/>
			<stop  offset="0.4079" style="stop-color:#CE6F43;stop-opacity:0.5921"/>
			<stop  offset="1" style="stop-color:#DB8B56;stop-opacity:0"/>
		</linearGradient>
		<path fill="url(#SVGID_24_)" d="M126.25,112c0,0,11.82-10.137,23.083-14.333c17-6.333,24.917-9.417,24.917-9.417
			s-12.859-7.887-25.917-2.583C137.667,90,127.161,96.624,126.25,112z"/>
	</g>
	<g>
		
			<radialGradient id="SVGID_25_" cx="-318.728" cy="22.4185" r="33.5408" gradientTransform="matrix(-0.9838 -0.1793 -0.1793 0.9838 -128.6045 -12.3477)" gradientUnits="userSpaceOnUse">
			<stop  offset="0" style="stop-color:#8B562C"/>
			<stop  offset="0.3763" style="stop-color:#603813"/>
			<stop  offset="0.8495" style="stop-color:#42210B"/>
		</radialGradient>
		<path fill="url(#SVGID_25_)" d="M177.774,61.242c4.31-1.39,10.453,1.45,14.515,4.882c7.556,6.386,12.299,15.868,11.438,15.449
			c-2.552-1.241-5.598-1.52-5.598-1.52s11.001,7.295,10.271,26.617c-0.922-3.167-2.462-4.323-5.077-7.799
			c1.436,10.634-0.637,22.004-2.519,24.786c-0.373-4.517-2.575-14.761-2.921-18.946c-1.196,2.447-2.628,6.187-4.542,8.92
			c0.786-4.772,0.011-10.705-1.423-12.223c-0.635,2.4-1.758,8.395-3.42,11.34c-0.492-4.839-1.5-14.5-7.75-20.5
			c-1.054-1.011-5.713-4.206-7.115-4.608C170.188,86.653,159.59,67.106,177.774,61.242z"/>
		<g>
			<path fill="#1C0E05" d="M177.774,61.242c1.646-0.539,3.432-0.438,5.105-0.076c1.685,0.37,3.301,1.014,4.831,1.803
				c1.527,0.799,2.988,1.73,4.348,2.799c1.345,1.085,2.59,2.285,3.773,3.54c2.358,2.52,4.454,5.28,6.263,8.222
				c0.449,0.737,0.88,1.487,1.273,2.26c0.194,0.389,0.384,0.778,0.539,1.197c0.038,0.106,0.074,0.212,0.102,0.334
				c0.011,0.065,0.029,0.118,0.019,0.23c0.004,0.031-0.041,0.197-0.199,0.232c-0.154,0.019-0.176-0.033-0.202-0.032l-0.593-0.253
				c-0.789-0.336-1.589-0.566-2.419-0.773c-0.825-0.198-1.672-0.344-2.506-0.434l0.154-0.438c1.047,0.734,1.945,1.592,2.797,2.509
				c0.848,0.917,1.623,1.9,2.324,2.932c1.412,2.061,2.525,4.318,3.384,6.663c0.856,2.348,1.422,4.795,1.748,7.268
				c0.094,0.617,0.148,1.238,0.209,1.859c0.069,0.62,0.082,1.244,0.127,1.866c0.056,1.246,0.054,2.492,0.021,3.737
				c-0.006,0.26-0.223,0.466-0.482,0.459c-0.201-0.005-0.369-0.136-0.433-0.314l-0.011-0.03l-0.371-1.064
				c-0.162-0.336-0.304-0.682-0.48-1.01c-0.199-0.318-0.357-0.653-0.587-0.957c-0.217-0.31-0.431-0.619-0.67-0.923
				c-0.933-1.218-1.949-2.431-2.889-3.695l0.838-0.344c0.551,4.208,0.588,8.462,0.245,12.678c-0.178,2.108-0.451,4.209-0.865,6.29
				c-0.209,1.04-0.447,2.076-0.756,3.099c-0.324,1.021-0.65,2.039-1.274,3.007c-0.119,0.184-0.365,0.237-0.55,0.118
				c-0.103-0.066-0.165-0.172-0.179-0.285l-0.003-0.025c-0.094-0.786-0.157-1.571-0.274-2.358l-0.352-2.362l-0.791-4.723
				l-0.799-4.73c-0.137-0.788-0.242-1.584-0.362-2.377c-0.128-0.79-0.189-1.601-0.287-2.4l0.654,0.124
				c-0.722,1.489-1.377,3.032-2.103,4.545c-0.361,0.758-0.745,1.508-1.146,2.25l-0.636,1.098l-0.696,1.066
				c-0.1,0.153-0.305,0.196-0.457,0.096c-0.113-0.074-0.166-0.205-0.146-0.33l0.002-0.011c0.336-2.03,0.403-4.116,0.256-6.178
				c-0.076-1.031-0.207-2.059-0.428-3.063c-0.112-0.501-0.247-0.996-0.421-1.47c-0.175-0.469-0.393-0.936-0.696-1.274l0.453-0.116
				c-0.482,1.904-0.895,3.852-1.415,5.767c-0.529,1.913-1.079,3.838-2.047,5.627c-0.065,0.121-0.215,0.165-0.336,0.1
				c-0.074-0.041-0.12-0.118-0.129-0.197c-0.254-2.658-0.591-5.303-1.197-7.894c-0.599-2.588-1.464-5.122-2.706-7.465
				c-0.629-1.166-1.348-2.284-2.177-3.315c-0.84-1.031-1.747-1.979-2.837-2.746c-1.067-0.793-2.17-1.547-3.297-2.255
				c-0.563-0.353-1.136-0.693-1.723-0.992c-0.304-0.158-0.573-0.26-0.908-0.377c-0.349-0.16-0.611-0.37-0.871-0.599
				c-1.006-0.934-1.753-2.07-2.418-3.236c-0.656-1.174-1.201-2.407-1.635-3.676c-0.87-2.531-1.326-5.244-1.021-7.918
				c0.15-1.333,0.508-2.646,1.085-3.858c0.569-1.215,1.366-2.319,2.317-3.262C172.773,63.282,175.239,62.057,177.774,61.242z
				 M177.774,61.242c-2.53,0.832-4.983,2.072-6.871,3.977c-0.941,0.945-1.726,2.047-2.283,3.258
				c-0.564,1.207-0.91,2.512-1.051,3.835c-0.283,2.655,0.179,5.349,1.071,7.852c0.452,1.252,1.014,2.465,1.682,3.614
				c0.674,1.139,1.44,2.252,2.414,3.125c0.241,0.21,0.519,0.409,0.78,0.525c0.298,0.098,0.654,0.231,0.945,0.383
				c0.607,0.303,1.188,0.642,1.759,0.994c1.143,0.706,2.256,1.453,3.34,2.246c1.111,0.765,2.076,1.758,2.925,2.796
				c0.852,1.049,1.59,2.186,2.235,3.369c2.564,4.781,3.51,10.203,4.027,15.509l-0.465-0.097c0.917-1.704,1.466-3.62,1.98-5.516
				c0.513-1.906,0.913-3.835,1.397-5.771c0.034-0.142,0.178-0.229,0.32-0.195c0.053,0.013,0.099,0.042,0.133,0.08
				c0.4,0.44,0.627,0.945,0.823,1.448c0.191,0.506,0.338,1.021,0.459,1.539c0.239,1.037,0.383,2.087,0.473,3.141
				c0.172,2.106,0.127,4.232-0.198,6.333l-0.601-0.245l0.671-1.033l0.617-1.073c0.392-0.729,0.768-1.467,1.122-2.218
				c0.716-1.501,1.363-3.037,2.094-4.557c0.083-0.171,0.288-0.244,0.46-0.161c0.108,0.052,0.177,0.153,0.192,0.264l0.002,0.021
				c0.102,0.786,0.165,1.57,0.297,2.357c0.124,0.787,0.232,1.574,0.373,2.36l0.825,4.718l0.82,4.728l0.368,2.377
				c0.123,0.792,0.193,1.601,0.293,2.401l-0.731-0.191c0.513-0.808,0.843-1.815,1.136-2.795c0.286-0.992,0.521-2.005,0.721-3.026
				c0.396-2.043,0.657-4.116,0.824-6.196c0.319-4.159,0.264-8.356-0.294-12.481c-0.035-0.256,0.145-0.493,0.401-0.527
				c0.172-0.023,0.338,0.054,0.437,0.183c0.941,1.233,1.949,2.405,2.933,3.655c0.253,0.304,0.472,0.646,0.701,0.978
				c0.237,0.325,0.415,0.7,0.624,1.048c0.189,0.361,0.342,0.743,0.513,1.113l0.386,1.154l-0.925,0.114
				c0.041-1.221,0.053-2.443,0.008-3.664c-0.038-0.609-0.046-1.221-0.109-1.828c-0.054-0.608-0.102-1.216-0.188-1.82
				c-0.297-2.423-0.845-4.809-1.619-7.121c-0.788-2.305-1.829-4.531-3.165-6.572c-0.664-1.023-1.401-1.999-2.21-2.911
				c-0.804-0.908-1.688-1.779-2.648-2.483l-0.014-0.011c-0.106-0.078-0.13-0.227-0.052-0.333c0.053-0.071,0.138-0.105,0.221-0.095
				c0.874,0.104,1.723,0.263,2.568,0.476c0.834,0.216,1.688,0.478,2.479,0.826l0.59,0.26c0.023,0.018,0.051,0.001-0.048,0.008
				c-0.106,0.024-0.124,0.13-0.117,0.11c0.002,0.005-0.003-0.05-0.013-0.089c-0.019-0.088-0.051-0.187-0.085-0.283
				c-0.14-0.389-0.323-0.776-0.511-1.157c-0.381-0.763-0.803-1.508-1.243-2.242c-1.772-2.93-3.837-5.692-6.161-8.211
				c-2.339-2.495-4.911-4.83-7.961-6.429c-1.513-0.805-3.112-1.466-4.784-1.854C181.203,60.849,179.427,60.725,177.774,61.242z"/>
		</g>
	</g>
	<g>
		<radialGradient id="SVGID_26_" cx="157.8887" cy="60.4795" r="40.4244" gradientUnits="userSpaceOnUse">
			<stop  offset="0" style="stop-color:#8B562C"/>
			<stop  offset="0.3763" style="stop-color:#603813"/>
			<stop  offset="0.8495" style="stop-color:#42210B"/>
		</radialGradient>
		<path fill="url(#SVGID_26_)" d="M177.535,61.574c0,0-12.664-17.951-50.165-0.369c-8.957,4.199-16.045,10.462-15.123,10.205
			c2.731-0.764,5.778-0.492,5.778-0.492s-12.131,5.204-14.877,24.344c1.476-2.951,3.197-3.812,6.394-6.762
			c-3.32,10.205-3.32,30.615-1.967,33.688c1.177-4.376,5.18-13.076,6.271-17.131c0.738,2.622,1.476,6.558,2.869,9.59
			c0.082-4.835,4.875-15.239,6.557-16.476c0.195,2.475,1.871,10.631,2.978,13.828c0-6.25,3.5-10.25,8.25-15.5
			c2.443-2.7,10.434-9.563,10.25-9.25c-4.047,6.889-4.5,9.147-4.5,10.5c1.721-2.459,13.912-10.871,15-10.75
			c14.438,1.604,18.351,0.762,18.351,0.762L177.535,61.574z"/>
		<path fill="#1C0E05" d="M177.535,61.574c-1.012-1.272-2.264-2.334-3.596-3.254c-1.336-0.919-2.771-1.691-4.263-2.319
			c-1.494-0.627-3.041-1.121-4.617-1.493c-1.582-0.341-3.181-0.619-4.796-0.735c-0.805-0.091-1.616-0.085-2.424-0.132
			c-0.809,0-1.619-0.001-2.427,0.023c-1.617,0.071-3.23,0.211-4.834,0.433c-1.604,0.219-3.193,0.525-4.776,0.863l-2.359,0.575
			l-2.335,0.663c-0.781,0.211-1.545,0.483-2.315,0.729c-0.77,0.251-1.542,0.495-2.297,0.787l-2.278,0.841l-2.247,0.923
			c-1.507,0.595-2.961,1.313-4.444,1.964c-1.462,0.688-2.896,1.438-4.299,2.241c-2.805,1.608-5.508,3.403-8.057,5.388
			c-0.635,0.498-1.261,1.008-1.857,1.542c-0.29,0.264-0.604,0.549-0.819,0.817c-0.023,0.019-0.045,0.089-0.019,0.006
			c0,0.009,0.028-0.159-0.083-0.252c-0.164-0.112-0.148-0.066-0.208-0.077c-0.03,0.002,0.007-0.002,0.031-0.009l0.296-0.07
			l0.593-0.14c1.654-0.326,3.285-0.394,4.951-0.296c0.179,0.011,0.316,0.164,0.305,0.343c-0.007,0.122-0.081,0.224-0.184,0.273
			l-0.021,0.01c-1.059,0.507-2.091,1.2-3.045,1.941c-0.96,0.745-1.864,1.565-2.704,2.446c-1.688,1.756-3.122,3.749-4.323,5.868
			c-1.195,2.125-2.154,4.381-2.879,6.711c-0.194,0.579-0.35,1.169-0.511,1.758c-0.171,0.586-0.288,1.187-0.434,1.779
			c-0.263,1.193-0.469,2.398-0.646,3.607l-0.882-0.276l0.586-1.066c0.234-0.334,0.452-0.682,0.702-1.003
			c0.268-0.305,0.51-0.643,0.801-0.919c0.285-0.286,0.561-0.584,0.864-0.837c1.193-1.053,2.396-2.023,3.544-3.066
			c0.188-0.174,0.482-0.161,0.655,0.027c0.116,0.126,0.148,0.303,0.1,0.457c-0.858,2.655-1.372,5.437-1.78,8.221
			c-0.403,2.79-0.659,5.604-0.834,8.421c-0.167,2.818-0.25,5.644-0.216,8.466c0.018,1.411,0.062,2.821,0.159,4.223
			c0.055,0.7,0.109,1.401,0.204,2.09c0.095,0.68,0.206,1.394,0.426,1.962l-0.752,0.057c0.234-0.732,0.44-1.48,0.698-2.2
			c0.262-0.718,0.509-1.444,0.783-2.155c0.543-1.426,1.102-2.842,1.667-4.255l1.669-4.24c0.282-0.706,0.522-1.42,0.785-2.13
			c0.267-0.709,0.458-1.43,0.692-2.145l0.007-0.021c0.064-0.196,0.275-0.303,0.472-0.239c0.123,0.04,0.211,0.141,0.244,0.256
			c0.448,1.627,0.811,3.254,1.246,4.858c0.215,0.802,0.453,1.595,0.708,2.381l0.415,1.164l0.475,1.134l-0.705,0.148
			c0.054-1.564,0.421-3.042,0.833-4.496c0.427-1.45,0.933-2.871,1.496-4.267c0.562-1.397,1.179-2.771,1.859-4.116
			c0.342-0.673,0.7-1.338,1.093-1.989c0.194-0.326,0.404-0.646,0.626-0.962c0.232-0.314,0.457-0.624,0.817-0.913
			c0.144-0.114,0.353-0.091,0.467,0.052c0.04,0.05,0.063,0.107,0.07,0.166l0.003,0.03c0.071,0.576,0.124,1.149,0.228,1.729
			c0.09,0.579,0.184,1.158,0.295,1.736c0.206,1.157,0.444,2.311,0.686,3.462c0.246,1.151,0.509,2.298,0.79,3.439
			c0.139,0.571,0.298,1.135,0.447,1.703c0.151,0.567,0.339,1.116,0.506,1.675L125.918,112c0.023-0.921,0.074-1.846,0.251-2.755
			c0.144-0.915,0.429-1.798,0.734-2.668c0.349-0.854,0.726-1.698,1.198-2.486c0.452-0.8,0.971-1.556,1.505-2.296
			c1.085-1.469,2.278-2.842,3.484-4.192c0.608-0.671,1.197-1.353,1.844-2.007c0.641-0.648,1.298-1.273,1.961-1.892
			c1.327-1.235,2.676-2.441,4.039-3.633l2.057-1.773l1.045-0.872l0.268-0.215l0.14-0.108l0.077-0.056l0.048-0.032l0.051-0.027
			c0.013,0.011-0.029-0.033,0.194-0.02c0.18,0.064,0.212,0.152,0.216,0.301c-0.041,0.174-0.042,0.111-0.041,0.127l-0.005,0.009
			l-0.01,0.019l-0.021,0.037l-0.042,0.074l-0.084,0.147l-0.168,0.294c-0.44,0.787-0.917,1.563-1.327,2.36
			c-0.426,0.792-0.85,1.584-1.229,2.397c-0.202,0.402-0.39,0.809-0.557,1.223c-0.178,0.411-0.354,0.822-0.489,1.244
			c-0.309,0.834-0.521,1.693-0.533,2.551l-0.502-0.158c0.499-0.667,1.081-1.171,1.661-1.692c0.584-0.512,1.184-1.001,1.791-1.481
			c1.213-0.958,2.454-1.877,3.709-2.775c1.256-0.896,2.528-1.771,3.822-2.614c0.647-0.422,1.301-0.835,1.966-1.232
			c0.333-0.199,0.67-0.393,1.016-0.577c0.361-0.179,0.659-0.373,1.149-0.482c0.213-0.015,0.229,0.012,0.349,0.017l0.287,0.03
			l0.574,0.059l1.149,0.118l2.298,0.235c1.531,0.139,3.063,0.244,4.595,0.368c1.533,0.079,3.068,0.186,4.603,0.198
			c0.769,0.029,1.534,0.007,2.301-0.003c0.761-0.023,1.539-0.061,2.271-0.169l-0.139,0.147L177.535,61.574z M177.646,61.574
			L174,87.789v0.007c0,0.073-0.181,0.128-0.25,0.14c-0.791,0.129-1.609,0.172-2.387,0.208c-0.773,0.021-1.574,0.054-2.346,0.035
			c-1.546,0.009-3.101-0.077-4.644-0.135c-1.539-0.097-3.088-0.207-4.624-0.335l-4.539-0.438c-0.265,0.057-0.648,0.255-0.968,0.424
			c-0.334,0.178-0.665,0.37-0.993,0.565c-0.656,0.393-1.306,0.803-1.948,1.223c-1.285,0.839-2.551,1.711-3.801,2.604
			c-1.249,0.895-2.483,1.811-3.686,2.762c-0.601,0.476-1.194,0.962-1.768,1.465c-0.564,0.503-1.148,1.025-1.572,1.595l-0.006,0.009
			c-0.09,0.122-0.263,0.147-0.385,0.057c-0.073-0.054-0.111-0.139-0.111-0.224c0.01-0.953,0.245-1.875,0.56-2.733
			c0.142-0.44,0.321-0.86,0.501-1.279c0.171-0.424,0.361-0.838,0.565-1.245c0.384-0.826,0.812-1.627,1.242-2.429
			c0.417-0.811,0.887-1.578,1.328-2.368l0.168-0.294l0.083-0.147l0.042-0.074l0.021-0.037l0.011-0.019l0.005-0.009
			c0.005,0.01,0.007-0.058-0.032,0.108c0.008,0.141,0.041,0.223,0.21,0.291c0.216,0.012,0.167-0.028,0.175-0.013
			c0.004-0.001,0.019-0.011,0.013-0.007l-0.022,0.015l-0.06,0.044l-0.128,0.1l-0.26,0.21l-1.033,0.869l-2.044,1.775
			c-1.354,1.194-2.697,2.402-4.012,3.635c-0.657,0.617-1.308,1.241-1.936,1.881c-0.622,0.633-1.215,1.321-1.818,1.991
			c-1.198,1.348-2.375,2.712-3.435,4.154c-0.521,0.727-1.026,1.464-1.46,2.24c-0.457,0.765-0.815,1.578-1.149,2.397
			c-0.289,0.834-0.351,1.68-0.485,2.554C126.856,110.229,127,111.115,127,112v0.021c0,0.182-0.364,0.326-0.546,0.321
			c-0.146-0.003-0.372-0.102-0.413-0.234c-0.172-0.571-0.419-1.14-0.572-1.713c-0.15-0.574-0.339-1.146-0.479-1.721
			c-0.285-1.15-0.564-2.304-0.813-3.46c-0.244-1.158-0.492-2.316-0.701-3.482c-0.113-0.581-0.211-1.167-0.303-1.753
			c-0.104-0.582-0.165-1.184-0.237-1.78l0.54,0.247c-0.225,0.18-0.458,0.474-0.665,0.762c-0.207,0.296-0.407,0.603-0.594,0.92
			c-0.378,0.631-0.728,1.285-1.062,1.947c-0.666,1.326-1.271,2.686-1.82,4.066c-0.552,1.38-1.087,2.783-1.501,4.205
			c-0.4,1.419-0.833,2.875-0.833,4.308v0.017c0,0.203-0.133,0.361-0.335,0.355c-0.148-0.004-0.252-0.096-0.306-0.224l-0.484-1.177
			l-0.423-1.195c-0.261-0.803-0.501-1.61-0.72-2.421c-0.442-1.62-0.808-3.256-1.249-4.85l0.724-0.004
			c-0.236,0.731-0.436,1.483-0.702,2.199c-0.263,0.717-0.505,1.445-0.786,2.152l-1.662,4.255c-0.561,1.413-1.114,2.828-1.65,4.246
			c-0.271,0.708-0.512,1.424-0.77,2.135c-0.253,0.712-0.449,1.434-0.677,2.15l-0.011,0.034c-0.066,0.207-0.287,0.322-0.494,0.256
			c-0.117-0.037-0.206-0.126-0.248-0.232c-0.293-0.756-0.386-1.458-0.494-2.177c-0.101-0.714-0.159-1.427-0.217-2.139
			c-0.104-1.424-0.153-2.848-0.177-4.27c-0.045-2.846,0.029-5.689,0.186-8.528c0.166-2.838,0.413-5.674,0.81-8.496
			c0.403-2.819,0.909-5.636,1.785-8.382l0.755,0.484c-1.15,1.076-2.367,2.088-3.502,3.121c-0.29,0.256-0.556,0.521-0.825,0.788
			c-0.28,0.257-0.497,0.559-0.75,0.835c-0.233,0.291-0.435,0.606-0.655,0.907l-0.557,0.98l-0.016,0.027
			c-0.127,0.224-0.412,0.302-0.636,0.175c-0.173-0.098-0.259-0.292-0.23-0.478c0.193-1.231,0.415-2.457,0.694-3.672
			c0.155-0.604,0.28-1.215,0.46-1.812c0.17-0.6,0.335-1.201,0.539-1.791c0.765-2.375,1.768-4.675,3.013-6.841
			c1.252-2.16,2.742-4.191,4.493-5.978c0.872-0.896,1.808-1.731,2.804-2.489c1.002-0.759,2.035-1.447,3.208-1.995l0.1,0.627
			c-1.571-0.104-3.215-0.04-4.75,0.255l-0.593,0.137l-0.297,0.068l-0.118,0.023c-0.083-0.015-0.097,0.04-0.278-0.093
			c-0.131-0.107-0.104-0.309-0.096-0.322c0.055-0.18,0.095-0.194,0.133-0.255c0.297-0.365,0.594-0.62,0.903-0.903
			c0.616-0.547,1.25-1.061,1.895-1.563c2.583-1.998,5.312-3.795,8.146-5.408c1.418-0.805,2.867-1.558,4.347-2.247
			c1.493-0.647,2.957-1.363,4.475-1.955l2.263-0.918l2.295-0.836c0.761-0.291,1.539-0.533,2.314-0.782
			c0.777-0.246,1.546-0.515,2.336-0.715l2.359-0.638l2.381-0.549c1.598-0.32,3.202-0.608,4.819-0.809
			c1.617-0.203,3.243-0.324,4.872-0.375c0.814-0.015,1.63-0.003,2.444,0.007c0.813,0.058,1.629,0.062,2.438,0.164
			c1.624,0.138,3.23,0.437,4.816,0.8c1.581,0.394,3.131,0.91,4.623,1.559c1.491,0.65,2.978,1.443,4.306,2.381
			C175.354,59.208,176.652,60.289,177.646,61.574z"/>
	</g>
	<g>
		<path fill="#FFFFFF" d="M154.083,110.288c-0.995,4.792-5.201,5.5-10.035,4.744c-3.661-0.573-6.751-4.773-6.381-7.365
			c0.5-3.5,5.417-7.91,10.208-6.917C152.666,101.745,155.076,105.496,154.083,110.288z"/>
		<path fill="#A67C52" d="M154.083,110.288c0,0-0.045,0.188-0.13,0.539c-0.094,0.349-0.254,0.86-0.573,1.457
			c-0.324,0.589-0.825,1.272-1.604,1.814c-0.771,0.55-1.796,0.93-2.944,1.104c-1.15,0.18-2.418,0.163-3.74,0.022
			c-0.659-0.077-1.342-0.143-2.017-0.367c-0.669-0.218-1.314-0.549-1.916-0.963c-1.199-0.832-2.242-1.98-2.952-3.345
			c-0.348-0.684-0.619-1.43-0.673-2.222c-0.053-0.8,0.191-1.577,0.512-2.289c0.677-1.421,1.756-2.608,2.973-3.535
			c1.223-0.923,2.625-1.583,4.065-1.843c1.444-0.291,2.891-0.042,4.135,0.409c1.259,0.444,2.357,1.133,3.149,1.99
			c0.802,0.847,1.308,1.816,1.585,2.715c0.275,0.902,0.368,1.73,0.352,2.405c0,0.675-0.063,1.206-0.128,1.561
			C154.115,110.098,154.083,110.288,154.083,110.288z M154.083,110.288c0,0,0.03-0.19,0.088-0.548
			c0.063-0.355,0.119-0.886,0.112-1.56c0.01-0.673-0.092-1.498-0.374-2.391c-0.285-0.89-0.797-1.845-1.598-2.675
			c-0.79-0.839-1.885-1.509-3.129-1.934c-1.245-0.436-2.654-0.662-4.069-0.363c-1.409,0.271-2.779,0.932-3.97,1.851
			c-1.187,0.919-2.224,2.102-2.873,3.476c-0.317,0.681-0.556,1.428-0.514,2.171c0.043,0.748,0.295,1.476,0.627,2.146
			c0.678,1.34,1.692,2.483,2.861,3.312c0.586,0.413,1.216,0.745,1.87,0.965c0.649,0.225,1.333,0.299,1.989,0.381
			c1.313,0.151,2.574,0.181,3.717,0.013c1.141-0.163,2.161-0.53,2.93-1.068c0.778-0.53,1.282-1.204,1.611-1.788
			c0.324-0.592,0.489-1.102,0.586-1.449C154.036,110.475,154.083,110.288,154.083,110.288z"/>
	</g>
	<ellipse fill="#534741" stroke="#534741" stroke-miterlimit="10" cx="147.723" cy="112.25" rx="2.423" ry="2.814"/>
	<g>
		<path fill="#FFFFFF" d="M160.967,109.288c0.995,4.792,5.202,5.5,10.036,4.744c3.661-0.573,6.524-3.493,5.331-7.198
			s-4.001-6.667-8.334-6.333C163.122,100.875,159.975,104.496,160.967,109.288z"/>
		<path fill="#A67C52" d="M160.967,109.288c0,0,0.044,0.178,0.127,0.513c0.093,0.331,0.248,0.816,0.547,1.386
			c0.3,0.565,0.77,1.212,1.486,1.75c0.712,0.541,1.664,0.939,2.745,1.136c1.082,0.202,2.285,0.214,3.539,0.101
			c1.248-0.129,2.599-0.282,3.821-0.914c1.225-0.586,2.34-1.588,2.896-2.902c0.274-0.652,0.415-1.373,0.363-2.09
			c-0.047-0.722-0.252-1.407-0.521-2.098c-0.543-1.34-1.293-2.628-2.336-3.613c-1.026-0.991-2.331-1.669-3.679-1.888
			c-1.341-0.244-2.702-0.097-3.904,0.242c-1.209,0.344-2.273,0.933-3.086,1.671c-0.817,0.735-1.371,1.609-1.69,2.44
			c-0.313,0.835-0.458,1.613-0.466,2.256c-0.022,0.641,0.018,1.149,0.078,1.487C160.939,109.106,160.967,109.288,160.967,109.288z
			 M160.967,109.288c0,0-0.029-0.182-0.084-0.522c-0.064-0.338-0.109-0.846-0.094-1.489c0.002-0.645,0.14-1.427,0.445-2.271
			c0.313-0.841,0.863-1.729,1.682-2.479c0.813-0.754,1.885-1.362,3.104-1.722c1.221-0.354,2.578-0.518,3.962-0.288
			c1.379,0.207,2.729,0.886,3.795,1.89c1.074,1.004,1.884,2.292,2.419,3.683c0.256,0.682,0.472,1.422,0.509,2.167
			c0.045,0.749-0.109,1.5-0.402,2.175c-0.595,1.361-1.754,2.373-3.008,2.957c-1.256,0.63-2.624,0.769-3.875,0.887
			c-1.262,0.102-2.472,0.078-3.561-0.136c-1.087-0.208-2.045-0.619-2.757-1.171c-0.718-0.549-1.184-1.204-1.479-1.773
			c-0.294-0.574-0.444-1.061-0.534-1.394C161.01,109.467,160.967,109.288,160.967,109.288z"/>
	</g>
	<ellipse fill="#534741" stroke="#534741" stroke-miterlimit="10" cx="167.327" cy="111.25" rx="2.423" ry="2.814"/>
	<g id="hair">
		<g>
			<path fill="#1C0E05" d="M142.78,60.55c0,0-0.438,0.066-1.196,0.219c-0.761,0.141-1.836,0.397-3.125,0.694
				c-1.287,0.312-2.78,0.703-4.359,1.188c-0.796,0.222-1.602,0.505-2.425,0.775c-0.823,0.273-1.638,0.606-2.464,0.909
				c-0.811,0.339-1.633,0.657-2.421,1.014c-0.776,0.382-1.565,0.71-2.283,1.115c-0.711,0.414-1.443,0.743-2.074,1.159
				c-0.634,0.409-1.26,0.761-1.793,1.148c-0.533,0.39-1.022,0.748-1.455,1.064c-0.436,0.314-0.765,0.651-1.063,0.897
				c-0.583,0.51-0.915,0.801-0.915,0.801s0.312-0.314,0.857-0.863c0.281-0.266,0.589-0.629,1.005-0.975
				c0.418-0.343,0.89-0.73,1.405-1.153c0.524-0.412,1.139-0.792,1.766-1.23c0.623-0.446,1.343-0.811,2.063-1.231
				c0.721-0.419,1.514-0.761,2.293-1.157c0.792-0.371,1.617-0.704,2.433-1.055c0.838-0.295,1.665-0.621,2.498-0.885
				c0.833-0.263,1.648-0.537,2.453-0.75c1.597-0.47,3.121-0.773,4.421-1.046C141.013,60.691,142.78,60.55,142.78,60.55z"/>
		</g>
		<g>
			<path fill="#1C0E05" d="M118.889,90.01c0,0-0.641,0.935-1.412,2.435c-0.405,0.739-0.794,1.643-1.212,2.604
				c-0.184,0.492-0.411,0.985-0.574,1.512c-0.18,0.521-0.358,1.051-0.495,1.593c-0.33,1.068-0.564,2.165-0.722,3.2
				c-0.097,0.516-0.139,1.021-0.195,1.499c-0.066,0.478-0.095,0.932-0.1,1.353c-0.007,0.42-0.043,0.807-0.043,1.149
				c0.009,0.343,0.018,0.642,0.024,0.888c0.007,0.495,0.012,0.778,0.012,0.778s-0.04-0.28-0.108-0.77
				c-0.067-0.491-0.17-1.195-0.166-2.049c-0.021-0.427-0.021-0.889,0.017-1.376c0.027-0.488,0.034-1.007,0.13-1.533
				c0.139-1.058,0.354-2.182,0.671-3.276c0.151-0.55,0.343-1.086,0.537-1.613c0.177-0.532,0.418-1.03,0.615-1.525
				c0.443-0.971,0.92-1.846,1.366-2.571c0.435-0.732,0.865-1.299,1.161-1.696C118.695,90.217,118.889,90.01,118.889,90.01z"/>
		</g>
		<g>
			<path fill="#1C0E05" d="M121.097,82.625c0,0-1.097,1.276-2.527,3.341c-0.367,0.509-0.745,1.074-1.139,1.676
				c-0.403,0.595-0.78,1.254-1.209,1.909c-0.391,0.679-0.825,1.363-1.211,2.089c-0.389,0.725-0.798,1.453-1.15,2.21
				c-0.385,0.741-0.747,1.494-1.071,2.25c-0.35,0.744-0.646,1.497-0.923,2.229c-0.294,0.726-0.544,1.44-0.77,2.122
				c-0.238,0.678-0.452,1.323-0.603,1.932c-0.169,0.605-0.325,1.159-0.462,1.65c-0.109,0.499-0.205,0.934-0.283,1.292
				c-0.157,0.718-0.247,1.128-0.247,1.128s0.06-0.416,0.164-1.143c0.052-0.364,0.116-0.807,0.189-1.314
				c0.096-0.503,0.223-1.068,0.366-1.684c0.127-0.62,0.315-1.277,0.527-1.97c0.199-0.697,0.416-1.43,0.711-2.164
				c0.27-0.743,0.559-1.508,0.902-2.264c0.317-0.768,0.67-1.533,1.051-2.286c0.366-0.76,0.789-1.49,1.191-2.215
				c0.4-0.727,0.846-1.412,1.25-2.09c0.859-1.326,1.714-2.527,2.491-3.522c0.764-1.005,1.472-1.786,1.96-2.334
				C120.798,82.92,121.097,82.625,121.097,82.625z"/>
		</g>
		<g>
			<path fill="#1C0E05" d="M119.129,79.674c0,0-1.031,1.149-2.343,3.041c-0.671,0.934-1.38,2.074-2.109,3.31
				c-0.723,1.239-1.445,2.591-2.063,3.991c-0.345,0.684-0.616,1.4-0.913,2.092c-0.306,0.689-0.517,1.402-0.77,2.073
				c-0.255,0.671-0.422,1.346-0.629,1.971c-0.21,0.625-0.351,1.231-0.486,1.791c-0.126,0.561-0.282,1.067-0.37,1.526
				c-0.088,0.46-0.165,0.86-0.228,1.19c-0.133,0.661-0.209,1.039-0.209,1.039s0.041-0.383,0.113-1.053
				c0.039-0.335,0.086-0.742,0.141-1.209c0.053-0.468,0.17-0.986,0.278-1.555c0.11-0.569,0.226-1.187,0.409-1.826
				c0.181-0.639,0.313-1.332,0.569-2.011c0.246-0.682,0.448-1.406,0.747-2.107c0.29-0.704,0.552-1.434,0.893-2.129
				c0.646-1.407,1.396-2.764,2.145-4.004c0.753-1.239,1.546-2.338,2.255-3.254C117.981,80.714,119.129,79.674,119.129,79.674z"/>
		</g>
		<g>
			<path fill="#1C0E05" d="M143.498,70.317c0,0-0.489,0.068-1.331,0.25c-0.843,0.178-2.036,0.477-3.449,0.896
				c-0.71,0.196-1.466,0.453-2.265,0.724c-0.798,0.271-1.623,0.607-2.483,0.928c-0.841,0.371-1.736,0.696-2.595,1.137
				c-0.873,0.411-1.753,0.842-2.602,1.333c-0.874,0.445-1.708,0.957-2.525,1.47c-0.836,0.483-1.593,1.059-2.345,1.586
				c-0.764,0.513-1.438,1.092-2.1,1.614c-0.328,0.265-0.647,0.522-0.956,0.771c-0.29,0.271-0.57,0.532-0.839,0.783
				c-0.53,0.51-1.049,0.946-1.468,1.374c-0.41,0.437-0.768,0.818-1.062,1.132c-0.59,0.629-0.927,0.988-0.927,0.988
				s0.314-0.379,0.864-1.044c0.276-0.333,0.61-0.737,0.994-1.2c0.393-0.457,0.885-0.926,1.406-1.453
				c0.262-0.263,0.536-0.536,0.818-0.819c0.302-0.262,0.614-0.533,0.936-0.811c0.648-0.55,1.307-1.165,2.077-1.685
				c0.754-0.541,1.513-1.131,2.352-1.63c0.82-0.527,1.658-1.057,2.537-1.515c0.864-0.486,1.758-0.912,2.645-1.317
				c0.873-0.435,1.78-0.753,2.633-1.118c1.738-0.651,3.394-1.164,4.833-1.519c1.434-0.379,2.656-0.571,3.508-0.708
				C143.006,70.355,143.498,70.317,143.498,70.317z"/>
		</g>
		<g>
			<path fill="#1C0E05" d="M147.433,73.268c0,0-0.489,0.068-1.331,0.25c-0.843,0.178-2.036,0.477-3.449,0.896
				c-0.71,0.196-1.466,0.453-2.265,0.724c-0.798,0.271-1.623,0.607-2.484,0.928c-0.841,0.371-1.735,0.696-2.595,1.137
				c-0.873,0.411-1.753,0.842-2.602,1.333c-0.874,0.445-1.709,0.957-2.526,1.47c-0.836,0.483-1.593,1.059-2.345,1.586
				c-0.764,0.513-1.438,1.092-2.1,1.614c-0.328,0.265-0.647,0.522-0.956,0.771c-0.29,0.271-0.57,0.532-0.839,0.783
				c-0.53,0.51-1.049,0.946-1.469,1.374c-0.41,0.437-0.768,0.818-1.062,1.132c-0.59,0.629-0.927,0.988-0.927,0.988
				s0.314-0.379,0.864-1.044c0.276-0.333,0.61-0.737,0.994-1.201c0.393-0.456,0.885-0.925,1.406-1.453
				c0.262-0.262,0.536-0.536,0.818-0.818c0.302-0.262,0.615-0.533,0.936-0.811c0.648-0.55,1.307-1.165,2.078-1.685
				c0.754-0.541,1.513-1.132,2.352-1.63c0.82-0.528,1.658-1.057,2.537-1.515c0.864-0.487,1.758-0.912,2.645-1.317
				c0.873-0.435,1.78-0.754,2.633-1.118c1.738-0.651,3.393-1.164,4.833-1.519c1.434-0.379,2.656-0.571,3.508-0.708
				C146.941,73.306,147.433,73.268,147.433,73.268z"/>
		</g>
		<g>
			<path fill="#1C0E05" d="M134.411,66.315c0,0-0.472,0.142-1.277,0.45c-0.806,0.305-1.939,0.782-3.272,1.411
				c-0.672,0.302-1.379,0.671-2.128,1.06c-0.748,0.39-1.511,0.848-2.313,1.296c-0.774,0.495-1.609,0.953-2.391,1.519
				c-0.8,0.54-1.604,1.1-2.368,1.714c-0.796,0.573-1.543,1.206-2.272,1.837c-0.753,0.605-1.413,1.29-2.076,1.925
				c-0.677,0.624-1.254,1.299-1.829,1.916c-0.284,0.312-0.56,0.615-0.827,0.908c-0.246,0.312-0.482,0.613-0.71,0.902
				c-0.446,0.585-0.893,1.095-1.242,1.582c-0.338,0.494-0.634,0.925-0.877,1.28c-0.487,0.711-0.766,1.118-0.766,1.118
				s0.252-0.423,0.695-1.163c0.222-0.371,0.491-0.822,0.799-1.338c0.318-0.511,0.733-1.05,1.167-1.65
				c0.22-0.299,0.448-0.611,0.684-0.934c0.259-0.305,0.526-0.621,0.801-0.944c0.558-0.642,1.114-1.35,1.796-1.982
				c0.663-0.649,1.323-1.349,2.076-1.97c0.73-0.646,1.478-1.297,2.277-1.883c0.779-0.613,1.598-1.169,2.413-1.705
				c0.797-0.563,1.645-1.016,2.432-1.506c1.618-0.908,3.176-1.667,4.544-2.238c1.359-0.593,2.539-0.969,3.359-1.234
				C133.931,66.428,134.411,66.315,134.411,66.315z"/>
		</g>
		<g>
			<path fill="#00097F" d="M137.822,236.963c0,0,0.597,0.318,1.497,0.741c0.898,0.424,2.094,0.966,3.327,1.374
				c0.311,0.092,0.616,0.206,0.925,0.28c0.312,0.063,0.609,0.18,0.909,0.22c0.298,0.048,0.584,0.133,0.861,0.153
				c0.276,0.024,0.539,0.088,0.783,0.091c0.488,0.029,0.904,0.064,1.193,0.032c0.292-0.007,0.464-0.002,0.464-0.002
				s-0.156,0.06-0.44,0.146c-0.283,0.096-0.697,0.199-1.21,0.254c-0.256,0.045-0.534,0.03-0.831,0.037
				c-0.298,0.015-0.605-0.027-0.927-0.06c-0.643-0.067-1.31-0.242-1.964-0.441c-0.644-0.232-1.277-0.489-1.836-0.798
				c-0.567-0.292-1.062-0.624-1.474-0.92C138.279,237.467,137.822,236.963,137.822,236.963z"/>
		</g>
		<g>
			<path fill="#00097F" d="M155.28,236.041c0,0-0.037,0.097-0.144,0.246c-0.104,0.153-0.271,0.353-0.497,0.574
				c-0.24,0.195-0.522,0.445-0.874,0.615c-0.175,0.088-0.349,0.198-0.539,0.275c-0.193,0.066-0.391,0.134-0.587,0.202
				c-0.201,0.054-0.396,0.133-0.6,0.156c-0.199,0.038-0.4,0.054-0.592,0.081c-0.383,0.061-0.744,0.063-1.053,0.023
				c-0.618-0.056-1.016-0.145-1.016-0.145s0.398-0.145,0.977-0.284c0.145-0.034,0.301-0.07,0.466-0.098
				c0.163-0.048,0.332-0.104,0.508-0.147c0.176-0.043,0.355-0.1,0.542-0.136c0.188-0.027,0.363-0.112,0.547-0.168
				c0.371-0.099,0.732-0.221,1.064-0.356c0.347-0.108,0.637-0.27,0.915-0.374c0.252-0.137,0.498-0.226,0.637-0.323
				C155.189,236.099,155.28,236.041,155.28,236.041z"/>
		</g>
		<g>
			<path fill="#00097F" d="M154.051,237.271c0,0,0.104,0.065,0.286,0.179c0.169,0.123,0.44,0.258,0.744,0.439
				c0.306,0.176,0.675,0.358,1.057,0.562c0.408,0.154,0.798,0.412,1.245,0.533c0.215,0.083,0.43,0.165,0.642,0.246
				c0.21,0.09,0.432,0.123,0.639,0.186c0.42,0.103,0.806,0.265,1.156,0.297c0.692,0.127,1.179,0.264,1.179,0.264
				s-0.472,0.098-1.216,0.166c-0.186,0.016-0.39,0.042-0.599,0.002c-0.211-0.023-0.435-0.046-0.665-0.084
				c-0.227-0.048-0.479-0.043-0.705-0.138c-0.232-0.079-0.468-0.159-0.704-0.24c-0.477-0.15-0.895-0.435-1.3-0.659
				c-0.2-0.117-0.368-0.272-0.538-0.4c-0.167-0.131-0.324-0.254-0.45-0.393C154.289,237.708,154.051,237.271,154.051,237.271z"/>
		</g>
		<g>
			<path fill="#00097F" d="M163.58,238.562c0,0-0.033,0.004-0.094,0.01c-0.035-0.023-0.062,0.063-0.139-0.069
				c0.064-0.096,0.102-0.081,0.158-0.116c0.216-0.09,0.52-0.213,0.891-0.324c0.74-0.231,1.73-0.474,2.714-0.71
				c0.984-0.229,1.961-0.458,2.668-0.694c0.352-0.122,0.646-0.232,0.83-0.353c0.19-0.11,0.287-0.202,0.287-0.202
				s-0.04,0.13-0.191,0.313c-0.151,0.178-0.397,0.42-0.739,0.63c-0.678,0.435-1.674,0.797-2.682,1.036
				c-1.012,0.237-2.038,0.357-2.81,0.402c-0.384,0.028-0.711,0.019-0.929,0.043c-0.133,0.041-0.14-0.048-0.054,0.005
				C163.549,238.551,163.58,238.562,163.58,238.562z"/>
		</g>
		<g>
			<path fill="#1C0E05" d="M175.368,75.78c0,0-0.885-0.541-2.276-1.208c-0.344-0.173-0.724-0.347-1.128-0.523
				c-0.399-0.187-0.84-0.34-1.277-0.538c-0.895-0.349-1.857-0.702-2.846-0.966c-0.489-0.152-0.981-0.289-1.474-0.396
				c-0.487-0.127-0.975-0.216-1.448-0.293c-0.471-0.09-0.93-0.154-1.367-0.206c-0.436-0.062-0.85-0.11-1.234-0.12
				c-0.385-0.024-0.737-0.046-1.05-0.065c-0.314,0.001-0.588,0.002-0.813,0.003c-0.453-0.004-0.712-0.006-0.712-0.006
				s0.257-0.033,0.706-0.091c0.45-0.059,1.096-0.136,1.877-0.123c0.392-0.016,0.813,0.005,1.26,0.038
				c0.447,0.022,0.92,0.051,1.401,0.14c0.484,0.068,0.982,0.147,1.482,0.267c0.504,0.098,1.01,0.226,1.511,0.372
				c1.001,0.292,1.973,0.672,2.873,1.046c0.892,0.397,1.698,0.82,2.371,1.213C174.574,75.106,175.368,75.78,175.368,75.78z"/>
		</g>
		<g>
			<path fill="#1C0E05" d="M175.368,71.846c0,0-0.885-0.541-2.276-1.208c-0.344-0.173-0.724-0.347-1.128-0.523
				c-0.399-0.187-0.84-0.34-1.277-0.538c-0.895-0.349-1.857-0.702-2.846-0.966c-0.489-0.152-0.981-0.289-1.474-0.396
				c-0.487-0.128-0.975-0.216-1.448-0.293c-0.471-0.09-0.93-0.154-1.367-0.205c-0.436-0.062-0.85-0.11-1.234-0.12
				c-0.385-0.024-0.737-0.046-1.05-0.065c-0.314,0.001-0.588,0.003-0.813,0.004c-0.453-0.004-0.712-0.006-0.712-0.006
				s0.257-0.033,0.706-0.091c0.45-0.059,1.096-0.136,1.877-0.123c0.392-0.016,0.813,0.004,1.26,0.038
				c0.447,0.022,0.92,0.051,1.401,0.14c0.484,0.068,0.982,0.147,1.482,0.266c0.504,0.099,1.01,0.226,1.511,0.372
				c1.001,0.292,1.973,0.672,2.873,1.046c0.892,0.397,1.698,0.82,2.371,1.213C174.574,71.172,175.368,71.846,175.368,71.846z"/>
		</g>
		<g>
			<path fill="#1C0E05" d="M176.352,69.879c0,0-0.885-0.541-2.276-1.208c-0.344-0.173-0.724-0.347-1.128-0.523
				c-0.399-0.187-0.84-0.34-1.277-0.538c-0.895-0.349-1.857-0.702-2.846-0.966c-0.489-0.152-0.981-0.289-1.474-0.396
				c-0.487-0.128-0.975-0.216-1.448-0.293c-0.471-0.09-0.93-0.154-1.367-0.205c-0.436-0.062-0.85-0.11-1.234-0.12
				c-0.385-0.024-0.737-0.046-1.05-0.065c-0.314,0.001-0.588,0.003-0.813,0.004c-0.453-0.004-0.712-0.006-0.712-0.006
				s0.257-0.033,0.706-0.091c0.45-0.059,1.096-0.136,1.877-0.123c0.392-0.016,0.813,0.004,1.26,0.038
				c0.447,0.022,0.92,0.051,1.401,0.14c0.484,0.068,0.982,0.147,1.482,0.266c0.504,0.099,1.01,0.226,1.511,0.372
				c1.001,0.292,1.973,0.672,2.873,1.046c0.892,0.397,1.698,0.821,2.371,1.213C175.558,69.205,176.352,69.879,176.352,69.879z"/>
		</g>
		<g>
			<path fill="#1C0E05" d="M177.335,67.912c0,0-0.884-0.541-2.275-1.208c-0.345-0.173-0.725-0.347-1.129-0.523
				c-0.399-0.187-0.84-0.34-1.277-0.538c-0.895-0.349-1.857-0.702-2.846-0.966c-0.488-0.152-0.98-0.29-1.473-0.396
				c-0.487-0.128-0.975-0.216-1.448-0.293c-0.472-0.09-0.93-0.154-1.367-0.205c-0.437-0.062-0.85-0.11-1.234-0.12
				c-0.385-0.024-0.737-0.046-1.05-0.065c-0.314,0.001-0.588,0.003-0.813,0.004c-0.453-0.004-0.712-0.006-0.712-0.006
				s0.257-0.033,0.705-0.091c0.45-0.059,1.097-0.136,1.878-0.123c0.391-0.016,0.813,0.004,1.26,0.038
				c0.447,0.022,0.92,0.051,1.4,0.14c0.484,0.068,0.983,0.147,1.483,0.267c0.504,0.098,1.009,0.225,1.51,0.372
				c1.002,0.292,1.973,0.672,2.873,1.046c0.892,0.396,1.698,0.82,2.371,1.213C176.541,67.238,177.335,67.912,177.335,67.912z"/>
		</g>
		<g>
			<path fill="#1C0E05" d="M177.291,66.382c0,0-1.212-0.661-3.108-1.466c-0.938-0.424-2.068-0.832-3.271-1.278
				c-0.611-0.199-1.232-0.435-1.881-0.618c-0.646-0.191-1.301-0.392-1.968-0.545c-0.659-0.186-1.324-0.344-1.984-0.477
				c-0.656-0.156-1.311-0.259-1.944-0.359c-0.633-0.112-1.247-0.187-1.832-0.254c-0.584-0.079-1.138-0.137-1.651-0.154
				c-0.515-0.033-0.985-0.062-1.402-0.088c-0.419-0.002-0.784-0.004-1.084-0.006c-0.604-0.01-0.948-0.015-0.948-0.015
				s0.344-0.03,0.944-0.082c0.301-0.023,0.667-0.051,1.087-0.083c0.421-0.016,0.896-0.012,1.415-0.007
				c0.52-0.008,1.08,0.022,1.673,0.072c0.594,0.039,1.222,0.077,1.862,0.188c0.643,0.09,1.308,0.184,1.974,0.331
				c0.671,0.124,1.348,0.271,2.018,0.451c0.673,0.166,1.331,0.38,1.981,0.584c0.653,0.196,1.276,0.445,1.89,0.655
				c1.21,0.469,2.314,0.967,3.241,1.43c0.933,0.453,1.674,0.899,2.193,1.206C177.011,66.181,177.291,66.382,177.291,66.382z"/>
		</g>
		<g>
			<path fill="#1C0E05" d="M177.099,65.635c0,0-0.833-0.617-2.161-1.403c-0.328-0.203-0.69-0.409-1.078-0.62
				c-0.382-0.221-0.808-0.412-1.226-0.647c-0.86-0.426-1.789-0.862-2.75-1.212c-0.474-0.194-0.952-0.374-1.433-0.523
				c-0.475-0.17-0.952-0.301-1.417-0.419c-0.462-0.131-0.913-0.235-1.344-0.325c-0.43-0.1-0.838-0.184-1.22-0.228
				c-0.382-0.058-0.73-0.11-1.041-0.157c-0.313-0.026-0.585-0.049-0.809-0.068c-0.451-0.044-0.709-0.069-0.709-0.069
				s0.259-0.01,0.711-0.028c0.453-0.02,1.104-0.039,1.881,0.042c0.391,0.018,0.81,0.076,1.252,0.148
				c0.443,0.062,0.912,0.131,1.383,0.263c0.477,0.11,0.967,0.233,1.454,0.396c0.493,0.142,0.986,0.313,1.472,0.502
				c0.973,0.378,1.906,0.843,2.771,1.294c0.854,0.474,1.62,0.966,2.256,1.416C176.366,64.894,177.099,65.635,177.099,65.635z"/>
		</g>
		<g>
			<path fill="#1C0E05" d="M174.584,76.82c0,0-1.184-0.592-3.034-1.275c-0.46-0.179-0.964-0.354-1.5-0.53
				c-0.531-0.189-1.11-0.333-1.693-0.527c-1.184-0.331-2.454-0.658-3.747-0.869c-0.643-0.129-1.287-0.238-1.929-0.308
				c-0.638-0.098-1.27-0.146-1.882-0.181c-0.612-0.053-1.205-0.07-1.769-0.074c-0.563-0.018-1.097-0.021-1.587,0.02
				c-0.492,0.025-0.943,0.047-1.344,0.067c-0.397,0.047-0.744,0.088-1.03,0.123c-0.575,0.062-0.903,0.098-0.903,0.098
				s0.322-0.07,0.887-0.193c0.284-0.059,0.629-0.13,1.024-0.212c0.398-0.061,0.852-0.11,1.347-0.163
				c0.494-0.068,1.032-0.092,1.604-0.104c0.57-0.025,1.173-0.046,1.795,0.005c0.623,0.025,1.266,0.063,1.914,0.15
				c0.652,0.061,1.31,0.158,1.963,0.28c1.309,0.237,2.591,0.59,3.783,0.945c1.184,0.386,2.266,0.806,3.173,1.212
				C173.477,76.086,174.584,76.82,174.584,76.82z"/>
		</g>
		<g>
			<path fill="#1C0E05" d="M140.965,73.39c0,0-1.44,0.241-3.519,0.881c-1.046,0.295-2.232,0.747-3.494,1.237
				c-0.619,0.275-1.278,0.516-1.911,0.842c-0.643,0.305-1.291,0.623-1.915,0.986c-0.645,0.327-1.26,0.703-1.863,1.08
				c-0.617,0.354-1.175,0.778-1.73,1.165c-0.563,0.378-1.063,0.801-1.553,1.183c-0.498,0.374-0.938,0.762-1.33,1.138
				c-0.393,0.374-0.779,0.693-1.09,1.006c-0.305,0.32-0.571,0.599-0.79,0.829c-0.444,0.457-0.698,0.718-0.698,0.718
				s0.227-0.284,0.625-0.782c0.202-0.248,0.447-0.548,0.728-0.893c0.288-0.34,0.648-0.689,1.031-1.082
				c0.378-0.398,0.805-0.812,1.29-1.213c0.477-0.409,0.961-0.868,1.531-1.253c0.557-0.401,1.117-0.839,1.737-1.209
				c0.606-0.391,1.225-0.784,1.875-1.124c0.639-0.358,1.301-0.672,1.958-0.97c0.646-0.32,1.318-0.555,1.949-0.822
				c1.286-0.479,2.514-0.847,3.579-1.104c1.061-0.273,1.966-0.407,2.596-0.504C140.601,73.407,140.965,73.39,140.965,73.39z"/>
		</g>
		<g>
			<path fill="#1C0E05" d="M145.884,78.308c0,0-1.44,0.241-3.519,0.881c-1.046,0.296-2.232,0.747-3.494,1.237
				c-0.62,0.275-1.278,0.516-1.911,0.842c-0.643,0.304-1.29,0.623-1.915,0.986c-0.645,0.327-1.26,0.702-1.863,1.079
				c-0.617,0.355-1.175,0.778-1.73,1.165c-0.563,0.378-1.062,0.801-1.553,1.183c-0.498,0.374-0.938,0.762-1.33,1.138
				c-0.393,0.374-0.779,0.692-1.09,1.005c-0.305,0.32-0.571,0.599-0.79,0.829c-0.444,0.457-0.698,0.718-0.698,0.718
				s0.227-0.284,0.625-0.782c0.202-0.248,0.447-0.548,0.728-0.893c0.288-0.34,0.648-0.689,1.031-1.082
				c0.378-0.398,0.805-0.812,1.29-1.213c0.477-0.409,0.961-0.868,1.531-1.253c0.557-0.401,1.117-0.839,1.737-1.209
				c0.606-0.391,1.225-0.784,1.875-1.124c0.64-0.359,1.302-0.672,1.958-0.971c0.646-0.32,1.318-0.554,1.949-0.822
				c1.286-0.479,2.514-0.846,3.579-1.104c1.061-0.274,1.966-0.408,2.596-0.504C145.52,78.325,145.884,78.308,145.884,78.308z"/>
		</g>
		<g>
			<path fill="#1C0E05" d="M140.268,68.375c0,0-1.445,0.101-3.557,0.538c-0.53,0.097-1.098,0.233-1.697,0.38
				c-0.6,0.144-1.221,0.34-1.87,0.512c-0.636,0.215-1.31,0.389-1.965,0.653c-0.662,0.243-1.332,0.495-1.981,0.798
				c-0.666,0.264-1.31,0.576-1.938,0.896c-0.641,0.295-1.231,0.661-1.813,0.995c-0.589,0.323-1.121,0.695-1.638,1.031
				c-0.524,0.325-0.995,0.669-1.413,1.008c-0.42,0.335-0.828,0.618-1.164,0.899c-0.328,0.291-0.614,0.544-0.85,0.753
				c-0.477,0.414-0.75,0.651-0.75,0.651s0.248-0.262,0.682-0.721c0.22-0.228,0.488-0.505,0.794-0.822
				c0.314-0.311,0.7-0.625,1.112-0.98c0.406-0.363,0.865-0.732,1.379-1.087c0.506-0.364,1.026-0.773,1.623-1.103
				c0.585-0.349,1.179-0.729,1.825-1.039c0.633-0.333,1.281-0.663,1.954-0.939c0.664-0.296,1.348-0.542,2.023-0.778
				c0.667-0.257,1.354-0.423,2.001-0.63c1.315-0.351,2.562-0.599,3.638-0.752c1.074-0.169,1.98-0.216,2.611-0.251
				C139.906,68.357,140.268,68.375,140.268,68.375z"/>
		</g>
		<g>
			<path fill="#1C0E05" d="M174.584,78.91c0,0-0.935-0.448-2.387-0.97c-0.36-0.137-0.756-0.271-1.176-0.406
				c-0.417-0.145-0.87-0.252-1.326-0.405c-0.926-0.256-1.919-0.509-2.93-0.672c-0.501-0.102-1.005-0.188-1.505-0.244
				c-0.498-0.078-0.992-0.116-1.471-0.145c-0.479-0.042-0.94-0.059-1.381-0.065c-0.44-0.017-0.857-0.023-1.241,0.007
				c-0.385,0.015-0.738,0.029-1.051,0.042c-0.313,0.033-0.584,0.063-0.808,0.086c-0.451,0.042-0.709,0.066-0.709,0.066
				s0.252-0.059,0.692-0.162c0.442-0.104,1.077-0.247,1.855-0.313c0.388-0.056,0.81-0.079,1.257-0.091
				c0.447-0.023,0.921-0.043,1.408-0.003c0.489,0.019,0.993,0.047,1.502,0.114c0.512,0.046,1.027,0.122,1.541,0.216
				c1.025,0.188,2.031,0.468,2.965,0.749c0.928,0.304,1.772,0.644,2.481,0.966C173.726,78.32,174.584,78.91,174.584,78.91z"/>
		</g>
		<g>
			<path fill="#1C0E05" d="M189.215,76.082c0,0-0.794-0.454-2.04-0.993c-0.615-0.287-1.36-0.555-2.154-0.838
				c-0.802-0.264-1.662-0.531-2.541-0.714c-0.438-0.1-0.876-0.196-1.314-0.251c-0.437-0.074-0.866-0.133-1.287-0.159
				c-0.419-0.047-0.824-0.071-1.211-0.074c-0.387-0.015-0.753-0.025-1.09,0.007c-0.338,0.017-0.648,0.032-0.924,0.045
				c-0.273,0.036-0.512,0.067-0.709,0.093c-0.396,0.046-0.623,0.072-0.623,0.072s0.22-0.061,0.604-0.167
				c0.386-0.11,0.941-0.254,1.629-0.323c0.341-0.059,0.714-0.077,1.109-0.091c0.396-0.027,0.813-0.039,1.244-0.001
				c0.433,0.015,0.879,0.045,1.326,0.121c0.452,0.051,0.903,0.144,1.354,0.241c0.899,0.199,1.778,0.48,2.583,0.79
				c0.8,0.319,1.524,0.669,2.127,0.999C188.509,75.493,189.215,76.082,189.215,76.082z"/>
		</g>
		<g>
			<path fill="#1C0E05" d="M190.076,72.394c0,0-0.774-0.484-1.999-1.066c-0.605-0.305-1.338-0.602-2.123-0.905
				c-0.395-0.149-0.81-0.281-1.227-0.423c-0.427-0.114-0.85-0.27-1.29-0.354c-0.436-0.104-0.87-0.215-1.307-0.273
				c-0.434-0.079-0.862-0.146-1.281-0.173c-0.418-0.05-0.822-0.079-1.208-0.079c-0.386-0.014-0.751-0.027-1.087,0.009
				c-0.338,0.019-0.647,0.037-0.922,0.053c-0.272,0.04-0.51,0.075-0.706,0.104c-0.396,0.052-0.621,0.082-0.621,0.082
				s0.219-0.064,0.601-0.177c0.193-0.053,0.428-0.118,0.697-0.192c0.273-0.053,0.585-0.102,0.927-0.149
				c0.341-0.063,0.713-0.078,1.108-0.094c0.396-0.03,0.813-0.037,1.244,0.004c0.433,0.016,0.878,0.055,1.325,0.136
				c0.451,0.055,0.899,0.161,1.349,0.264c0.452,0.093,0.884,0.257,1.32,0.381c0.428,0.147,0.843,0.31,1.24,0.475
				c0.792,0.34,1.501,0.718,2.093,1.066C189.395,71.778,190.076,72.394,190.076,72.394z"/>
		</g>
		<g>
			<path fill="#1C0E05" d="M191.797,75.59c0,0-0.893-0.656-2.329-1.458c-0.713-0.41-1.574-0.833-2.509-1.25
				c-0.934-0.419-1.959-0.798-3.01-1.08c-0.525-0.138-1.045-0.304-1.575-0.384c-0.524-0.107-1.043-0.199-1.553-0.231
				c-0.507-0.059-0.997-0.104-1.466-0.096c-0.468-0.01-0.912-0.031-1.318,0.025c-0.409,0.032-0.784,0.062-1.117,0.088
				c-0.328,0.061-0.614,0.114-0.851,0.158c-0.476,0.082-0.748,0.129-0.748,0.129s0.264-0.081,0.726-0.224
				c0.233-0.068,0.516-0.151,0.841-0.247c0.331-0.063,0.709-0.125,1.122-0.185c0.412-0.082,0.864-0.09,1.344-0.109
				c0.24-0.009,0.486-0.018,0.738-0.027c0.251,0.018,0.508,0.037,0.769,0.055c0.524,0.023,1.059,0.105,1.6,0.205
				c0.547,0.073,1.083,0.229,1.626,0.362c1.072,0.312,2.111,0.721,3.054,1.167c0.945,0.443,1.775,0.954,2.475,1.404
				C191.005,74.81,191.797,75.59,191.797,75.59z"/>
		</g>
		<g>
			<path fill="#1C0E05" d="M199.666,96c0,0-0.625-0.926-1.71-2.186c-0.531-0.639-1.203-1.337-1.936-2.066
				c-0.364-0.367-0.767-0.72-1.166-1.085c-0.425-0.336-0.831-0.711-1.282-1.025c-0.441-0.327-0.872-0.672-1.336-0.952
				c-0.45-0.301-0.902-0.583-1.363-0.813c-0.451-0.251-0.891-0.485-1.328-0.667c-0.431-0.195-0.835-0.392-1.233-0.507
				c-0.391-0.137-0.75-0.263-1.067-0.375c-0.328-0.081-0.613-0.151-0.849-0.209c-0.473-0.123-0.742-0.193-0.742-0.193
				s0.276,0.035,0.76,0.097c0.243,0.035,0.538,0.076,0.876,0.125c0.331,0.079,0.705,0.175,1.11,0.288
				c0.413,0.094,0.835,0.267,1.287,0.439c0.459,0.158,0.926,0.363,1.389,0.619c0.478,0.227,0.946,0.505,1.413,0.804
				c0.481,0.277,0.929,0.619,1.386,0.947c0.456,0.331,0.863,0.722,1.289,1.074c0.4,0.381,0.802,0.749,1.165,1.129
				c0.732,0.756,1.344,1.526,1.848,2.197C199.178,94.99,199.666,96,199.666,96z"/>
		</g>
		<g>
			<path fill="#1C0E05" d="M199.174,92.312c0,0-0.593-0.885-1.644-2.069c-0.256-0.301-0.545-0.616-0.862-0.939
				c-0.305-0.334-0.669-0.644-1.01-0.998c-0.724-0.666-1.519-1.354-2.384-1.944c-0.419-0.315-0.851-0.611-1.296-0.871
				c-0.431-0.285-0.881-0.518-1.319-0.738c-0.432-0.235-0.866-0.425-1.281-0.602c-0.41-0.19-0.807-0.348-1.186-0.458
				c-0.374-0.125-0.718-0.24-1.022-0.341c-0.313-0.076-0.585-0.143-0.81-0.198c-0.45-0.117-0.707-0.183-0.707-0.183
				s0.264,0.032,0.725,0.087c0.231,0.031,0.513,0.069,0.835,0.112c0.319,0.058,0.674,0.153,1.063,0.253
				c0.393,0.087,0.807,0.221,1.236,0.387c0.435,0.153,0.896,0.313,1.339,0.552c0.454,0.215,0.921,0.445,1.368,0.727
				c0.462,0.257,0.912,0.55,1.347,0.865c0.874,0.624,1.671,1.344,2.394,2.039c0.704,0.716,1.311,1.43,1.789,2.071
				C198.718,91.342,199.174,92.312,199.174,92.312z"/>
		</g>
		<g>
			<path fill="#1C0E05" d="M200.749,112.568c0,0-0.061-1.105-0.354-2.725c-0.136-0.811-0.356-1.744-0.629-2.73
				c-0.27-0.987-0.629-2.02-1.078-3.01c-0.228-0.494-0.43-1-0.705-1.46c-0.25-0.474-0.509-0.932-0.808-1.346
				c-0.276-0.428-0.554-0.835-0.857-1.192c-0.289-0.368-0.556-0.724-0.856-1.002c-0.285-0.295-0.547-0.566-0.778-0.806
				c-0.256-0.215-0.479-0.402-0.662-0.556c-0.366-0.316-0.575-0.496-0.575-0.496s0.23,0.152,0.634,0.418
				c0.2,0.137,0.444,0.302,0.725,0.493c0.259,0.215,0.546,0.468,0.855,0.749c0.325,0.266,0.619,0.61,0.938,0.968
				c0.159,0.18,0.323,0.364,0.49,0.553c0.146,0.206,0.294,0.416,0.445,0.629c0.316,0.419,0.592,0.884,0.858,1.365
				c0.291,0.468,0.512,0.982,0.753,1.485c0.44,1.026,0.786,2.088,1.04,3.099c0.259,1.011,0.392,1.977,0.488,2.802
				C200.849,111.461,200.749,112.568,200.749,112.568z"/>
		</g>
		<g>
			<path fill="#1C0E05" d="M203.601,99.565c0,0-0.265-1.105-0.83-2.699c-0.267-0.802-0.645-1.713-1.059-2.681
				c-0.42-0.966-0.918-1.974-1.49-2.938c-0.555-0.973-1.154-1.924-1.811-2.744c-0.318-0.418-0.626-0.822-0.954-1.175
				c-0.318-0.362-0.608-0.717-0.924-0.996c-0.301-0.296-0.577-0.567-0.822-0.808c-0.265-0.218-0.496-0.409-0.687-0.565
				c-0.379-0.32-0.596-0.503-0.596-0.503s0.237,0.154,0.653,0.425c0.207,0.139,0.459,0.307,0.747,0.5
				c0.268,0.222,0.568,0.473,0.897,0.746c0.338,0.266,0.652,0.606,0.999,0.955c0.355,0.34,0.7,0.728,1.026,1.153
				c0.687,0.824,1.319,1.781,1.903,2.763c0.563,0.995,1.049,2.03,1.456,3.019c0.402,0.991,0.697,1.945,0.927,2.766
				C203.493,98.43,203.601,99.565,203.601,99.565z"/>
		</g>
		<g>
			<path fill="#1C0E05" d="M202.717,109.618c0,0-0.041-1.118-0.302-2.76c-0.124-0.822-0.319-1.771-0.577-2.772
				c-0.248-1.004-0.594-2.053-1.023-3.065c-0.226-0.5-0.411-1.021-0.683-1.489c-0.249-0.48-0.495-0.953-0.793-1.374
				c-0.276-0.434-0.544-0.854-0.849-1.217c-0.29-0.372-0.551-0.74-0.854-1.022c-0.286-0.301-0.548-0.576-0.78-0.82
				c-0.258-0.218-0.482-0.407-0.668-0.563c-0.369-0.319-0.58-0.502-0.58-0.502s0.232,0.154,0.639,0.424
				c0.203,0.139,0.449,0.307,0.731,0.5c0.256,0.228,0.544,0.484,0.858,0.764c0.328,0.27,0.615,0.626,0.937,0.989
				c0.335,0.353,0.642,0.763,0.928,1.208c0.315,0.428,0.577,0.907,0.844,1.395c0.288,0.477,0.491,1.005,0.731,1.516
				c0.419,1.047,0.75,2.126,0.982,3.154c0.243,1.026,0.351,2.006,0.435,2.841C202.836,108.501,202.717,109.618,202.717,109.618z"/>
		</g>
		<g>
			<path fill="#1C0E05" d="M198.92,100.449c0,0-0.538-0.968-1.51-2.296c-0.477-0.67-1.083-1.413-1.759-2.181
				c-0.674-0.77-1.448-1.542-2.285-2.236c-0.421-0.344-0.824-0.712-1.272-1.006c-0.432-0.316-0.865-0.616-1.314-0.857
				c-0.437-0.265-0.863-0.51-1.292-0.698c-0.421-0.204-0.816-0.408-1.209-0.527c-0.386-0.141-0.739-0.271-1.052-0.385
				c-0.324-0.082-0.606-0.152-0.839-0.211c-0.468-0.124-0.734-0.195-0.734-0.195s0.273,0.036,0.753,0.099
				c0.24,0.035,0.532,0.078,0.866,0.126c0.328,0.081,0.696,0.182,1.098,0.299c0.408,0.097,0.823,0.278,1.267,0.46
				c0.222,0.092,0.449,0.187,0.683,0.284c0.221,0.121,0.446,0.245,0.676,0.371c0.467,0.24,0.918,0.537,1.368,0.853
				c0.467,0.294,0.889,0.66,1.326,1.007c0.845,0.73,1.62,1.535,2.29,2.333c0.675,0.797,1.216,1.607,1.663,2.307
				C198.525,99.41,198.92,100.449,198.92,100.449z"/>
		</g>
		<path fill="#1B1464" stroke="#00097F" stroke-miterlimit="10" d="M153.437,203.5l1.599,32.541c0,0-0.984,0.677-0.8,1.168
			c0.185,0.492,0.923,0.615,0.983,1.045c0.062,0.431-0.491,1.353-0.922,1.783c-0.43,0.431,0.615,0.841,0.615,0.841"/>
	</g>
	
		<radialGradient id="SVGID_27_" cx="14.6294" cy="178.8281" r="11.8383" gradientTransform="matrix(0.9467 0.322 -0.2206 0.6485 162.1295 -0.5231)" gradientUnits="userSpaceOnUse">
		<stop  offset="0" style="stop-color:#FF0000;stop-opacity:0.1"/>
		<stop  offset="1" style="stop-color:#FF0000;stop-opacity:0"/>
	</radialGradient>
	<path fill="url(#SVGID_27_)" d="M148.936,124.375c-1.762,5.181-8.743,7.492-15.594,5.164c-6.85-2.331-10.973-8.421-9.21-13.603
		c1.761-5.179,8.744-7.495,15.593-5.165C146.576,113.103,150.699,119.192,148.936,124.375z"/>
	
		<radialGradient id="SVGID_28_" cx="53.9326" cy="172.2451" r="12.1577" gradientTransform="matrix(0.9671 -0.2544 0.1743 0.6624 94.3566 20.7755)" gradientUnits="userSpaceOnUse">
		<stop  offset="0" style="stop-color:#FF0000;stop-opacity:0.1"/>
		<stop  offset="1" style="stop-color:#FF0000;stop-opacity:0"/>
	</radialGradient>
	<path fill="url(#SVGID_28_)" d="M189.545,117.733c1.43,5.436-3.236,11.374-10.422,13.266c-7.187,1.89-14.17-0.985-15.601-6.42
		c-1.431-5.433,3.235-11.376,10.42-13.266C181.13,109.421,188.114,112.296,189.545,117.733z"/>
	<g>
		<path fill="#A67C52" d="M155.347,124.905c0,0-0.077,0.182-0.183,0.508c-0.103,0.321-0.265,0.797-0.305,1.341
			c-0.021,0.266,0.047,0.557,0.186,0.594c0.271,0.104,0.62,0.224,0.945,0.323c0.676,0.192,1.398,0.337,2.122,0.363
			c0.724,0.025,1.441-0.052,2.1-0.235c0.329-0.087,0.64-0.205,0.938-0.318c0.32-0.152,0.534-0.183,0.601-0.343
			c0.092-0.168,0.103-0.417,0.073-0.628c-0.032-0.213-0.095-0.403-0.156-0.557c-0.133-0.305-0.254-0.471-0.254-0.471
			s0.181,0.092,0.431,0.356c0.121,0.134,0.259,0.313,0.365,0.557c0.107,0.241,0.203,0.553,0.107,0.947
			c-0.025,0.098-0.07,0.196-0.13,0.294c-0.04,0.053-0.084,0.106-0.132,0.156l-0.092,0.082c-0.148,0.098-0.302,0.198-0.459,0.302
			c-0.302,0.189-0.644,0.354-1.013,0.492c-0.733,0.281-1.594,0.416-2.433,0.347c-0.842-0.047-1.653-0.294-2.346-0.625
			c-0.357-0.169-0.653-0.346-0.972-0.566c-0.225-0.149-0.32-0.409-0.339-0.601c-0.018-0.199,0.01-0.371,0.044-0.527
			c0.153-0.618,0.42-1.039,0.595-1.339C155.228,125.062,155.347,124.905,155.347,124.905z"/>
	</g>
	<g>
		
			<ellipse transform="matrix(0.9997 0.0252 -0.0252 0.9997 3.0259 -3.4978)" fill="#C69C6D" cx="140.05" cy="118.097" rx="0.29" ry="0.226"/>
		
			<ellipse transform="matrix(0.9997 0.0252 -0.0252 0.9997 3.0267 -3.5827)" fill="#C69C6D" cx="143.532" cy="118.186" rx="0.29" ry="0.226"/>
		
			<ellipse transform="matrix(0.9997 0.0252 -0.0252 0.9997 3.0684 -3.5987)" fill="#C69C6D" cx="144.187" cy="119.83" rx="0.29" ry="0.226"/>
		
			<ellipse transform="matrix(0.9997 0.0252 -0.0252 0.9997 3.0411 -3.667)" fill="#C69C6D" cx="147" cy="118.816" rx="0.291" ry="0.226"/>
		
			<ellipse transform="matrix(0.9997 0.026 -0.026 0.9997 3.1053 -3.517)" fill="#C69C6D" cx="136.582" cy="117.466" rx="0.291" ry="0.226"/>
		
			<ellipse transform="matrix(0.9997 0.0252 -0.0252 0.9997 2.968 -3.4795)" fill="#C69C6D" cx="139.409" cy="115.91" rx="0.29" ry="0.226"/>
		
			<ellipse transform="matrix(0.9997 0.0252 -0.0252 0.9997 3.0767 -3.5251)" fill="#C69C6D" cx="141.388" cy="120.301" rx="0.291" ry="0.226"/>
		
			<ellipse transform="matrix(0.9997 0.0252 -0.0252 0.9997 3.0656 -3.4611)" fill="#C69C6D" cx="138.616" cy="119.688" rx="0.29" ry="0.226"/>
		
			<ellipse transform="matrix(-0.9997 -0.0252 0.0252 -0.9997 343.5924 242.2282)" fill="#C69C6D" cx="173.325" cy="118.945" rx="0.29" ry="0.226"/>
		
			<ellipse transform="matrix(-0.9997 -0.0252 0.0252 -0.9997 336.631 241.9626)" fill="#C69C6D" cx="169.843" cy="118.856" rx="0.29" ry="0.226"/>
		
			<ellipse transform="matrix(-0.9997 -0.0252 0.0252 -0.9997 335.114 245.1612)" fill="#C69C6D" cx="169.104" cy="120.465" rx="0.29" ry="0.226"/>
		
			<ellipse transform="matrix(-0.9997 -0.0252 0.0252 -0.9997 329.6409 242.7666)" fill="#C69C6D" cx="166.348" cy="119.31" rx="0.291" ry="0.226"/>
		
			<ellipse transform="matrix(-0.9997 -0.0261 0.0261 -0.9997 350.4851 241.5636)" fill="#C69C6D" cx="176.821" cy="118.492" rx="0.29" ry="0.226"/>
		
			<ellipse transform="matrix(-0.9997 -0.0252 0.0252 -0.9997 345.1545 237.9389)" fill="#C69C6D" cx="174.077" cy="116.794" rx="0.291" ry="0.226"/>
		
			<ellipse transform="matrix(-0.9997 -0.0252 0.0252 -0.9997 340.6469 246.4504)" fill="#C69C6D" cx="171.876" cy="121.079" rx="0.291" ry="0.226"/>
		
			<ellipse transform="matrix(-0.9997 -0.0253 0.0253 -0.9997 346.2469 245.5933)" fill="#C69C6D" cx="174.676" cy="120.607" rx="0.29" ry="0.226"/>
	</g>
	<ellipse fill="none" stroke="#1B1464" stroke-miterlimit="10" cx="170.125" cy="108.125" rx="11.5" ry="10.875"/>
	<ellipse fill="none" stroke="#1B1464" stroke-miterlimit="10" cx="145.125" cy="108.125" rx="11.5" ry="10.875"/>
	<line fill="none" stroke="#1B1464" stroke-miterlimit="10" x1="157" y1="108.5" x2="159" y2="108.5"/>
</g>
</svg>
