<?xml version="1.0" encoding="utf-8"?>
<!-- Generator: Adobe Illustrator 16.0.0, SVG Export Plug-In . SVG Version: 6.00 Build 0)  -->
<!DOCTYPE svg PUBLIC "-//W3C//DTD SVG 1.1//EN" "http://www.w3.org/Graphics/SVG/1.1/DTD/svg11.dtd">
<svg version="1.1" id="Layer_1" xmlns="http://www.w3.org/2000/svg" xmlns:xlink="http://www.w3.org/1999/xlink" x="0px" y="0px"
	 width="300px" height="300px" viewBox="0 0 300 300" enable-background="new 0 0 300 300" xml:space="preserve">
<g id="FIX">
	
		<radialGradient id="SVGID_1_" cx="149.876" cy="149.8521" r="146.6042" fx="137.8103" fy="114.1198" gradientUnits="userSpaceOnUse">
		<stop  offset="0" style="stop-color:#3A7FD7"/>
		<stop  offset="0.1527" style="stop-color:#3877CE"/>
		<stop  offset="0.4025" style="stop-color:#3160B5"/>
		<stop  offset="0.7165" style="stop-color:#263B8E"/>
		<stop  offset="1" style="stop-color:#1B1464"/>
	</radialGradient>
	<circle fill="url(#SVGID_1_)" cx="149.876" cy="149.852" r="146.604"/>
	
		<radialGradient id="SVGID_2_" cx="133.876" cy="219.7285" r="88.2293" fx="126.6146" fy="198.2241" gradientTransform="matrix(0.0125 0.9999 -1.6487 0.0206 494.4651 81.3337)" gradientUnits="userSpaceOnUse">
		<stop  offset="0.2167" style="stop-color:#D6E8FE"/>
		<stop  offset="0.4236" style="stop-color:#D6E8FE"/>
		<stop  offset="1" style="stop-color:#5E89F5"/>
	</radialGradient>
	<path fill="url(#SVGID_2_)" d="M296.48,151c0,81-65.637,143.604-146.604,143.604c-80.967,0-146.604-62.753-146.604-143.752
		L296.48,151z"/>
</g>
<radialGradient id="shadows_4_" cx="146.0015" cy="217.667" r="114.3437" gradientTransform="matrix(0.9999 -0.0147 0.0026 0.1775 -0.5536 181.1744)" gradientUnits="userSpaceOnUse">
	<stop  offset="0" style="stop-color:#0033CC;stop-opacity:0.3"/>
	<stop  offset="0.3105" style="stop-color:#0235CC;stop-opacity:0.2069"/>
	<stop  offset="0.4478" style="stop-color:#093BCE;stop-opacity:0.1657"/>
	<stop  offset="0.551" style="stop-color:#1645D0;stop-opacity:0.1347"/>
	<stop  offset="0.6371" style="stop-color:#2853D4;stop-opacity:0.1089"/>
	<stop  offset="0.7126" style="stop-color:#3F66D9;stop-opacity:0.0862"/>
	<stop  offset="0.7807" style="stop-color:#5C7DDE;stop-opacity:0.0658"/>
	<stop  offset="0.8432" style="stop-color:#7E98E5;stop-opacity:0.047"/>
	<stop  offset="0.9013" style="stop-color:#A6B8ED;stop-opacity:0.0296"/>
	<stop  offset="0.9538" style="stop-color:#D2DBF6;stop-opacity:0.0139"/>
	<stop  offset="1" style="stop-color:#FFFFFF;stop-opacity:0"/>
</radialGradient>
<path id="shadows_2_" fill="url(#shadows_4_)" d="M255.845,216.085c0.042,7.128-49.102,13.197-109.767,13.554
	c-60.665,0.355-109.878-5.134-109.92-12.262c-0.042-7.129,49.104-13.197,109.769-13.552
	C206.592,203.468,255.804,208.956,255.845,216.085z"/>
<radialGradient id="floor_shadow_1_" cx="122.2773" cy="207.8975" r="106.7052" gradientTransform="matrix(0.9999 0.011 -0.0077 0.7011 1.6142 60.7955)" gradientUnits="userSpaceOnUse">
	<stop  offset="0" style="stop-color:#FFFFFF;stop-opacity:0"/>
	<stop  offset="1" style="stop-color:#2134F3;stop-opacity:0.2"/>
</radialGradient>
<path id="floor_shadow" fill="url(#floor_shadow_1_)" d="M3.272,151H296.48l0.176,11.813
	c-101.259-8.48-191.725,7.889-209.259,21.746c-33.593,26.553-49.984,79.833,56.789,112.196C57.496,292.404,3.272,223,3.272,151z"/>
<radialGradient id="light_1_" cx="219.0967" cy="230.3945" r="84.1389" gradientTransform="matrix(0.8221 -0.0655 0.0331 0.4231 1.4593 147.696)" gradientUnits="userSpaceOnUse">
	<stop  offset="0" style="stop-color:#FFFFFF;stop-opacity:0.3"/>
	<stop  offset="0.8531" style="stop-color:#FFFFFF;stop-opacity:0.0441"/>
	<stop  offset="1" style="stop-color:#FFFFFF;stop-opacity:0"/>
</radialGradient>
<path id="light" fill="url(#light_1_)" d="M283.654,202.629c0.803,8.92-29.901,60.463-89.257,79.438
	c-45.197,14.45-71.419-56.292-72.223-65.212c-0.803-8.921,61.518-36.554,125.777-36.554
	C256.751,180.302,282.851,193.708,283.654,202.629z"/>
<radialGradient id="shadows_5_" cx="153.8965" cy="221.2295" r="63.0405" gradientTransform="matrix(0.9993 -0.0384 0.0384 0.9993 -8.2793 6.5767)" gradientUnits="userSpaceOnUse">
	<stop  offset="0" style="stop-color:#0033CC;stop-opacity:0.3"/>
	<stop  offset="0.3105" style="stop-color:#0235CC;stop-opacity:0.2069"/>
	<stop  offset="0.4478" style="stop-color:#093BCE;stop-opacity:0.1657"/>
	<stop  offset="0.551" style="stop-color:#1645D0;stop-opacity:0.1347"/>
	<stop  offset="0.6371" style="stop-color:#2853D4;stop-opacity:0.1089"/>
	<stop  offset="0.7126" style="stop-color:#3F66D9;stop-opacity:0.0862"/>
	<stop  offset="0.7807" style="stop-color:#5C7DDE;stop-opacity:0.0658"/>
	<stop  offset="0.8432" style="stop-color:#7E98E5;stop-opacity:0.047"/>
	<stop  offset="0.9013" style="stop-color:#A6B8ED;stop-opacity:0.0296"/>
	<stop  offset="0.9538" style="stop-color:#D2DBF6;stop-opacity:0.0139"/>
	<stop  offset="1" style="stop-color:#FFFFFF;stop-opacity:0"/>
</radialGradient>
<path id="shadows_1_" fill="url(#shadows_5_)" d="M242.544,221.211c0.033,5.745-39.58,10.638-88.48,10.925
	s-88.57-4.138-88.604-9.884s39.581-10.638,88.481-10.924C202.842,211.04,242.511,215.464,242.544,221.211z"/>
<circle id="circle" fill="none" stroke="#2196F3" stroke-width="2" stroke-miterlimit="10" cx="149.874" cy="149.622" r="146.782"/>
<radialGradient id="SVGID_3_" cx="147.0947" cy="118.5459" r="105.1778" fx="107.4091" fy="120.4631" gradientTransform="matrix(-0.0418 0.9544 -0.6882 -0.0336 241.0176 -13.1133)" gradientUnits="userSpaceOnUse">
	<stop  offset="0" style="stop-color:#BBDEFB"/>
	<stop  offset="0.6318" style="stop-color:#2699F3"/>
	<stop  offset="0.936" style="stop-color:#2367F3"/>
	<stop  offset="1" style="stop-color:#2144F3"/>
</radialGradient>
<path fill="url(#SVGID_3_)" d="M209.666,149.855c20.897,43.208-22.052,76.246-56.413,76.246s-75.879-34.527-57.238-71.756
	c12.917-25.797,28.939-77.426,52.487-80.003C190.13,69.787,190.582,110.394,209.666,149.855z"/>
<radialGradient id="SVGID_4_" cx="178.8076" cy="218.792" r="13.8427" fx="175.7383" fy="218.8566" gradientUnits="userSpaceOnUse">
	<stop  offset="0" style="stop-color:#FFFFFF"/>
	<stop  offset="1" style="stop-color:#9AB4DC"/>
</radialGradient>
<path fill="url(#SVGID_4_)" stroke="#808080" stroke-miterlimit="10" d="M163.582,228.334c0,0,24.251,1.883,29.418-1.809
	s-5.904-14.025-13.202-12.358S161.33,218.001,163.582,228.334z"/>
<radialGradient id="SVGID_5_" cx="91.0537" cy="218.792" r="13.8427" fx="87.9844" fy="218.8566" gradientTransform="matrix(-0.9133 0 0 1 205.2729 0)" gradientUnits="userSpaceOnUse">
	<stop  offset="0" style="stop-color:#FFFFFF"/>
	<stop  offset="1" style="stop-color:#9AB4DC"/>
</radialGradient>
<path fill="url(#SVGID_5_)" stroke="#808080" stroke-miterlimit="10" d="M136.019,228.334c0,0-22.148,1.883-26.868-1.809
	c-4.719-3.691,5.393-14.025,12.058-12.358S138.075,218.001,136.019,228.334z"/>
<path fill="none" stroke="#BBDEFB" stroke-miterlimit="10" d="M192.75,136.859c0,0,8,14.221,4.75,25.181s-4.188,8.596-4.907,8.46
	c-2.661-0.503-3.937,0.247-4.687,1.281c-1.271,1.753,2.859,0.205,1.938,1.156c-1.938,2-3.289,5.053-1.441,3.776
	s1.902-2.421,2.318-1.921s-1.842,4.337-1.158,4.52c0.938,0.25,2.389-3,3.338-3.5s-1.516,3.855-0.6,4.021s2.427-2.133,2.918-3.646
	c0.69-2.128,0.113-4.705-1.375-5.688"/>
<radialGradient id="shadows_6_" cx="166.3828" cy="237.6611" r="84.6064" gradientTransform="matrix(0.5229 -3.643967e-004 3.131831e-004 0.1092 7.6613 209.159)" gradientUnits="userSpaceOnUse">
	<stop  offset="0" style="stop-color:#0033CC;stop-opacity:0.3"/>
	<stop  offset="0.2048" style="stop-color:#0335CD;stop-opacity:0.2386"/>
	<stop  offset="0.3395" style="stop-color:#0C3CCE;stop-opacity:0.1981"/>
	<stop  offset="0.4541" style="stop-color:#1B48D1;stop-opacity:0.1638"/>
	<stop  offset="0.5575" style="stop-color:#3059D6;stop-opacity:0.1327"/>
	<stop  offset="0.6533" style="stop-color:#4B6FDB;stop-opacity:0.104"/>
	<stop  offset="0.7435" style="stop-color:#6D8AE2;stop-opacity:0.077"/>
	<stop  offset="0.8293" style="stop-color:#95AAEA;stop-opacity:0.0512"/>
	<stop  offset="0.9118" style="stop-color:#C4D0F3;stop-opacity:0.0265"/>
	<stop  offset="0.9888" style="stop-color:#F7F8FD;stop-opacity:0.0034"/>
	<stop  offset="1" style="stop-color:#FFFFFF;stop-opacity:0"/>
</radialGradient>
<path id="shadows_3_" fill="url(#shadows_6_)" d="M139.044,234.44c0.023,3.941-20.688,7.259-46.259,7.409
	s-46.321-2.923-46.344-6.864c-0.023-3.942,20.688-7.26,46.26-7.409C118.272,227.426,139.021,230.498,139.044,234.44z"/>
<ellipse id="whiteEyeL" fill="#F2F2F2" cx="145.406" cy="114.485" rx="3.56" ry="4.518"/>
<ellipse fill="#1B1464" cx="145.076" cy="116.494" rx="1.719" ry="2.181"/>
<ellipse id="whiteEyeL_1_" fill="#F2F2F2" cx="155.406" cy="114.485" rx="3.56" ry="4.518"/>
<ellipse fill="#1B1464" cx="155.076" cy="116.494" rx="1.719" ry="2.181"/>
</svg>
