<?xml version="1.0" encoding="utf-8"?>
<!-- Generator: Adobe Illustrator 16.0.0, SVG Export Plug-In . SVG Version: 6.00 Build 0)  -->
<!DOCTYPE svg PUBLIC "-//W3C//DTD SVG 1.1//EN" "http://www.w3.org/Graphics/SVG/1.1/DTD/svg11.dtd">
<svg version="1.1" id="Layer_1" xmlns="http://www.w3.org/2000/svg" xmlns:xlink="http://www.w3.org/1999/xlink" x="0px" y="0px"
	 width="30px" height="10px" viewBox="0 0 30 10" enable-background="new 0 0 30 10" xml:space="preserve">
<g id="eyebrow">
	<path fill="#1B1464" d="M18.069,3.594c0,0,0.463-0.205,1.201-0.225c0.185-0.019,0.384-0.011,0.593,0.011
		c0.209,0.021,0.436,0.027,0.661,0.074c0.442,0.124,0.94,0.209,1.38,0.448c0.219,0.116,0.438,0.233,0.654,0.347
		c0.228,0.095,0.39,0.291,0.574,0.429c0.181,0.146,0.343,0.302,0.497,0.446c0.166,0.131,0.276,0.304,0.378,0.46
		c0.418,0.617,0.603,1.059,0.603,1.059s-0.456-0.239-0.999-0.644c-0.136-0.102-0.278-0.215-0.456-0.3
		c-0.171-0.093-0.351-0.187-0.523-0.299c-0.18-0.104-0.348-0.233-0.551-0.314c-0.196-0.091-0.395-0.185-0.594-0.277
		c-0.188-0.115-0.391-0.199-0.598-0.265c-0.205-0.07-0.399-0.165-0.593-0.244C19.9,4.184,19.53,4.03,19.2,3.937
		C18.546,3.726,18.069,3.593,18.069,3.594z"/>
</g>
<g id="eyebrow_1_">
	<path fill="#1B1464" d="M4.95,4.357c0,0,0.182-0.472,0.689-1.008c0.117-0.145,0.263-0.28,0.427-0.412
		c0.162-0.133,0.327-0.289,0.52-0.416c0.4-0.226,0.813-0.518,1.292-0.66c0.237-0.073,0.475-0.146,0.708-0.218
		c0.228-0.094,0.48-0.07,0.709-0.104C9.525,1.515,9.75,1.51,9.961,1.502c0.209-0.025,0.41,0.019,0.592,0.058
		c0.732,0.14,1.176,0.321,1.176,0.321s-0.491,0.154-1.161,0.252C10.4,2.159,10.22,2.18,10.034,2.246
		c-0.187,0.055-0.38,0.116-0.582,0.16c-0.2,0.054-0.411,0.081-0.611,0.168C8.638,2.647,8.432,2.722,8.226,2.797
		C8.012,2.85,7.809,2.933,7.616,3.034C7.421,3.129,7.218,3.2,7.025,3.281c-0.364,0.197-0.734,0.35-1.033,0.517
		C5.38,4.113,4.949,4.357,4.95,4.357z"/>
</g>
</svg>
