<?xml version="1.0" encoding="utf-8"?>
<!-- Generator: Adobe Illustrator 16.0.0, SVG Export Plug-In . SVG Version: 6.00 Build 0)  -->
<!DOCTYPE svg PUBLIC "-//W3C//DTD SVG 1.1//EN" "http://www.w3.org/Graphics/SVG/1.1/DTD/svg11.dtd">
<svg version="1.1" id="Layer_1" xmlns="http://www.w3.org/2000/svg" xmlns:xlink="http://www.w3.org/1999/xlink" x="0px" y="0px"
	 width="30px" height="10px" viewBox="0 0 30 10" enable-background="new 0 0 30 10" xml:space="preserve">
<radialGradient id="SVGID_1_" cx="5.252" cy="4.1426" r="4.8804" gradientTransform="matrix(1.5014 -0.4541 0.2008 0.664 0.2511 3.5598)" gradientUnits="userSpaceOnUse">
	<stop  offset="0.2315" style="stop-color:#1B5BC2;stop-opacity:0.1"/>
	<stop  offset="0.318" style="stop-color:#205FC3;stop-opacity:0.0887"/>
	<stop  offset="0.4193" style="stop-color:#2E69C7;stop-opacity:0.0756"/>
	<stop  offset="0.528" style="stop-color:#467ACD;stop-opacity:0.0614"/>
	<stop  offset="0.6419" style="stop-color:#6791D6;stop-opacity:0.0466"/>
	<stop  offset="0.7599" style="stop-color:#91B0E2;stop-opacity:0.0312"/>
	<stop  offset="0.88" style="stop-color:#C4D5EF;stop-opacity:0.0156"/>
	<stop  offset="1" style="stop-color:#FFFFFF;stop-opacity:0"/>
</radialGradient>
<path fill="url(#SVGID_1_)" d="M16.297,1.709c0.542,1.791-2.301,4.233-6.348,5.457C5.902,8.39,2.183,7.931,1.642,6.142
	C1.1,4.353,3.942,1.91,7.989,0.686C12.036-0.539,15.756-0.079,16.297,1.709z"/>
<radialGradient id="SVGID_2_" cx="13.8896" cy="7.3652" r="5.7529" gradientTransform="matrix(1.5362 0.3168 -0.1401 0.6794 3.3377 -5.509)" gradientUnits="userSpaceOnUse">
	<stop  offset="0.2315" style="stop-color:#1B5BC2;stop-opacity:0.1"/>
	<stop  offset="0.318" style="stop-color:#205FC3;stop-opacity:0.0887"/>
	<stop  offset="0.4193" style="stop-color:#2E69C7;stop-opacity:0.0756"/>
	<stop  offset="0.528" style="stop-color:#467ACD;stop-opacity:0.0614"/>
	<stop  offset="0.6419" style="stop-color:#6791D6;stop-opacity:0.0466"/>
	<stop  offset="0.7599" style="stop-color:#91B0E2;stop-opacity:0.0312"/>
	<stop  offset="0.88" style="stop-color:#C4D5EF;stop-opacity:0.0156"/>
	<stop  offset="1" style="stop-color:#FFFFFF;stop-opacity:0"/>
</radialGradient>
<path fill="url(#SVGID_2_)" d="M32.483,5.72c-0.447,2.158-4.765,3.09-9.646,2.084c-4.881-1.007-8.478-3.571-8.031-5.73
	c0.444-2.158,4.762-3.092,9.644-2.085C29.331,0.995,32.927,3.561,32.483,5.72z"/>
<g id="eyebrow">
	<path fill="#FFFFFF" d="M18.967,2.639c0,0,0.604-0.266,1.563-0.292c0.241-0.025,0.5-0.015,0.772,0.014
		c0.271,0.027,0.566,0.036,0.858,0.097c0.576,0.161,1.225,0.271,1.797,0.582c0.285,0.151,0.569,0.303,0.853,0.452
		c0.295,0.124,0.507,0.379,0.745,0.558C25.789,4.24,26,4.442,26.201,4.63c0.216,0.17,0.358,0.395,0.492,0.599
		c0.544,0.803,0.784,1.377,0.784,1.377s-0.593-0.31-1.299-0.837c-0.179-0.134-0.362-0.28-0.595-0.39
		c-0.222-0.122-0.454-0.244-0.68-0.39c-0.234-0.137-0.452-0.304-0.717-0.409c-0.255-0.118-0.514-0.241-0.773-0.361
		C23.17,4.07,22.905,3.96,22.637,3.875c-0.267-0.091-0.519-0.215-0.771-0.317c-0.516-0.151-0.998-0.351-1.426-0.472
		C19.588,2.811,18.967,2.638,18.967,2.639z"/>
</g>
<g id="eyebrow_1_">
	<path fill="#FFFFFF" d="M4.852,4.692c0,0,0.266-0.528,0.918-1.092c0.153-0.155,0.339-0.295,0.545-0.43
		c0.204-0.135,0.414-0.298,0.653-0.423C7.46,2.53,7.974,2.238,8.549,2.129c0.284-0.057,0.57-0.115,0.849-0.171
		c0.276-0.083,0.567-0.026,0.836-0.039c0.271,0,0.534,0.019,0.78,0.035c0.246-0.005,0.475,0.07,0.683,0.136
		c0.835,0.249,1.33,0.511,1.33,0.511s-0.589,0.122-1.38,0.158c-0.199,0.011-0.41,0.015-0.634,0.069
		c-0.225,0.042-0.457,0.091-0.696,0.119c-0.239,0.04-0.488,0.046-0.731,0.125C9.342,3.132,9.093,3.195,8.845,3.258
		c-0.255,0.037-0.5,0.109-0.737,0.205C7.87,3.55,7.625,3.61,7.391,3.682C6.944,3.868,6.496,4.003,6.129,4.163
		C5.38,4.458,4.85,4.692,4.852,4.692z"/>
</g>
</svg>
