<?xml version="1.0" encoding="utf-8"?>
<!-- Generator: Adobe Illustrator 16.0.0, SVG Export Plug-In . SVG Version: 6.00 Build 0)  -->
<!DOCTYPE svg PUBLIC "-//W3C//DTD SVG 1.1//EN" "http://www.w3.org/Graphics/SVG/1.1/DTD/svg11.dtd">
<svg version="1.1" id="piggy_arm" xmlns="http://www.w3.org/2000/svg" xmlns:xlink="http://www.w3.org/1999/xlink" x="0px" y="0px"
	 width="60px" height="60px" viewBox="0 0 60 60" enable-background="new 0 0 60 60" xml:space="preserve">
<g id="piggy">
	<path fill="#FC5B8C" stroke="#E8388C" stroke-miterlimit="10" d="M23.2,22.866c0,0-3.509-5.53-0.479-7.884
		c3.029-2.354,3.659-0.222,3.659-0.222l2.534,4.978"/>
	<path fill="#FC5B8C" stroke="#E8388C" stroke-miterlimit="10" d="M37.643,19.386c0,0,1.037-6.465,4.864-6.221
		c3.831,0.244,2.89,2.258,2.89,2.258l-1.4,5.405"/>
	<path fill="#FF7BAC" stroke="#E8388C" stroke-miterlimit="10" d="M44.831,38.195c-1.451,3.695,4.996,5.511,5.938,4.519
		c0.939-0.991,2.515-4.282-0.664-7.524"/>
	
		<radialGradient id="SVGID_1_" cx="842.5039" cy="-263.7148" r="16.8717" fx="838.7629" fy="-263.6361" gradientTransform="matrix(0.4091 0.9124 -1.3745 0.6163 -679.1984 -576.5101)" gradientUnits="userSpaceOnUse">
		<stop  offset="0" style="stop-color:#FFE1E3"/>
		<stop  offset="0.3937" style="stop-color:#FF7BAC"/>
		<stop  offset="0.6722" style="stop-color:#FE79AA"/>
		<stop  offset="0.7953" style="stop-color:#FC73A3"/>
		<stop  offset="0.8877" style="stop-color:#F76796"/>
		<stop  offset="0.9645" style="stop-color:#F15784"/>
		<stop  offset="1" style="stop-color:#ED4D79"/>
	</radialGradient>
	<path fill="url(#SVGID_1_)" stroke="#E8388C" stroke-miterlimit="10" d="M50.195,27.955c2.416,8.667-4.049,18.041-14.44,20.938
		c-10.392,2.897-20.774-1.777-23.19-10.443c-2.417-8.668,4.049-18.04,14.44-20.938C37.396,14.614,47.779,19.29,50.195,27.955z"/>
	<path fill="#FF7BAC" stroke="#E8388C" stroke-miterlimit="10" d="M36.159,30.07c-3.884-0.823-4.612,5.834-3.481,6.6
		c1.135,0.766,4.643,1.777,7.315-1.889"/>
	
		<radialGradient id="SVGID_2_" cx="545.1191" cy="-490.0195" r="0" gradientTransform="matrix(0.0144 0.9999 -1.5063 0.0218 -767.1339 -527.254)" gradientUnits="userSpaceOnUse">
		<stop  offset="0" style="stop-color:#FFE1E3"/>
		<stop  offset="0.3937" style="stop-color:#FF7BAC"/>
		<stop  offset="0.6722" style="stop-color:#FE79AA"/>
		<stop  offset="0.7953" style="stop-color:#FC73A3"/>
		<stop  offset="0.8877" style="stop-color:#F76796"/>
		<stop  offset="0.9645" style="stop-color:#F15784"/>
		<stop  offset="1" style="stop-color:#ED4D79"/>
	</radialGradient>
	<path fill="url(#SVGID_2_)" stroke="#E8388C" stroke-miterlimit="10" d="M-21.168,7.129"/>
	
		<radialGradient id="SVGID_3_" cx="916.1768" cy="540.4912" r="5.6663" fx="915.1854" fy="539.6639" gradientTransform="matrix(0.9691 0.2465 -0.1706 0.6711 -749.1988 -562.2774)" gradientUnits="userSpaceOnUse">
		<stop  offset="0" style="stop-color:#FF9AC4"/>
		<stop  offset="0.1981" style="stop-color:#FF98C2"/>
		<stop  offset="0.2855" style="stop-color:#FD91BB"/>
		<stop  offset="0.3202" style="stop-color:#FC8BB6"/>
		<stop  offset="0.4751" style="stop-color:#FB85B0"/>
		<stop  offset="0.6852" style="stop-color:#F6749F"/>
		<stop  offset="0.9259" style="stop-color:#EF5783"/>
		<stop  offset="1" style="stop-color:#ED4D79"/>
	</radialGradient>
	<path fill="url(#SVGID_3_)" stroke="#E8388C" stroke-miterlimit="10" d="M51.76,28.289c-0.619,1.756-3.027,2.506-5.374,1.677
		c-2.348-0.831-3.747-2.929-3.127-4.685c0.621-1.758,3.029-2.508,5.378-1.676C50.982,24.438,52.382,26.534,51.76,28.289z"/>
	<path fill="none" stroke="#991C5E" stroke-miterlimit="10" d="M31.939,48.57c0,0,5.721-0.35,7.912-3.07"/>
	
		<ellipse transform="matrix(-0.9981 0.0615 -0.0615 -0.9981 85.6044 60.1778)" fill="#991C5E" cx="41.876" cy="31.406" rx="0.707" ry="0.699"/>
	
		<ellipse transform="matrix(-0.9981 0.0615 -0.0615 -0.9981 98.1004 65.051)" fill="#991C5E" cx="48.049" cy="34.036" rx="0.706" ry="0.699"/>
	
		<ellipse transform="matrix(-0.8079 -0.5894 0.5894 -0.8079 69.0176 74.7068)" fill="#B52D7B" cx="46.686" cy="26.104" rx="0.583" ry="0.699"/>
	
		<ellipse transform="matrix(-0.9264 -0.3766 0.3766 -0.9264 83.7402 70.3328)" fill="#B52D7B" cx="48.745" cy="26.981" rx="0.583" ry="0.698"/>
	<path fill="none" stroke="#E8388C" stroke-miterlimit="10" d="M12.563,38.445c0,0-3.099-0.506-3.84,1.736
		c-0.741,2.244,1.471,2.533,2.051,1.286c0.582-1.25-3.396-2.075-4.195-0.831c-0.801,1.247,1.256,1.668,1.256,1.668"/>
	
		<linearGradient id="SVGID_4_" gradientUnits="userSpaceOnUse" x1="735.9092" y1="623.1943" x2="742.6682" y2="636.6194" gradientTransform="matrix(0.9982 -0.0607 0.0607 0.9982 -757.7133 -559.0608)">
		<stop  offset="0" style="stop-color:#FFE1E3"/>
		<stop  offset="0.3007" style="stop-color:#FF7BAC"/>
		<stop  offset="0.6219" style="stop-color:#FE79AA"/>
		<stop  offset="0.7638" style="stop-color:#FC73A3"/>
		<stop  offset="0.8705" style="stop-color:#F76796"/>
		<stop  offset="0.959" style="stop-color:#F15784"/>
		<stop  offset="1" style="stop-color:#ED4D79"/>
	</linearGradient>
	<path fill="url(#SVGID_4_)" stroke="#E8388C" stroke-miterlimit="10" d="M15.396,26.348c0,0-3.508-5.531-0.479-7.885
		s3.66-0.223,3.66-0.223l2.533,4.979"/>
</g>
<g>
	
		<radialGradient id="SVGID_5_" cx="-400.5161" cy="-78.9136" r="9.6756" gradientTransform="matrix(0.4007 0.9162 -0.9162 0.4007 113.3186 411.8691)" gradientUnits="userSpaceOnUse">
		<stop  offset="0" style="stop-color:#FFE2A2"/>
		<stop  offset="0.472" style="stop-color:#FFC98A"/>
		<stop  offset="1" style="stop-color:#FFA96A"/>
	</radialGradient>
	<path fill="url(#SVGID_5_)" d="M21.063,2.5c0.325,2.248,1,8.688,1.872,11.379c0.558,1.723,1.623,2.927,4.037,1.879
		c5.778-2.508,4.982,1.752,1.925,1.945c-3.062,0.196,4.603,2.849,3.582,4.438c-1.021,1.591-4.619-1.41-4.619-1.41
		s4.26,4.997,1.709,4.397c-2.55-0.6-3.389-3.662-3.389-3.662s1.692,5.832-0.106,4.333c-1.797-1.5-3.994-8.973-3.994-8.973
		S17.096,4.688,16.688,2.938"/>
	<path fill="#8C6239" d="M21.063,2.5c0.53,3.068,0.909,6.168,1.589,9.192c0.162,0.757,0.357,1.503,0.589,2.22
		c0.25,0.698,0.62,1.375,1.204,1.695c0.576,0.334,1.315,0.239,1.996-0.005c0.675-0.273,1.434-0.626,2.219-0.824
		c0.396-0.1,0.803-0.182,1.238-0.193c0.427,0.004,0.922,0.025,1.37,0.4c0.219,0.185,0.371,0.481,0.395,0.767
		c0.029,0.287-0.037,0.55-0.135,0.777c-0.204,0.454-0.542,0.786-0.912,1.041c-0.375,0.254-0.798,0.416-1.231,0.502
		c-0.215,0.048-0.45,0.058-0.617,0.078c-0.075,0.008-0.155,0.023-0.213,0.039c-0.061,0.003-0.082,0.069,0.015-0.055
		c0.048-0.074,0.042-0.18,0.029-0.206c-0.009-0.028-0.008-0.018,0.005-0.003c0.024,0.033,0.079,0.089,0.139,0.14
		c0.122,0.107,0.272,0.215,0.425,0.32c0.308,0.21,0.637,0.414,0.967,0.62c0.66,0.417,1.335,0.825,1.977,1.359
		c0.311,0.284,0.652,0.552,0.864,1.104c0.108,0.278,0.076,0.7-0.146,0.98l-0.092,0.12c-0.057,0.061-0.117,0.12-0.18,0.176
		c-0.119,0.091-0.243,0.165-0.377,0.217c-0.543,0.195-1.033,0.099-1.448-0.017c-0.423-0.122-0.8-0.299-1.165-0.489
		c-0.726-0.392-1.378-0.838-2.02-1.351l0.684-0.691c0.611,0.725,1.184,1.458,1.717,2.25c0.26,0.403,0.513,0.809,0.719,1.287
		c0.096,0.248,0.206,0.49,0.203,0.887c-0.007,0.201-0.108,0.516-0.378,0.684c-0.238,0.135-0.459,0.149-0.612,0.139
		c-0.185-0.006-0.272-0.029-0.469-0.073l-0.331-0.103c-0.214-0.071-0.513-0.203-0.726-0.329c-0.458-0.251-0.845-0.599-1.184-0.97
		c-0.338-0.375-0.622-0.789-0.858-1.222c-0.236-0.44-0.427-0.872-0.578-1.376c-0.073-0.245,0.065-0.503,0.311-0.577
		c0.245-0.073,0.502,0.066,0.576,0.311l0.002,0.007l0.002,0.008c0.175,0.629,0.327,1.25,0.459,1.887
		c0.126,0.639,0.247,1.273,0.264,1.974c0,0.178-0.004,0.359-0.045,0.57c-0.024,0.107-0.053,0.223-0.133,0.361
		c-0.067,0.133-0.264,0.317-0.493,0.347c-0.444,0.031-0.596-0.149-0.767-0.249c-0.068-0.048-0.169-0.137-0.218-0.187
		c-0.055-0.048-0.118-0.113-0.186-0.19c-0.253-0.285-0.438-0.552-0.614-0.84c-0.175-0.284-0.335-0.571-0.483-0.862
		c-0.597-1.161-1.056-2.361-1.486-3.568c-0.427-1.209-0.815-2.424-1.168-3.658l0.012,0.033c-0.9-2.317-1.815-4.626-2.668-6.962
		l-1.269-3.506c-0.413-1.171-0.825-2.348-1.14-3.55c0.396,1.178,0.89,2.317,1.354,3.469l1.444,3.434l2.909,6.857l0.008,0.022
		l0.003,0.012c0.379,1.201,0.798,2.4,1.25,3.579c0.457,1.175,0.942,2.343,1.512,3.444c0.143,0.275,0.295,0.542,0.456,0.798
		c0.156,0.254,0.343,0.506,0.513,0.695c0.037,0.044,0.083,0.094,0.148,0.15c0.065,0.062,0.083,0.078,0.144,0.123
		c0.083,0.078,0.221,0.095,0.102,0.086c-0.071,0.005-0.133,0.078-0.125,0.072c0,0,0.016-0.038,0.025-0.086
		c0.02-0.102,0.026-0.24,0.023-0.38c-0.018-0.573-0.134-1.194-0.261-1.8c-0.131-0.607-0.288-1.221-0.458-1.816l0.891-0.251
		c0.118,0.379,0.301,0.798,0.507,1.169c0.209,0.376,0.457,0.727,0.74,1.036c0.285,0.305,0.598,0.582,0.956,0.771
		c0.186,0.101,0.313,0.165,0.534,0.239l0.332,0.1c0.029,0,0.168,0.035,0.215,0.028c0.077,0.011,0.09-0.02,0.058,0.01
		c-0.068,0.038-0.087,0.116-0.077,0.09c0.003-0.068-0.051-0.271-0.131-0.447c-0.163-0.371-0.4-0.753-0.645-1.123
		c-0.493-0.745-1.052-1.476-1.626-2.169c-0.173-0.207-0.145-0.515,0.062-0.688c0.183-0.152,0.444-0.148,0.622-0.003
		c0.569,0.464,1.203,0.906,1.846,1.258c0.618,0.34,1.396,0.634,1.824,0.476c0.048-0.018,0.09-0.045,0.128-0.07
		c0.009-0.011,0.019-0.019,0.033-0.024l0.086-0.11c0.015-0.032,0.034-0.042,0.007-0.13c-0.057-0.188-0.314-0.471-0.58-0.696
		c-0.551-0.47-1.206-0.881-1.858-1.298c-0.328-0.209-0.66-0.418-0.993-0.649c-0.167-0.118-0.333-0.237-0.503-0.388
		c-0.086-0.077-0.172-0.157-0.264-0.28c-0.044-0.063-0.095-0.137-0.134-0.258c-0.042-0.118-0.047-0.328,0.051-0.487
		c0.205-0.292,0.383-0.298,0.505-0.347c0.13-0.034,0.242-0.052,0.361-0.064c0.22-0.023,0.375-0.025,0.542-0.062
		c0.329-0.062,0.648-0.181,0.92-0.363c0.556-0.331,0.904-1.054,0.588-1.281c-0.146-0.15-0.489-0.224-0.825-0.225
		c-0.344-0.001-0.708,0.059-1.067,0.139c-0.733,0.165-1.4,0.455-2.175,0.745c-0.764,0.255-1.724,0.384-2.526-0.1
		c-0.79-0.476-1.169-1.297-1.421-2.045c-0.225-0.771-0.408-1.536-0.538-2.309C21.651,8.7,21.373,5.6,21.063,2.5z"/>
</g>
<linearGradient id="SVGID_6_" gradientUnits="userSpaceOnUse" x1="754.71" y1="618.3418" x2="755.2285" y2="631.3141" gradientTransform="matrix(0.9982 -0.0607 0.0607 0.9982 -757.7133 -559.0608)">
	<stop  offset="0" style="stop-color:#FFE1E3"/>
	<stop  offset="0.3007" style="stop-color:#FF7BAC"/>
	<stop  offset="0.6219" style="stop-color:#FE79AA"/>
	<stop  offset="0.7638" style="stop-color:#FC73A3"/>
	<stop  offset="0.8705" style="stop-color:#F76796"/>
	<stop  offset="0.959" style="stop-color:#F15784"/>
	<stop  offset="1" style="stop-color:#ED4D79"/>
</linearGradient>
<path fill="url(#SVGID_6_)" stroke="#E8388C" stroke-linecap="round" stroke-miterlimit="10" d="M30.625,19.375
	c0,0-1.181-5.667,2.531-6.633c3.712-0.966,3.449,1.242,3.449,1.242l0.359,5.572"/>
</svg>
