<?xml version="1.0" encoding="utf-8"?>
<!-- Generator: Adobe Illustrator 16.0.0, SVG Export Plug-In . SVG Version: 6.00 Build 0)  -->
<!DOCTYPE svg PUBLIC "-//W3C//DTD SVG 1.1//EN" "http://www.w3.org/Graphics/SVG/1.1/DTD/svg11.dtd">
<svg version="1.1" id="backlist_1_" xmlns="http://www.w3.org/2000/svg" xmlns:xlink="http://www.w3.org/1999/xlink" x="0px"
	 y="0px" width="140px" height="140px" viewBox="0 0 140 140" enable-background="new 0 0 140 140" xml:space="preserve">
<g id="backlist">
	
		<linearGradient id="SVGID_1_" gradientUnits="userSpaceOnUse" x1="357.5342" y1="-401.7173" x2="316.8374" y2="-249.8349" gradientTransform="matrix(1 0 0 -1 -272.6602 -254.96)">
		<stop  offset="0.0021" style="stop-color:#FFE2A2"/>
		<stop  offset="0.1695" style="stop-color:#FFE2A2"/>
		<stop  offset="0.33" style="stop-color:#FFA768"/>
		<stop  offset="0.4138" style="stop-color:#C68854"/>
		<stop  offset="0.5517" style="stop-color:#FFA768"/>
		<stop  offset="0.7635" style="stop-color:#C68854"/>
		<stop  offset="1" style="stop-color:#B5794F"/>
	</linearGradient>
	<path fill="url(#SVGID_1_)" d="M140.254,117.654c0,0-84.359-23.848-89.955-27.229C48.504,89.338,7.412,57.099,65.2,1.708
		c-18.777,0-46.521,0-46.521,0s-44.948,80.433,9.811,105.15c54.761,24.711,86.302,32.949,89.211,31.052"/>
	<path fill="#8C6239" d="M140.254,117.654c-15.818-4.367-31.623-8.789-47.4-13.313c-7.89-2.254-15.763-4.566-23.614-6.961
		c-3.926-1.199-7.85-2.4-11.748-3.695c-1.956-0.633-3.891-1.307-5.825-2.064l-1.443-0.645c-0.465-0.258-0.877-0.623-1.274-0.947
		c-0.8-0.663-1.556-1.37-2.286-2.104c-2.915-2.934-5.411-6.277-7.39-9.911c-1.985-3.626-3.479-7.536-4.302-11.595
		c-0.844-4.054-1.067-8.23-0.74-12.354c0.351-4.129,1.291-8.181,2.573-12.104l1.03-2.922l1.222-2.845l0.617-1.419l0.703-1.378
		l1.406-2.756c1.057-1.77,2.049-3.583,3.185-5.3l1.722-2.566l0.863-1.282l0.928-1.235c2.435-3.324,5.06-6.503,7.804-9.566
		c1.408-1.502,2.75-3.065,4.208-4.516l4.366-4.361l0.34,0.847l-46.52,0.028l0.454-0.266c-2.113,3.88-4.011,7.915-5.782,11.984
		c-1.765,4.076-3.375,8.221-4.817,12.422c-1.443,4.2-2.73,8.457-3.757,12.774c-1.032,4.315-1.91,8.675-2.398,13.083
		c-0.497,4.401-0.792,8.843-0.533,13.265c0.252,4.41,0.779,8.841,2.081,13.069c0.244,1.084,0.668,2.106,1.042,3.145
		c0.386,1.033,0.725,2.088,1.249,3.062c0.489,0.991,0.945,1.998,1.458,2.972l1.746,2.813l0.436,0.705l0.508,0.652l1.021,1.302
		l1.021,1.304c0.329,0.444,0.758,0.803,1.132,1.206l2.323,2.361l2.569,2.093c0.433,0.34,0.842,0.717,1.298,1.03l1.391,0.903
		l2.787,1.797l2.956,1.517c0.983,0.51,1.963,1.018,2.991,1.457c4.062,1.834,8.128,3.641,12.216,5.41
		c8.166,3.554,16.399,6.95,24.681,10.23c8.28,3.28,16.632,6.382,25.083,9.192c4.227,1.402,8.482,2.717,12.782,3.884
		c2.149,0.571,4.312,1.111,6.495,1.552c1.088,0.224,2.189,0.405,3.293,0.545c0.553,0.064,1.106,0.111,1.663,0.126
		c0.547-0.021,1.132,0.017,1.634-0.253c-0.499,0.274-1.085,0.242-1.634,0.268c-0.559-0.01-1.113-0.05-1.668-0.109
		c-1.106-0.13-2.208-0.303-3.302-0.517c-2.188-0.421-4.357-0.939-6.514-1.493c-4.314-1.127-8.585-2.401-12.827-3.767
		c-8.483-2.733-16.871-5.762-25.188-8.966c-8.319-3.199-16.554-6.613-24.743-10.131c-4.094-1.759-8.174-3.555-12.24-5.374
		c-1.023-0.432-2.023-0.945-3.019-1.459l-2.996-1.524c-0.954-0.588-1.888-1.209-2.833-1.814l-1.414-0.911
		c-0.461-0.317-0.879-0.696-1.322-1.042l-2.618-2.119l-2.372-2.394c-0.382-0.412-0.818-0.774-1.154-1.224l-1.044-1.324l-1.044-1.324
		l-0.519-0.663l-0.446-0.712L7.02,88.566c-0.526-0.991-0.995-2.015-1.494-3.021c-0.537-0.991-0.884-2.063-1.281-3.113
		c-0.385-1.056-0.818-2.096-1.069-3.189c-1.338-4.296-1.885-8.787-2.154-13.25c-0.279-4.477,0.005-8.964,0.496-13.407
		c0.477-4.452,1.349-8.847,2.374-13.196c1.022-4.352,2.302-8.64,3.74-12.869c1.437-4.23,3.042-8.403,4.804-12.509
		c1.77-4.104,3.655-8.118,5.792-12.068l0.143-0.236h0.311h46.52h1.191L65.54,2.538l-4.355,4.316
		c-1.456,1.438-2.793,2.983-4.196,4.472c-2.738,3.034-5.354,6.18-7.778,9.471l-0.926,1.221l-0.858,1.268l-1.715,2.537
		c-1.131,1.7-2.117,3.49-3.168,5.237l-1.401,2.72l-0.7,1.36l-0.613,1.4l-1.217,2.805l-1.024,2.878
		c-1.278,3.862-2.215,7.85-2.573,11.907c-0.333,4.053-0.127,8.152,0.689,12.136c0.795,3.99,2.25,7.834,4.192,11.407
		c1.934,3.579,4.384,6.885,7.242,9.781c0.715,0.72,1.457,1.42,2.232,2.068c0.396,0.322,0.758,0.648,1.187,0.89l1.367,0.611
		c1.88,0.741,3.821,1.428,5.766,2.063c3.884,1.304,7.803,2.519,11.721,3.728c7.839,2.418,15.705,4.746,23.569,7.089
		C108.714,108.573,124.476,113.141,140.254,117.654z"/>
</g>
</svg>
