<?xml version="1.0" encoding="utf-8"?>
<!-- Generator: Adobe Illustrator 16.0.0, SVG Export Plug-In . SVG Version: 6.00 Build 0)  -->
<!DOCTYPE svg PUBLIC "-//W3C//DTD SVG 1.1//EN" "http://www.w3.org/Graphics/SVG/1.1/DTD/svg11.dtd">
<svg version="1.1" id="Layer_2" xmlns="http://www.w3.org/2000/svg" xmlns:xlink="http://www.w3.org/1999/xlink" x="0px" y="0px"
	 width="300px" height="300px" viewBox="0 0 300 300" enable-background="new 0 0 300 300" xml:space="preserve">
<g id="FIX_1_">
	
		<radialGradient id="SVGID_1_" cx="819.0957" cy="-786.5586" r="146.3494" gradientTransform="matrix(1 0 0 -1 -667.9805 -635.8799)" gradientUnits="userSpaceOnUse">
		<stop  offset="0.4947" style="stop-color:#FFE2A2"/>
		<stop  offset="0.696" style="stop-color:#FFCD82"/>
		<stop  offset="1" style="stop-color:#FFA74F"/>
	</radialGradient>
	<circle fill="url(#SVGID_1_)" cx="151.113" cy="150.679" r="146.349"/>
	<g>
		<path fill="#FC8010" d="M64.078,32.47h21.168v25.703H45.405v-9.918l-5.142,4.986v98.751h52.693V26.043H72.438L64.078,32.47z
			 M85.246,127.573H45.405V101.87h39.841V127.573z M85.246,92.873H45.405V67.168h39.841V92.873z"/>
		<path fill="#FC8010" d="M257.945,127.573h-39.84V101.87h39.84V127.573z M257.945,92.873h-39.84V67.168h39.84V92.873z
			 M257.945,49.669v8.504h-39.84V32.47h20.15l-9.151-6.427h-16.141v125.949h52.693V58.736L257.945,49.669z"/>
		<g>
			<polygon fill="#FC8010" points="68.688,78.352 67.65,78.352 67.65,77.833 65.577,77.833 65.577,78.352 64.022,78.352 
				64.022,79.907 59.713,79.907 59.713,80.555 56.376,80.555 56.376,79.583 53.782,79.583 53.782,80.23 52.812,80.23 52.812,79.712 
				50.219,79.712 50.219,80.62 48.209,80.62 48.209,79.583 44.84,79.583 44.84,93.58 48.081,93.58 48.081,93.969 50.672,93.969 
				50.672,93.71 52.81,93.71 52.81,94.228 54.042,94.228 54.042,93.58 56.376,93.58 56.376,93.515 60.393,93.515 60.393,93.387 
				64.022,93.387 64.022,93.904 66.095,93.904 66.095,93.387 66.873,93.387 66.873,93.904 68.946,93.904 68.946,93.387 
				70.761,93.387 70.761,77.833 68.688,77.833 			"/>
			<polygon fill="#FC8010" points="84.132,92.76 77.734,81.618 76.094,82.562 75.455,80.989 74.379,81.426 74.088,79.597 
				72.834,79.797 72.834,78.934 70.761,78.934 70.761,94.488 72.834,94.488 72.834,84.912 74.484,95.281 76.533,94.956 
				75.013,85.406 78.372,93.673 80.294,92.892 76.6,83.808 82.333,93.794 			"/>
		</g>
		<rect x="246.388" y="72.906" fill="#FC8010" width="8.854" height="21.075"/>
		<rect x="224.304" y="124.935" fill="#FC8010" width="30.313" height="3.616"/>
		<rect x="222.058" y="121.94" fill="#FC8010" width="30.31" height="3.614"/>
		<rect x="225.553" y="118.946" fill="#FC8010" width="30.31" height="3.615"/>
		<rect x="223.556" y="116.665" fill="#FC8010" width="24.072" height="2.937"/>
		<rect x="225.553" y="113.919" fill="#FC8010" width="24.071" height="2.938"/>
		<rect x="67.365" y="116.747" fill="#FC8010" width="13.347" height="11.094"/>
		<rect x="18.469" y="131.242" fill="#FC8010" width="20.465" height="20.803"/>
		<rect x="23.137" y="119.962" fill="#FC8010" width="11.378" height="11.566"/>
		<rect x="49.896" y="123.152" fill="#FC8010" width="13.347" height="5.187"/>
		<polygon fill="#FC8010" points="86.091,45.768 82.074,45.768 82.074,44.796 79.481,44.796 79.481,45.443 78.509,45.443 
			78.509,44.925 75.917,44.925 75.917,45.833 74.041,45.833 74.041,45.583 71.449,45.583 71.449,46.333 69.12,46.333 69.12,59.681 
			71.711,59.681 71.711,58.932 73.778,58.932 73.778,59.182 76.369,59.182 76.369,58.922 78.509,58.922 78.509,59.441 79.74,59.441 
			79.74,58.793 82.074,58.793 82.074,58.729 86.091,58.729 		"/>
		<polygon fill="#FC8010" points="245.815,46.1 239.119,46.1 239.119,45.127 234.799,45.127 234.799,45.775 233.18,45.775 
			233.18,45.258 228.86,45.258 228.86,46.165 225.732,46.165 225.732,45.916 221.411,45.916 221.411,46.665 217.529,46.665 
			217.529,60.012 221.851,60.012 221.851,59.264 225.295,59.264 225.295,59.513 229.613,59.513 229.613,59.254 233.18,59.254 
			233.18,59.772 235.231,59.772 235.231,59.125 239.119,59.125 239.119,59.06 245.815,59.06 		"/>
		<circle fill="#FC8010" cx="57.401" cy="53.995" r="4.825"/>
		<path fill="#FC8010" d="M208.972,69.849H96.5v2.031h5.703c-1.085,0.828-1.797,2.121-1.797,3.593c0,2.234,1.62,4.08,3.749,4.451
			v69.905h97.162V80.111c2.277-0.238,4.061-2.142,4.061-4.483c0-1.56-0.789-2.933-1.986-3.749h5.581V69.849L208.972,69.849z"/>
		<circle fill="#FC8010" cx="73.374" cy="116.885" r="2.329"/>
		<polygon fill="#FC8010" points="237.833,93.492 228.646,93.399 224.11,87.916 228.757,82.525 237.941,82.617 242.482,88.101 		"/>
	</g>
	<g>
		
			<radialGradient id="SVGID_2_" cx="703.6172" cy="-819.3232" r="30.3077" gradientTransform="matrix(1 0 0 -1 -667.9805 -635.8799)" gradientUnits="userSpaceOnUse">
			<stop  offset="0" style="stop-color:#FFCD82"/>
			<stop  offset="0.7685" style="stop-color:#FFAC5C"/>
			<stop  offset="1" style="stop-color:#FF9D4C"/>
		</radialGradient>
		<path fill="url(#SVGID_2_)" stroke="#A67C52" stroke-miterlimit="10" d="M64.018,151.324l-44.579,64.238
			c-7.438-13.445-12.183-36.455-12.183-36.455l28.381-27.783H64.018z"/>
		
			<radialGradient id="SVGID_3_" cx="759.8857" cy="-853.9824" r="57.5202" gradientTransform="matrix(1 0 0 -1 -667.9805 -635.8799)" gradientUnits="userSpaceOnUse">
			<stop  offset="0" style="stop-color:#FFCD82"/>
			<stop  offset="0.7685" style="stop-color:#FFAC5C"/>
			<stop  offset="1" style="stop-color:#FF9D4C"/>
		</radialGradient>
		<path fill="url(#SVGID_3_)" stroke="#A67C52" stroke-width="0.7" stroke-miterlimit="10" d="M101.099,150.79L46.396,252.914
			c0,0,20.525,21.445,47.753,32.613l43.265-134.85L101.099,150.79z"/>
		
			<radialGradient id="SVGID_4_" cx="907.3613" cy="-843.5786" r="47.9917" gradientTransform="matrix(1 0 0 -1 -667.9805 -635.8799)" gradientUnits="userSpaceOnUse">
			<stop  offset="0" style="stop-color:#FFCD82"/>
			<stop  offset="0.7685" style="stop-color:#FFAC5C"/>
			<stop  offset="1" style="stop-color:#FF9D4C"/>
		</radialGradient>
		<path fill="url(#SVGID_4_)" stroke="#A67C52" stroke-width="0.7" stroke-miterlimit="10" d="M202.571,150.79l40.274,113.93
			c0,0,27.858-24.177,33.346-38.193l-37.869-75.849L202.571,150.79z"/>
		
			<radialGradient id="SVGID_5_" cx="953.3359" cy="-802.2554" r="14.0951" gradientTransform="matrix(1 0 0 -1 -667.9805 -635.8799)" gradientUnits="userSpaceOnUse">
			<stop  offset="0" style="stop-color:#FFCD82"/>
			<stop  offset="0.7685" style="stop-color:#FFAC5C"/>
			<stop  offset="1" style="stop-color:#FF9D4C"/>
		</radialGradient>
		<path fill="url(#SVGID_5_)" stroke="#A67C52" stroke-width="0.7" stroke-miterlimit="10" d="M273.071,150.79l21.017,31.283
			c0,0,4.483-13.323,3.377-31.396L273.071,150.79z"/>
		
			<radialGradient id="SVGID_6_" cx="841.6953" cy="-860.1064" r="55.4697" gradientTransform="matrix(1 0 0 -1 -667.9805 -635.8799)" gradientUnits="userSpaceOnUse">
			<stop  offset="0" style="stop-color:#FFCD82"/>
			<stop  offset="0.7685" style="stop-color:#FFAC5C"/>
			<stop  offset="1" style="stop-color:#FF9D4C"/>
		</radialGradient>
		<path fill="url(#SVGID_6_)" stroke="#A67C52" stroke-miterlimit="10" d="M178.344,151.324l24.337,136.366
			c-22.616,11.091-57.932,9.338-57.932,9.338V151.324H178.344z"/>
	</g>
	<g>
		
			<radialGradient id="SVGID_7_" cx="688.6152" cy="-801.4858" r="15.0973" gradientTransform="matrix(1 0 0 -1 -667.9805 -635.8799)" gradientUnits="userSpaceOnUse">
			<stop  offset="0" style="stop-color:#FFCD82"/>
			<stop  offset="0.7685" style="stop-color:#FFAC5C"/>
			<stop  offset="1" style="stop-color:#FF9D4C"/>
		</radialGradient>
		<path fill="url(#SVGID_7_)" stroke="#A67C52" stroke-miterlimit="10" d="M36.506,151.324L7.406,179.888
			c-2.492-15.498-2.641-28.563-2.641-28.563l0,0H36.506z"/>
		
			<radialGradient id="SVGID_8_" cx="728.25" cy="-838.2002" r="46.1936" gradientTransform="matrix(1 0 0 -1 -667.9805 -635.8799)" gradientUnits="userSpaceOnUse">
			<stop  offset="0" style="stop-color:#FFCD82"/>
			<stop  offset="0.7685" style="stop-color:#FFAC5C"/>
			<stop  offset="1" style="stop-color:#FF9D4C"/>
		</radialGradient>
		<path fill="url(#SVGID_8_)" stroke="#A67C52" stroke-miterlimit="10" d="M63.677,151.324l-44.238,64.35
			c0,0,8.492,19.83,26.956,37.643l54.704-101.992H63.677z"/>
		
			<radialGradient id="SVGID_9_" cx="878.2422" cy="-854.1816" r="53.9392" gradientTransform="matrix(1 0 0 -1 -667.9805 -635.8799)" gradientUnits="userSpaceOnUse">
			<stop  offset="0" style="stop-color:#FFCD82"/>
			<stop  offset="0.7685" style="stop-color:#FFAC5C"/>
			<stop  offset="1" style="stop-color:#FF9D4C"/>
		</radialGradient>
		<path fill="url(#SVGID_9_)" stroke="#A67C52" stroke-miterlimit="10" d="M177.678,149.33l25.349,137.945
			c0,0,19.257-6.505,39.819-22.938L202.571,149.33H177.678z"/>
		
			<radialGradient id="SVGID_10_" cx="934.1855" cy="-824.4819" r="33.2844" gradientTransform="matrix(1 0 0 -1 -667.9805 -635.8799)" gradientUnits="userSpaceOnUse">
			<stop  offset="0" style="stop-color:#FFCD82"/>
			<stop  offset="0.7685" style="stop-color:#FFAC5C"/>
			<stop  offset="1" style="stop-color:#FF9D4C"/>
		</radialGradient>
		<path fill="url(#SVGID_10_)" stroke="#A67C52" stroke-miterlimit="10" d="M238.322,150.678l37.869,75.849
			c0,0,12.921-20.549,17.896-44.453c-1.385-1.239-17.01-25.319-21.017-31.061L238.322,150.678z"/>
		
			<radialGradient id="SVGID_11_" cx="787.2578" cy="-859.3203" r="55.0665" gradientTransform="matrix(1 0 0 -1 -667.9805 -635.8799)" gradientUnits="userSpaceOnUse">
			<stop  offset="0" style="stop-color:#FFCD82"/>
			<stop  offset="0.7685" style="stop-color:#FFAC5C"/>
			<stop  offset="1" style="stop-color:#FF9D4C"/>
		</radialGradient>
		<path fill="url(#SVGID_11_)" stroke="#A67C52" stroke-miterlimit="10" d="M144.749,151.013v146.02
			c-26.953,0-50.942-11.504-50.942-11.504l37.414-135.68L144.749,151.013z"/>
	</g>
	
		<radialGradient id="floor_shadow_2_" cx="800.4404" cy="-1183.2314" r="106.52" gradientTransform="matrix(0.9999 0.011 0.0077 -0.7011 -667.6874 -629.7437)" gradientUnits="userSpaceOnUse">
		<stop  offset="0" style="stop-color:#FFFFFF;stop-opacity:0"/>
		<stop  offset="1" style="stop-color:#FF6B00;stop-opacity:0.5"/>
	</radialGradient>
	<path id="floor_shadow_1_" fill="url(#floor_shadow_2_)" d="M4.765,151.824h292.7l0.174,11.793
		c-101.085-8.466-191.391,7.878-208.895,21.708c-33.534,26.507-49.897,79.696,56.69,112.001
		C58.895,292.983,4.765,223.698,4.765,151.824z"/>
	
		<radialGradient id="light_2_" cx="904.9824" cy="-2045.4497" r="83.9949" gradientTransform="matrix(0.8221 -0.0655 -0.0331 -0.4231 -620.3181 -573.6441)" gradientUnits="userSpaceOnUse">
		<stop  offset="0" style="stop-color:#FFFFFF;stop-opacity:0.3"/>
		<stop  offset="0.8531" style="stop-color:#FFFFFF;stop-opacity:0.0441"/>
		<stop  offset="1" style="stop-color:#FFFFFF;stop-opacity:0"/>
	</radialGradient>
	<path id="light_1_" fill="url(#light_2_)" d="M285.658,204.361c0.801,8.905-29.852,60.358-89.104,79.302
		c-45.116,14.424-71.292-56.193-72.098-65.099c-0.801-8.906,61.412-36.491,125.56-36.491
		C258.801,182.073,284.857,195.457,285.658,204.361z"/>
	
		<radialGradient id="halo_2_" cx="620.0605" cy="594.9512" r="119.2925" gradientTransform="matrix(1 0 0 1 -470.3203 -465.9199)" gradientUnits="userSpaceOnUse">
		<stop  offset="0.202" style="stop-color:#FFFF70;stop-opacity:0.9066"/>
		<stop  offset="0.6331" style="stop-color:#FFFFAE;stop-opacity:0.5008"/>
		<stop  offset="0.7074" style="stop-color:#FFFFB3;stop-opacity:0.3993"/>
		<stop  offset="0.7944" style="stop-color:#FFFFC1;stop-opacity:0.2806"/>
		<stop  offset="0.8876" style="stop-color:#FFFFD9;stop-opacity:0.1534"/>
		<stop  offset="0.9847" style="stop-color:#FFFFF9;stop-opacity:0.0209"/>
		<stop  offset="1" style="stop-color:#FFFFFF;stop-opacity:0"/>
	</radialGradient>
	<circle id="halo_1_" fill="url(#halo_2_)" cx="149.742" cy="129.031" r="119.293"/>
	
		<radialGradient id="shadows_1_" cx="827.5938" cy="-3048.8525" r="61.339" gradientTransform="matrix(1.0936 0.041 0.0155 -0.2718 -715.1584 -626.1373)" gradientUnits="userSpaceOnUse">
		<stop  offset="0" style="stop-color:#FF6B00;stop-opacity:0.5"/>
		<stop  offset="0.2517" style="stop-color:#FF6C02;stop-opacity:0.3741"/>
		<stop  offset="0.3889" style="stop-color:#FF710A;stop-opacity:0.3055"/>
		<stop  offset="0.4986" style="stop-color:#FF7918;stop-opacity:0.2507"/>
		<stop  offset="0.5938" style="stop-color:#FF842B;stop-opacity:0.2031"/>
		<stop  offset="0.6795" style="stop-color:#FF9345;stop-opacity:0.1603"/>
		<stop  offset="0.7584" style="stop-color:#FFA564;stop-opacity:0.1208"/>
		<stop  offset="0.8321" style="stop-color:#FFBA89;stop-opacity:0.0839"/>
		<stop  offset="0.9018" style="stop-color:#FFD3B4;stop-opacity:0.0491"/>
		<stop  offset="0.9658" style="stop-color:#FFEFE3;stop-opacity:0.0171"/>
		<stop  offset="1" style="stop-color:#FFFFFF;stop-opacity:0"/>
	</radialGradient>
	<path id="shadows_4_" fill="url(#shadows_1_)" d="M247.896,240.604c-0.188,5.732-39.89,9.093-88.681,7.507
		c-48.79-1.588-88.192-7.523-88.006-13.258c0.187-5.732,39.891-9.091,88.681-7.504C208.681,228.938,248.083,234.87,247.896,240.604z
		"/>
	
		<radialGradient id="shadows_2_" cx="809.084" cy="-3054.6689" r="106.2791" gradientTransform="matrix(1.3461 0.041 0.0191 -0.2718 -881.6138 -626.1373)" gradientUnits="userSpaceOnUse">
		<stop  offset="0" style="stop-color:#FF6B00;stop-opacity:0.5"/>
		<stop  offset="0.2517" style="stop-color:#FF6C02;stop-opacity:0.3741"/>
		<stop  offset="0.3889" style="stop-color:#FF710A;stop-opacity:0.3055"/>
		<stop  offset="0.4986" style="stop-color:#FF7918;stop-opacity:0.2507"/>
		<stop  offset="0.5938" style="stop-color:#FF842B;stop-opacity:0.2031"/>
		<stop  offset="0.6795" style="stop-color:#FF9345;stop-opacity:0.1603"/>
		<stop  offset="0.7584" style="stop-color:#FFA564;stop-opacity:0.1208"/>
		<stop  offset="0.8321" style="stop-color:#FFBA89;stop-opacity:0.0839"/>
		<stop  offset="0.9018" style="stop-color:#FFD3B4;stop-opacity:0.0491"/>
		<stop  offset="0.9658" style="stop-color:#FFEFE3;stop-opacity:0.0171"/>
		<stop  offset="1" style="stop-color:#FFFFFF;stop-opacity:0"/>
	</radialGradient>
	<path id="shadows_3_" fill="url(#shadows_2_)" d="M373.676,244.45c-0.402,9.932-85.079,15.759-189.142,13.006
		C80.477,254.705-3.558,244.421-3.161,234.489c0.398-9.937,85.079-15.757,189.139-13.005
		C290.041,224.236,374.077,234.518,373.676,244.45z"/>
</g>
<path fill="none" stroke="#FFE2A2" stroke-width="2" stroke-miterlimit="10" d="M99.354,134.684c0,0-1.667,11.623,14.025,23.392
	c12.416,9.313,20.294,8.896,21.376,9.313"/>
<radialGradient id="SVGID_12_" cx="121.9028" cy="247.7109" r="12.7378" gradientTransform="matrix(-0.6936 -0.7203 0.3799 -0.3658 112.3449 426.1424)" gradientUnits="userSpaceOnUse">
	<stop  offset="0" style="stop-color:#333333"/>
	<stop  offset="0.1758" style="stop-color:#222222"/>
	<stop  offset="0.4389" style="stop-color:#0F0F0F"/>
	<stop  offset="0.7103" style="stop-color:#040404"/>
	<stop  offset="1" style="stop-color:#000000"/>
</radialGradient>
<path fill="url(#SVGID_12_)" d="M114.943,239.163l-1.634,11.471c0,0,7.92,4.942,15.062,5.772c7.141,0.829-4.793-6.992-4.793-6.992
	l-2.881-9.582l-7.539-0.877"/>
<radialGradient id="SVGID_13_" cx="145.8672" cy="246.1133" r="12.7371" gradientTransform="matrix(-0.6936 -0.7203 0.3799 -0.3658 153.5383 441.2229)" gradientUnits="userSpaceOnUse">
	<stop  offset="0" style="stop-color:#333333"/>
	<stop  offset="0.1758" style="stop-color:#222222"/>
	<stop  offset="0.4389" style="stop-color:#0F0F0F"/>
	<stop  offset="0.7103" style="stop-color:#040404"/>
	<stop  offset="1" style="stop-color:#000000"/>
</radialGradient>
<path fill="url(#SVGID_13_)" d="M138.908,237.564l-1.635,11.472c0,0,7.919,4.941,15.061,5.771c7.143,0.83-4.792-6.991-4.792-6.991
	l-2.882-9.583l-7.538-0.876"/>
<path fill="#BC421D" stroke="#A67C52" stroke-miterlimit="10" d="M120.003,148.44c7.248-8.782,8.92-41.959,0.557-55.899
	c-8.364-13.938-12.267,48.512-12.267,48.512L120.003,148.44z"/>
<g>
	
		<radialGradient id="SVGID_14_" cx="120.1426" cy="179.2461" r="51.58" gradientTransform="matrix(0.0795 0.9968 -0.7831 0.0624 250.9668 48.2929)" gradientUnits="userSpaceOnUse">
		<stop  offset="0" style="stop-color:#ED1C24"/>
		<stop  offset="0.7634" style="stop-color:#C1272D"/>
		<stop  offset="1" style="stop-color:#9C1B28"/>
	</radialGradient>
	<path fill="url(#SVGID_14_)" d="M115.124,144.425c-5.243,3.277-2.449,34.926-9.852,53.255
		c-7.638,18.911-15.977,24.232-31.421,19.971c22.027,22.171,70.122,43.358,103.021,7.114c-7.808-7.806-26.333-76.079-26.333-76.079
		S125.774,137.769,115.124,144.425z"/>
	<path fill="#680000" d="M115.124,144.425c-0.839,0.591-1.269,1.566-1.625,2.495c-0.322,0.956-0.575,1.934-0.765,2.925
		c-0.393,1.979-0.636,3.985-0.85,5.99c-0.417,4.014-0.701,8.04-1.044,12.062c-0.69,8.033-1.502,16.104-3.543,23.936
		c-0.526,1.95-1.121,3.886-1.864,5.77c-0.775,1.869-1.536,3.732-2.432,5.552c-0.413,0.925-0.901,1.811-1.382,2.701
		c-0.458,0.903-0.99,1.766-1.532,2.622c-1.054,1.73-2.302,3.342-3.67,4.846c-0.323,0.395-0.732,0.707-1.094,1.064
		c-0.384,0.334-0.722,0.723-1.145,1.011c-0.824,0.602-1.624,1.242-2.547,1.694c-0.87,0.548-1.845,0.875-2.794,1.257
		c-0.479,0.177-0.987,0.266-1.48,0.402c-0.495,0.132-0.992,0.258-1.503,0.298l-1.522,0.19c-0.509,0.032-1.02,0.022-1.53,0.035
		c-1.023,0.059-2.035-0.088-3.052-0.158c-1.015-0.091-2.01-0.313-3.016-0.464l-2.965-0.699l0.305-0.522
		c1.724,1.679,3.483,3.322,5.34,4.854c0.92,0.776,1.852,1.538,2.813,2.263c0.942,0.749,1.916,1.456,2.896,2.154
		c3.914,2.802,8.035,5.31,12.302,7.528c1.063,0.563,2.157,1.064,3.233,1.601c1.085,0.518,2.194,0.982,3.291,1.477
		c1.105,0.472,2.23,0.896,3.345,1.347c1.124,0.425,2.265,0.806,3.396,1.211c1.141,0.376,2.296,0.709,3.443,1.066
		c1.156,0.324,2.323,0.607,3.484,0.914c1.17,0.27,2.349,0.5,3.522,0.752c1.181,0.213,2.369,0.386,3.553,0.581
		c1.19,0.151,2.384,0.265,3.576,0.398l3.59,0.207l3.595,0.004l3.588-0.194l3.569-0.415l3.535-0.642
		c1.166-0.271,2.323-0.582,3.485-0.871c1.147-0.341,2.278-0.736,3.418-1.102c1.126-0.406,2.224-0.889,3.337-1.329
		c1.104-0.463,2.159-1.037,3.241-1.55c2.114-1.121,4.189-2.33,6.146-3.719c1.011-0.646,1.95-1.393,2.889-2.14l1.415-1.111
		c0.465-0.378,0.896-0.798,1.346-1.194c0.873-0.822,1.822-1.565,2.634-2.452l2.516-2.578l0.014,0.563
		c-1.229-1.316-1.987-2.839-2.782-4.34c-0.769-1.512-1.463-3.054-2.113-4.61c-0.665-1.552-1.282-3.121-1.885-4.695
		c-0.608-1.572-1.181-3.156-1.757-4.739c-2.267-6.344-4.344-12.749-6.347-19.176c-3.996-12.856-7.672-25.807-11.223-38.79
		l0.036,0.042c-2.808-1.204-5.687-2.249-8.598-3.182c-2.914-0.924-5.87-1.727-8.871-2.316c-2.998-0.591-6.048-0.979-9.107-0.949
		c-0.763,0.022-1.529,0.041-2.288,0.132c-0.762,0.064-1.518,0.195-2.265,0.352c-0.749,0.156-1.48,0.381-2.2,0.639l-1.054,0.452
		L115.124,144.425z M115.124,144.425l1.003-0.556l1.053-0.456c0.719-0.26,1.451-0.488,2.2-0.647c0.747-0.16,1.503-0.293,2.265-0.36
		c0.76-0.094,1.526-0.115,2.291-0.14c3.063-0.041,6.118,0.336,9.12,0.918c3.006,0.579,5.968,1.372,8.888,2.287
		c2.918,0.924,5.801,1.959,8.621,3.156l0.028,0.012l0.008,0.03c1.78,6.489,3.66,12.951,5.578,19.4
		c1.922,6.448,3.897,12.881,5.951,19.287c2.06,6.404,4.193,12.785,6.512,19.096c0.589,1.574,1.175,3.148,1.795,4.71
		c0.614,1.563,1.243,3.12,1.917,4.655c0.661,1.54,1.363,3.063,2.133,4.543c0.781,1.457,1.579,2.972,2.674,4.115l0.277,0.289
		l-0.264,0.274l-2.525,2.63c-0.818,0.9-1.776,1.658-2.659,2.494c-0.454,0.403-0.89,0.83-1.36,1.215l-1.431,1.133
		c-0.949,0.761-1.899,1.521-2.924,2.182c-1.98,1.416-4.085,2.652-6.23,3.8c-1.099,0.525-2.169,1.112-3.29,1.588
		c-1.131,0.452-2.246,0.947-3.391,1.364c-1.158,0.376-2.309,0.781-3.475,1.133c-1.181,0.299-2.357,0.619-3.542,0.898l-3.594,0.665
		l-3.628,0.436l-3.647,0.211l-3.652-0.018l-3.644-0.222c-1.208-0.141-2.419-0.26-3.625-0.418c-1.199-0.201-2.402-0.381-3.598-0.601
		c-1.188-0.259-2.38-0.496-3.563-0.774c-1.174-0.313-2.354-0.604-3.522-0.937c-1.159-0.365-2.325-0.707-3.477-1.091
		c-1.142-0.413-2.292-0.802-3.426-1.235c-1.124-0.458-2.258-0.892-3.373-1.371c-1.105-0.503-2.223-0.977-3.316-1.502
		c-1.084-0.544-2.186-1.056-3.256-1.626c-2.146-1.132-4.261-2.324-6.317-3.61c-2.056-1.287-4.076-2.632-6.03-4.068
		c-0.981-0.713-1.956-1.435-2.899-2.197c-0.961-0.739-1.893-1.515-2.813-2.306c-1.856-1.561-3.616-3.233-5.338-4.94l-0.801-0.794
		l1.106,0.271l2.919,0.717c0.987,0.156,1.967,0.384,2.96,0.482c0.995,0.077,1.988,0.23,2.986,0.181
		c0.498-0.008,0.998,0.008,1.495-0.02l1.483-0.173c0.499-0.034,0.981-0.152,1.463-0.276c0.479-0.129,0.975-0.209,1.441-0.377
		c0.924-0.364,1.876-0.671,2.726-1.198c0.902-0.43,1.688-1.05,2.499-1.63c0.416-0.277,0.75-0.656,1.13-0.98
		c0.358-0.348,0.762-0.648,1.083-1.034c1.358-1.468,2.607-3.048,3.668-4.756c0.545-0.844,1.081-1.694,1.544-2.588
		c0.485-0.882,0.98-1.759,1.398-2.674c0.905-1.795,1.688-3.662,2.475-5.514c0.755-1.865,1.365-3.788,1.907-5.728
		c1.068-3.888,1.768-7.869,2.335-11.861c0.552-3.996,0.955-8.012,1.307-12.032c0.358-4.019,0.655-8.045,1.087-12.058
		c0.221-2.006,0.471-4.011,0.871-5.99c0.193-0.99,0.451-1.968,0.776-2.924C113.848,145.988,114.283,145.012,115.124,144.425z"/>
</g>
<path fill="#BC421D" stroke="#A67C52" stroke-miterlimit="10" d="M173.524,146.842c7.249-8.782,8.922-41.96,0.558-55.899
	s-12.267,48.51-12.267,48.51L173.524,146.842z"/>
<radialGradient id="SVGID_15_" cx="89.3677" cy="197.916" r="39.5217" fx="88.966" fy="159.6077" gradientTransform="matrix(-0.8585 -0.5128 0.6608 -1.1064 35.3013 462.7205)" gradientUnits="userSpaceOnUse">
	<stop  offset="0" style="stop-color:#751319"/>
	<stop  offset="1" style="stop-color:#751319;stop-opacity:0"/>
</radialGradient>
<path fill="url(#SVGID_15_)" d="M110.063,156.674c6.524,6.657,3.039,20.188,2.53,27.825c-1.73,25.964-29.956,43.005-2.53,52.725
	c-13.313,1.997-37.013-19.573-37.013-19.573s26.163,11.783,34.883-30.354C111.747,168.874,110.063,156.674,110.063,156.674z"/>
<radialGradient id="SVGID_16_" cx="223.8213" cy="124.019" r="46.7262" gradientTransform="matrix(0.7264 0 0 0.954 -21.4063 34.2346)" gradientUnits="userSpaceOnUse">
	<stop  offset="0" style="stop-color:#751319"/>
	<stop  offset="1" style="stop-color:#751319;stop-opacity:0"/>
</radialGradient>
<ellipse fill="url(#SVGID_16_)" cx="141.185" cy="152.546" rx="29.523" ry="22.767"/>
<g>
	<radialGradient id="SVGID_17_" cx="136.4429" cy="151.2012" r="12.0367" gradientUnits="userSpaceOnUse">
		<stop  offset="0" style="stop-color:#FFE2A2"/>
		<stop  offset="0.472" style="stop-color:#FFC98A"/>
		<stop  offset="1" style="stop-color:#FFA96A"/>
	</radialGradient>
	<path fill="url(#SVGID_17_)" d="M121.78,142.562c0,0-0.266,9.32,3.728,13.579c3.994,4.262,20.504,5.859,24.231-0.799
		c3.728-6.657-1.33-11.715-1.33-11.715L121.78,142.562z"/>
	<path fill="#8C6239" d="M121.78,142.562c0.059,2.225,0.305,4.446,0.794,6.604c0.233,1.082,0.573,2.136,0.971,3.158
		c0.399,1.023,0.925,1.985,1.556,2.86c0.355,0.418,0.663,0.826,1.101,1.172c0.397,0.315,0.859,0.611,1.337,0.858
		c0.956,0.503,1.989,0.876,3.041,1.173c2.11,0.581,4.3,0.893,6.489,0.986c2.189,0.087,4.397-0.073,6.501-0.595
		c2.079-0.522,4.141-1.467,5.375-3.125c0.129-0.21,0.297-0.438,0.397-0.63l0.37-0.749c0.285-0.504,0.371-0.982,0.572-1.474
		c0.266-1.024,0.397-2.081,0.324-3.137c-0.084-1.055-0.366-2.091-0.796-3.065c-0.425-0.967-1.025-1.906-1.714-2.661l0.293,0.128
		c-4.438-0.179-8.873-0.45-13.309-0.68c-2.218-0.112-4.436-0.246-6.652-0.389L121.78,142.562z M121.78,142.562l6.664,0.097
		c2.221,0.034,4.442,0.079,6.662,0.144c4.44,0.125,8.882,0.209,13.32,0.386l0.181,0.007l0.113,0.121
		c0.82,0.883,1.435,1.847,1.921,2.909c0.479,1.057,0.801,2.194,0.903,3.362c0.094,1.169-0.041,2.344-0.327,3.478
		c-0.205,0.543-0.355,1.17-0.619,1.642l-0.363,0.752c-0.156,0.302-0.32,0.524-0.485,0.786c-0.727,0.967-1.691,1.703-2.717,2.251
		c-1.03,0.55-2.127,0.925-3.237,1.194c-2.227,0.53-4.508,0.67-6.764,0.562c-2.256-0.111-4.505-0.453-6.669-1.13
		c-1.081-0.338-2.145-0.753-3.146-1.314c-0.502-0.28-0.977-0.596-1.44-0.987c-0.431-0.358-0.795-0.848-1.146-1.289
		c-0.644-0.949-1.169-1.967-1.542-3.034c-0.363-1.069-0.659-2.157-0.846-3.262C121.844,147.029,121.691,144.788,121.78,142.562z"/>
</g>
<radialGradient id="SVGID_18_" cx="130.7671" cy="144.7573" r="7.7732" gradientTransform="matrix(-0.3709 0.9287 -1.4725 -0.588 392.4166 108.4365)" gradientUnits="userSpaceOnUse">
	<stop  offset="0" style="stop-color:#C77745"/>
	<stop  offset="1" style="stop-color:#DB8B56;stop-opacity:0"/>
</radialGradient>
<path fill="url(#SVGID_18_)" d="M121.247,142.028c0,0,3.862,2.396,14.779,3.329c-1.598,3.994-2.663,6.657-2.663,6.657
	S124.576,150.283,121.247,142.028z"/>
<g>
	<radialGradient id="SVGID_19_" cx="138.2578" cy="110.355" r="37.8954" gradientUnits="userSpaceOnUse">
		<stop  offset="0" style="stop-color:#FFE2A2"/>
		<stop  offset="0.472" style="stop-color:#FFC98A"/>
		<stop  offset="1" style="stop-color:#FFA96A"/>
	</radialGradient>
	<ellipse fill="url(#SVGID_19_)" cx="138.258" cy="110.356" rx="40.564" ry="35.022"/>
	<path fill="#8C6239" d="M178.822,110.356c0,0-0.052,0.927-0.149,2.666c0.005,0.875-0.24,1.926-0.444,3.172
		c-0.146,1.261-0.653,2.631-1.091,4.196c-1.099,3.051-2.846,6.654-5.717,10.176c-2.848,3.523-6.798,6.919-11.702,9.595
		c-4.897,2.674-10.765,4.587-17.152,5.239c-0.798,0.065-1.606,0.087-2.417,0.133c-0.815,0.019-1.621,0.13-2.459,0.073
		c-0.818-0.031-1.642-0.062-2.47-0.092c-0.414-0.021-0.829-0.021-1.246-0.058l-1.255-0.157c-0.839-0.105-1.683-0.211-2.531-0.317
		c-0.839-0.152-1.672-0.352-2.516-0.528c-1.701-0.296-3.335-0.913-5.019-1.406c-6.589-2.351-12.982-6.326-17.709-12.059
		c-2.327-2.864-4.37-6.053-5.671-9.586c-1.306-3.535-2.009-7.242-2.078-11.079c0.061-3.677,0.773-7.525,2.078-11.021
		c1.3-3.534,3.344-6.723,5.671-9.586c4.728-5.733,11.119-9.711,17.71-12.06c6.647-2.259,13.541-2.957,19.904-2.351
		c6.406,0.654,12.26,2.566,17.161,5.241c4.904,2.677,8.854,6.074,11.702,9.597c2.87,3.521,4.617,7.125,5.716,10.176
		c0.438,1.565,0.944,2.935,1.09,4.196c0.205,1.246,0.449,2.296,0.444,3.172C178.771,109.429,178.822,110.356,178.822,110.356z
		 M178.822,110.356c0,0-0.057-0.927-0.162-2.665c0-0.875-0.249-1.925-0.46-3.168c-0.151-1.259-0.665-2.625-1.109-4.185
		c-1.111-3.042-2.872-6.628-5.752-10.125c-2.858-3.492-6.801-6.882-11.724-9.469c-4.9-2.6-10.763-4.424-17.078-4.989
		c-6.349-0.524-13.125,0.258-19.647,2.562c-6.453,2.406-12.663,6.372-17.258,11.97c-2.255,2.804-4.229,5.916-5.473,9.352
		c-1.251,3.45-1.905,6.984-1.967,10.744c0.054,3.6,0.714,7.275,1.964,10.687c1.244,3.436,3.218,6.548,5.473,9.352
		c4.596,5.599,10.803,9.568,17.258,11.973c1.651,0.504,3.254,1.135,4.928,1.446c0.829,0.183,1.65,0.392,2.475,0.552
		c0.831,0.115,1.657,0.229,2.479,0.342l1.231,0.171c0.412,0.042,0.83,0.047,1.243,0.073c0.828,0.042,1.65,0.083,2.468,0.123
		c0.797,0.066,1.618-0.034,2.419-0.042c0.803-0.036,1.604-0.047,2.396-0.102c6.333-0.567,12.182-2.391,17.087-4.991
		c4.923-2.586,8.865-5.978,11.724-9.469c2.88-3.497,4.642-7.083,5.753-10.125c0.444-1.56,0.959-2.926,1.109-4.185
		c0.21-1.243,0.46-2.293,0.46-3.168C178.766,111.283,178.822,110.356,178.822,110.356z"/>
</g>
<radialGradient id="SVGID_20_" cx="170.2969" cy="97.9741" r="12.9978" gradientTransform="matrix(-0.575 0.8181 -2.8768 -2.0219 550.0684 156.7402)" gradientUnits="userSpaceOnUse">
	<stop  offset="0" style="stop-color:#C76139"/>
	<stop  offset="1" style="stop-color:#DB8B56;stop-opacity:0"/>
</radialGradient>
<path fill="url(#SVGID_20_)" d="M135.76,101.022c0,0,8.056-17.309,18.973-16.377c35.349,1.199,17.974,45.934,17.974,45.934
	S182.625,92.234,135.76,101.022z"/>
<radialGradient id="SVGID_21_" cx="-242.4434" cy="644.2168" r="11.8674" gradientTransform="matrix(0.9478 -0.3188 1.1211 3.3327 -382.7237 -2103.5906)" gradientUnits="userSpaceOnUse">
	<stop  offset="0" style="stop-color:#C76139"/>
	<stop  offset="1" style="stop-color:#DB8B56;stop-opacity:0"/>
</radialGradient>
<path fill="url(#SVGID_21_)" d="M137.357,145.556c0,0-16.968-0.9-25.213-8.117c-27.776-21.896,16.026-39.813,16.026-39.813
	S95.618,139.166,137.357,145.556z"/>
<radialGradient id="SVGID_22_" cx="9.6572" cy="185.873" r="10.1099" gradientTransform="matrix(0.8989 0.4382 -0.3002 0.6157 172.6422 12.4815)" gradientUnits="userSpaceOnUse">
	<stop  offset="0" style="stop-color:#FF0000;stop-opacity:0.2"/>
	<stop  offset="1" style="stop-color:#FF0000;stop-opacity:0"/>
</radialGradient>
<path fill="url(#SVGID_22_)" d="M135.589,136.058c-2.047,4.202-8.21,5.413-13.765,2.707c-5.554-2.708-8.396-8.31-6.348-12.511
	c2.047-4.2,8.211-5.414,13.765-2.707C134.797,126.255,137.638,131.856,135.589,136.058z"/>
<radialGradient id="SVGID_23_" cx="-348.0059" cy="75.1611" r="11.8604" gradientTransform="matrix(-0.8842 -0.4672 1.6426 -3.1089 -258.2918 207.2982)" gradientUnits="userSpaceOnUse">
	<stop  offset="0" style="stop-color:#C76139"/>
	<stop  offset="1" style="stop-color:#DB8B56;stop-opacity:0"/>
</radialGradient>
<path fill="url(#SVGID_23_)" d="M172.106,107.212c0,0,5.937,2.234,6.391,13.181c-12.981,28.958-36.19,19.138-36.19,19.138
	S177.699,143.759,172.106,107.212z"/>
<g>
	
		<radialGradient id="SVGID_24_" cx="131.9561" cy="82.0024" r="83.5557" gradientTransform="matrix(0.9968 -0.0798 0.0513 0.6405 -3.7854 40.0137)" gradientUnits="userSpaceOnUse">
		<stop  offset="0" style="stop-color:#FB8C00"/>
		<stop  offset="0.1355" style="stop-color:#FA8704"/>
		<stop  offset="0.3054" style="stop-color:#F7770F"/>
		<stop  offset="0.4929" style="stop-color:#F25E21"/>
		<stop  offset="0.5161" style="stop-color:#F15A24"/>
		<stop  offset="0.708" style="stop-color:#EB5420"/>
		<stop  offset="0.9667" style="stop-color:#DB4313"/>
		<stop  offset="1" style="stop-color:#D84011"/>
	</radialGradient>
	<path fill="url(#SVGID_24_)" d="M128.709,85.995c-2.3-4.391,7.946,15.055,7.946,15.055s15.125-6.969,31.852,2.44
		c5.298-3.207,2.021-16.031,2.021-16.031s6.901,27.043,0.209,67.468c7.388-9.34,18.958-39.59,8.574-65.169
		c-7.316-18.019-19.855-27.219-45.652-29.203C93.79,57.49,79.014,93.733,85.147,124.121c4.095,20.289,33.177,30.111,33.177,30.111
		s-10.986-29.775,0.793-50.547c5.436,1.255,10.846-0.752,10.846-0.752S131.009,90.386,128.709,85.995z"/>
	<path fill="#C92B00" d="M128.709,85.995l-0.269-0.511l-0.066-0.128c0.024,0.03,0.046,0.081,0.069,0.121l0.136,0.255l0.542,1.02
		l1.082,2.04l2.163,4.08l4.323,8.161l-0.049-0.017c1.269-0.544,2.587-0.953,3.917-1.31c0.669-0.16,1.338-0.327,2.014-0.46
		c0.679-0.113,1.353-0.268,2.037-0.347c0.685-0.077,1.365-0.194,2.052-0.239l2.063-0.133l2.067-0.01
		c0.688,0.004,1.375,0.076,2.063,0.111c0.689,0.024,1.372,0.118,2.055,0.218c0.68,0.109,1.372,0.151,2.042,0.316l2.021,0.438
		c0.677,0.135,1.324,0.383,1.987,0.569c0.655,0.213,1.331,0.368,1.962,0.649l1.922,0.768c0.651,0.231,1.249,0.58,1.869,0.881
		l1.848,0.931l-0.106,0.002c0.29-0.191,0.567-0.397,0.815-0.642c0.243-0.247,0.469-0.512,0.66-0.804
		c0.388-0.579,0.67-1.226,0.882-1.893c0.418-1.341,0.563-2.76,0.589-4.168c0.035-2.823-0.361-5.654-1.008-8.398l0.273-0.07
		c0.334,1.382,0.605,2.769,0.857,4.163c0.248,1.393,0.479,2.79,0.674,4.191c0.2,1.401,0.39,2.803,0.538,4.21
		c0.175,1.404,0.305,2.813,0.425,4.223c0.141,1.408,0.232,2.82,0.318,4.232c0.1,1.411,0.179,2.824,0.218,4.238
		c0.041,1.414,0.134,2.827,0.128,4.242l0.041,4.244l-0.075,4.244c-0.012,1.416-0.072,2.829-0.15,4.242l-0.214,4.239l-0.339,4.231
		c-0.104,1.411-0.226,2.821-0.4,4.225l-0.475,4.219c-0.141,1.409-0.392,2.802-0.582,4.204l-0.614,4.201l-0.498-0.221
		c3.286-4.421,5.626-9.519,7.512-14.709c1.873-5.208,3.269-10.592,4.118-16.062c0.825-5.472,1.1-11.027,0.707-16.536
		c-0.39-5.501-1.429-10.99-3.44-16.128c-1.905-5.183-4.505-10.119-8.028-14.349c-1.708-2.156-3.751-4.013-5.88-5.735
		c-1.128-0.78-2.189-1.659-3.398-2.318l-1.767-1.057l-1.848-0.912c-4.953-2.39-10.315-3.888-15.757-4.818l-4.103-0.602
		c-1.372-0.168-2.752-0.283-4.127-0.427c-1.347-0.155-2.764-0.162-4.143-0.249c-1.381-0.024-2.748,0.003-4.123,0.041l-2.06,0.156
		l-1.031,0.078l-1.022,0.146l-2.044,0.292c-0.676,0.126-1.347,0.283-2.021,0.422c-1.357,0.243-2.659,0.703-3.987,1.062l-1.938,0.705
		l-0.967,0.358l-0.94,0.425c-5.044,2.196-9.589,5.506-13.284,9.585c-3.712,4.073-6.583,8.887-8.629,14.008
		c-2.064,5.125-3.301,10.567-3.874,16.065c-0.278,2.752-0.359,5.521-0.319,8.287c0.099,2.765,0.301,5.528,0.715,8.266
		c0.081,0.688,0.23,1.364,0.342,2.047c0.123,0.69,0.227,1.352,0.408,2.027c0.152,0.681,0.325,1.351,0.555,1.992
		c0.193,0.655,0.441,1.296,0.713,1.929c1.055,2.542,2.506,4.916,4.213,7.083c3.445,4.328,7.794,7.875,12.444,10.871
		c4.674,2.968,9.667,5.474,14.865,7.376l-0.209,0.215c-1.417-4.111-2.447-8.33-3.232-12.594c-0.782-4.265-1.245-8.589-1.358-12.924
		c-0.008-1.084-0.028-2.168,0.012-3.252c0.011-1.084,0.094-2.166,0.161-3.248c0.097-1.08,0.192-2.16,0.351-3.233
		c0.124-1.077,0.34-2.142,0.533-3.208c0.23-1.06,0.456-2.121,0.759-3.162c0.261-1.053,0.634-2.074,0.972-3.104
		c0.392-1.011,0.764-2.03,1.236-3.007c0.421-1,0.969-1.939,1.466-2.902l0.019-0.036l0.045,0.008l1.352,0.221l0.676,0.11l0.685,0.031
		c0.457,0.016,0.913,0.051,1.37,0.051l1.37-0.07c0.458-0.006,0.908-0.103,1.363-0.151c0.455-0.049,0.905-0.13,1.353-0.226
		c0.9-0.162,1.785-0.41,2.652-0.694l-0.023,0.03c0.215-2.844,0.3-5.701,0.215-8.552c-0.021-0.713-0.057-1.426-0.112-2.137
		c-0.054-0.711-0.121-1.422-0.223-2.128c-0.089-0.708-0.231-1.407-0.385-2.104l-0.302-1.026
		C128.998,86.648,128.846,86.325,128.709,85.995z M128.709,85.995c0.138,0.329,0.292,0.652,0.417,0.985l0.307,1.026
		c0.156,0.696,0.302,1.395,0.394,2.104c0.105,0.706,0.174,1.417,0.231,2.128c0.058,0.712,0.097,1.424,0.121,2.138
		c0.096,2.854,0.024,5.711-0.18,8.56l-0.002,0.023l-0.021,0.007c-0.873,0.29-1.757,0.542-2.661,0.708
		c-0.449,0.098-0.9,0.182-1.357,0.233c-0.456,0.05-0.907,0.149-1.368,0.157l-1.376,0.077c-0.459,0.002-0.918-0.032-1.377-0.046
		l-0.689-0.028l-0.681-0.108l-1.363-0.217l0.064-0.028c-0.492,0.962-1.033,1.899-1.449,2.898c-0.467,0.976-0.833,1.993-1.22,3.001
		c-0.332,1.028-0.699,2.046-0.955,3.096c-0.298,1.04-0.518,2.098-0.743,3.154c-0.187,1.063-0.398,2.125-0.518,3.199
		c-0.153,1.07-0.244,2.146-0.336,3.223c-0.063,1.079-0.141,2.157-0.147,3.238c-0.035,1.081-0.011,2.161,0.002,3.242
		c0.131,4.321,0.61,8.63,1.408,12.879c0.799,4.245,1.848,8.458,3.27,12.529l0.116,0.333l-0.325-0.118
		c-5.247-1.896-10.257-4.385-14.975-7.353c-4.689-2.994-9.088-6.547-12.597-10.917c-1.739-2.189-3.224-4.594-4.311-7.181
		c-0.278-0.643-0.535-1.297-0.738-1.975c-0.241-0.669-0.417-1.343-0.571-2.018c-0.182-0.667-0.3-1.378-0.422-2.056
		c-0.115-0.688-0.269-1.369-0.353-2.062c-0.428-2.758-0.644-5.543-0.755-8.331c-0.051-2.79,0.019-5.583,0.288-8.362
		c0.555-5.552,1.781-11.057,3.85-16.256c2.052-5.195,4.943-10.096,8.706-14.259c3.744-4.168,8.369-7.568,13.507-9.83l0.958-0.437
		l0.985-0.37l1.975-0.727c1.351-0.373,2.678-0.846,4.06-1.1c0.686-0.145,1.369-0.307,2.057-0.438l2.081-0.306l1.04-0.153
		l1.047-0.084l2.095-0.167c1.4-0.045,2.815-0.077,4.21-0.059c1.395,0.083,2.762,0.081,4.178,0.234
		c1.388,0.14,2.779,0.25,4.165,0.414l4.147,0.59c5.504,0.919,10.974,2.399,16.022,4.883l1.886,0.94l1.806,1.09
		c1.233,0.681,2.321,1.585,3.473,2.391c2.178,1.774,4.263,3.69,6.003,5.901c3.582,4.334,6.213,9.396,8.113,14.632
		c2.021,5.231,3.051,10.801,3.422,16.368c0.375,5.575,0.072,11.184-0.782,16.698c-0.88,5.512-2.308,10.93-4.217,16.17
		c-1.926,5.226-4.29,10.341-7.663,14.843l-0.665,0.887l0.167-1.107l0.63-4.188c0.195-1.398,0.452-2.788,0.598-4.192l0.491-4.207
		c0.18-1.4,0.307-2.806,0.416-4.214l0.356-4.22l0.23-4.229c0.084-1.41,0.149-2.82,0.167-4.231l0.093-4.234l-0.023-4.236
		c0.012-1.412-0.075-2.822-0.109-4.234s-0.106-2.821-0.201-4.23c-0.079-1.41-0.165-2.819-0.299-4.225
		c-0.115-1.407-0.239-2.813-0.407-4.215c-0.143-1.405-0.326-2.805-0.52-4.203c-0.189-1.399-0.414-2.793-0.655-4.183
		c-0.244-1.389-0.511-2.778-0.835-4.146l0.273-0.07c0.643,2.778,1.028,5.617,0.982,8.473c-0.033,1.424-0.185,2.861-0.617,4.232
		c-0.221,0.683-0.514,1.348-0.918,1.947c-0.2,0.302-0.438,0.578-0.692,0.835c-0.261,0.254-0.552,0.47-0.857,0.668l-0.048,0.032
		l-0.059-0.03l-1.834-0.934c-0.616-0.302-1.21-0.652-1.857-0.884l-1.908-0.771c-0.627-0.283-1.299-0.439-1.95-0.654
		c-0.659-0.188-1.303-0.438-1.976-0.574l-2.011-0.445c-0.666-0.168-1.355-0.212-2.032-0.324c-0.679-0.102-1.358-0.199-2.045-0.226
		c-0.686-0.037-1.37-0.112-2.056-0.119l-2.061,0.001l-2.056,0.124c-0.686,0.042-1.364,0.156-2.047,0.23
		c-0.683,0.076-1.354,0.228-2.032,0.337c-0.674,0.13-1.342,0.294-2.01,0.45c-1.327,0.351-2.646,0.754-3.909,1.29l-0.034,0.014
		l-0.016-0.031l-4.29-8.179l-2.146-4.089l-1.074-2.044l-0.538-1.022l-0.135-0.255c-0.021-0.041-0.05-0.089-0.063-0.124l0.066,0.128
		L128.709,85.995z"/>
</g>
<radialGradient id="SVGID_25_" cx="133.2871" cy="211.2734" r="39.1141" gradientUnits="userSpaceOnUse">
	<stop  offset="0" style="stop-color:#751319;stop-opacity:0"/>
	<stop  offset="1" style="stop-color:#751319"/>
</radialGradient>
<path fill="url(#SVGID_25_)" d="M158.128,177.309c0,0,13.38,42.14,18.743,47.456c1.825,5.668-29.491,31.972-69.07,14.654
	c-15.977-6.988-18.174-9.586-18.174-9.586s50.355,27.373,60.911-15.908C158.526,181.17,158.128,177.309,158.128,177.309z"/>
<g id="backlist_1_">
	<linearGradient id="SVGID_26_" gradientUnits="userSpaceOnUse" x1="199.6484" y1="285.085" x2="158.7937" y2="132.613">
		<stop  offset="0.0021" style="stop-color:#FFE2A2"/>
		<stop  offset="0.1696" style="stop-color:#FFE2A2"/>
		<stop  offset="0.33" style="stop-color:#FFA768"/>
		<stop  offset="0.4138" style="stop-color:#C68854"/>
		<stop  offset="0.5517" style="stop-color:#FFA768"/>
		<stop  offset="0.7635" style="stop-color:#C68854"/>
		<stop  offset="1" style="stop-color:#B5794F"/>
	</linearGradient>
	<path fill="url(#SVGID_26_)" d="M251.213,257.791c-27.882-7.945-71.745-20.597-75.911-23.114
		c-1.975-1.192-47.131-36.177,16.378-97.177c-20.638,0-51.127,0-51.127,0s-49.395,88.074,10.783,115.234
		c28.548,12.883,62.656,27.391,67.781,27.078C224.24,279.501,251.213,257.791,251.213,257.791z"/>
	<path fill="#8C6239" d="M251.213,257.791c-15.451-4.341-30.891-8.722-46.287-13.257c-7.695-2.278-15.39-4.56-23.01-7.102
		c-1.902-0.647-3.804-1.284-5.675-2.067c-0.459-0.207-0.948-0.401-1.38-0.726c-0.417-0.306-0.808-0.623-1.193-0.951
		c-0.772-0.655-1.509-1.347-2.225-2.059c-2.854-2.856-5.336-6.077-7.395-9.549c-4.131-6.937-6.424-14.979-6.47-23.065
		c-0.107-8.102,1.922-16.102,5.106-23.49c3.226-7.397,7.573-14.252,12.486-20.618c4.911-6.382,10.423-12.271,16.211-17.85
		l0.297,0.739l-51.127,0.07l0.436-0.255c-2.402,4.414-4.555,9-6.554,13.63c-1.994,4.638-3.807,9.354-5.419,14.137
		c-1.618,4.781-3.01,9.638-4.158,14.55c-1.137,4.914-2.008,9.891-2.512,14.906c-0.49,5.014-0.63,10.069-0.214,15.086
		c0.191,2.509,0.541,5.005,1.042,7.468c0.499,2.462,1.134,4.901,1.985,7.265c0.844,2.363,1.834,4.679,3.035,6.885
		c1.208,2.2,2.588,4.304,4.123,6.29c1.563,1.966,3.289,3.796,5.131,5.505c1.879,1.666,3.858,3.223,5.958,4.607
		c4.177,2.821,8.843,4.785,13.455,6.87l13.873,6.16c9.269,4.061,18.569,8.051,27.954,11.829c4.693,1.884,9.401,3.743,14.195,5.338
		c1.199,0.393,2.406,0.768,3.626,1.077c1.215,0.269,2.479,0.664,3.634,0.166c2.339-0.885,4.485-2.279,6.619-3.616
		c4.247-2.743,8.347-5.715,12.411-8.727C243.232,264.017,247.246,260.933,251.213,257.791z M251.213,257.791
		c-3.941,3.174-7.931,6.289-11.966,9.344c-4.042,3.046-8.118,6.051-12.352,8.835c-2.135,1.358-4.255,2.769-6.652,3.699
		c-0.593,0.232-1.296,0.337-1.931,0.23c-0.642-0.074-1.265-0.211-1.883-0.359c-1.236-0.304-2.451-0.67-3.658-1.055
		c-4.824-1.563-9.551-3.385-14.264-5.233c-9.41-3.74-18.721-7.717-28.005-11.75l-13.896-6.124
		c-4.603-2.065-9.326-4.037-13.567-6.883c-2.13-1.397-4.142-2.969-6.052-4.655c-1.874-1.728-3.631-3.582-5.226-5.574
		c-1.565-2.015-2.974-4.147-4.207-6.381c-1.227-2.237-2.238-4.586-3.102-6.982c-0.87-2.396-1.521-4.867-2.034-7.36
		c-0.515-2.494-0.875-5.02-1.076-7.556c-0.434-5.072-0.307-10.176,0.174-15.232c0.494-5.059,1.357-10.073,2.488-15.021
		c1.141-4.946,2.528-9.834,4.141-14.645c1.607-4.813,3.417-9.557,5.407-14.223c2-4.665,4.137-9.443,6.563-13.926l0.139-0.439h0.297
		l51.127,0.254l1.066,0.093l-0.77,0.785c-5.779,5.539-11.28,11.408-16.178,17.736c-4.901,6.314-9.233,13.117-12.447,20.435
		c-3.175,7.309-5.197,15.212-5.113,23.201c0.024,7.974,2.26,15.909,6.321,22.772c2.023,3.435,4.47,6.628,7.28,9.456
		c0.704,0.705,1.43,1.39,2.186,2.034c0.376,0.323,0.765,0.641,1.156,0.929c0.371,0.283,0.825,0.467,1.276,0.672
		c1.829,0.771,3.733,1.417,5.626,2.066c3.796,1.288,7.626,2.482,11.451,3.688l11.501,3.543
		C220.394,248.822,235.798,253.327,251.213,257.791z"/>
</g>
<g>
	<g>
		<path fill="#F15A24" d="M123.644,67.774c0,0-0.296-0.097-0.825-0.215c-0.526-0.128-1.288-0.263-2.207-0.355
			c-0.458-0.058-0.957-0.08-1.484-0.09c-0.527-0.019-1.083,0.03-1.654,0.047c-0.568,0.074-1.163,0.096-1.748,0.242
			c-0.294,0.062-0.59,0.123-0.888,0.186l-0.871,0.274c-0.595,0.144-1.14,0.427-1.698,0.647c-0.556,0.228-1.046,0.568-1.553,0.834
			c-0.492,0.292-0.922,0.646-1.36,0.94c-0.45,0.281-0.781,0.663-1.134,0.959c-0.333,0.318-0.679,0.573-0.916,0.867
			c-0.253,0.279-0.473,0.523-0.655,0.723c-0.37,0.399-0.581,0.627-0.581,0.627s0.184-0.25,0.505-0.688
			c0.164-0.218,0.363-0.482,0.592-0.786c0.212-0.32,0.534-0.607,0.859-0.945c0.342-0.32,0.66-0.728,1.102-1.041
			c0.429-0.324,0.85-0.718,1.356-1.021c0.516-0.285,1.017-0.644,1.586-0.89c0.572-0.238,1.131-0.542,1.745-0.701l0.907-0.267
			c0.308-0.059,0.616-0.117,0.92-0.175c0.606-0.139,1.219-0.152,1.805-0.216c0.588-0.017,1.16-0.025,1.696,0.022
			c0.538,0.04,1.044,0.09,1.507,0.174c0.929,0.14,1.678,0.373,2.195,0.54C123.364,67.636,123.644,67.774,123.644,67.774z"/>
	</g>
	<g>
		<path fill="#F15A24" d="M126.041,70.17c0,0-0.366-0.179-1.041-0.396c-0.341-0.095-0.749-0.232-1.233-0.321
			c-0.48-0.111-1.028-0.188-1.626-0.263c-0.598-0.063-1.253-0.104-1.94-0.086c-0.344,0.017-0.697,0.034-1.058,0.051
			c-0.359,0.035-0.724,0.098-1.095,0.146c-0.75,0.063-1.488,0.33-2.254,0.5c-0.735,0.279-1.503,0.521-2.218,0.879
			c-0.701,0.383-1.462,0.665-2.1,1.137c-0.646,0.453-1.345,0.813-1.902,1.326c-0.573,0.49-1.163,0.923-1.678,1.384
			c-0.494,0.487-0.96,0.948-1.392,1.373c-0.444,0.415-0.812,0.83-1.128,1.209c-0.323,0.373-0.605,0.699-0.837,0.967
			c-0.465,0.538-0.731,0.845-0.731,0.845s0.242-0.326,0.665-0.896c0.212-0.286,0.469-0.633,0.765-1.031
			c0.288-0.406,0.626-0.853,1.061-1.285c0.417-0.448,0.87-0.934,1.348-1.447c0.502-0.489,1.078-0.96,1.66-1.459
			c0.56-0.53,1.268-0.91,1.922-1.381c0.646-0.49,1.421-0.794,2.139-1.195c0.739-0.357,1.534-0.596,2.293-0.871
			c0.792-0.167,1.553-0.428,2.327-0.483c0.383-0.042,0.758-0.109,1.128-0.125c0.371-0.002,0.734-0.004,1.087-0.007
			c0.704,0.012,1.371,0.082,1.977,0.172c0.608,0.094,1.157,0.217,1.633,0.367c0.481,0.126,0.883,0.295,1.217,0.417
			C125.69,69.964,126.041,70.17,126.041,70.17z"/>
	</g>
	<g>
		<path fill="#F15A24" d="M146.811,74.927c0,0-1.197-0.603-3.064-1.31c-0.93-0.361-2.036-0.727-3.233-1.055
			c-1.197-0.328-2.497-0.599-3.809-0.711c-1.309-0.13-2.633-0.104-3.837,0.134c-0.598,0.132-1.17,0.286-1.693,0.494
			c-0.522,0.208-0.995,0.457-1.41,0.721c-0.414,0.268-0.769,0.547-1.073,0.813c-0.303,0.265-0.535,0.532-0.742,0.737
			c-0.369,0.453-0.579,0.711-0.579,0.711s0.183-0.281,0.503-0.772c0.19-0.223,0.402-0.514,0.688-0.81
			c0.147-0.145,0.304-0.298,0.469-0.46c0.175-0.152,0.374-0.293,0.575-0.451c0.415-0.296,0.892-0.58,1.425-0.824
			c0.533-0.245,1.122-0.443,1.746-0.583c1.251-0.269,2.624-0.32,3.973-0.207c1.349,0.139,2.67,0.438,3.881,0.792
			c1.213,0.353,2.3,0.811,3.221,1.212C145.692,74.184,146.811,74.927,146.811,74.927z"/>
	</g>
	<g>
		<path fill="#F15A24" d="M143.616,77.058c0,0-0.238-0.114-0.664-0.284c-0.42-0.184-1.042-0.391-1.784-0.633
			c-0.377-0.103-0.778-0.239-1.217-0.326c-0.433-0.109-0.896-0.189-1.375-0.27c-0.475-0.104-0.979-0.113-1.482-0.175
			c-0.506-0.002-1.024-0.037-1.535,0.01c-0.511,0.043-1.028,0.053-1.52,0.176c-0.248,0.048-0.495,0.096-0.738,0.143
			c-0.235,0.078-0.467,0.155-0.695,0.23c-0.228,0.079-0.456,0.145-0.671,0.23c-0.21,0.099-0.415,0.196-0.615,0.291
			c-0.201,0.095-0.396,0.187-0.585,0.276c-0.175,0.115-0.343,0.226-0.505,0.333c-0.316,0.224-0.635,0.395-0.882,0.593
			c-0.241,0.208-0.45,0.389-0.623,0.538c-0.353,0.296-0.554,0.465-0.554,0.465s0.177-0.194,0.486-0.535
			c0.158-0.169,0.35-0.375,0.57-0.61c0.228-0.229,0.529-0.437,0.843-0.683c0.16-0.121,0.326-0.246,0.498-0.376
			c0.188-0.104,0.383-0.213,0.583-0.324c0.202-0.112,0.408-0.226,0.62-0.343c0.216-0.108,0.457-0.173,0.69-0.263
			c0.237-0.084,0.478-0.169,0.722-0.256c0.252-0.055,0.508-0.11,0.766-0.167c0.512-0.138,1.049-0.163,1.583-0.217
			c0.534-0.037,1.07,0.01,1.594,0.024c0.52,0.074,1.039,0.096,1.525,0.213c0.986,0.167,1.863,0.492,2.608,0.757
			C142.74,76.458,143.616,77.058,143.616,77.058z"/>
	</g>
	<path fill="none" stroke="#F15A24" stroke-width="0.5" stroke-miterlimit="10" d="M118.984,63.676c0,0,9.464,3.897,9.725,22.319"/>
	<g>
		<path fill="#C92B00" d="M94.365,84.167c0,0-0.124,0.127-0.334,0.384c-0.217,0.251-0.511,0.642-0.869,1.146
			c-0.356,0.507-0.765,1.138-1.192,1.887c-0.23,0.364-0.429,0.779-0.653,1.207c-0.217,0.432-0.476,0.869-0.681,1.359
			c-0.219,0.482-0.446,0.985-0.682,1.505c-0.205,0.533-0.417,1.084-0.634,1.651c-0.469,1.121-0.762,2.374-1.191,3.625
			c-0.299,1.29-0.698,2.602-0.933,3.973c-0.237,1.37-0.537,2.752-0.659,4.162c-0.176,1.402-0.364,2.803-0.412,4.195
			c-0.076,1.389-0.198,2.755-0.16,4.082c0.018,1.326-0.031,2.609,0.011,3.824c0.064,1.215,0.125,2.364,0.181,3.424
			c0.039,1.063,0.128,2.032,0.225,2.89c0.086,0.859,0.162,1.609,0.225,2.226c0.125,1.235,0.196,1.941,0.196,1.941
			s-0.102-0.702-0.279-1.93c-0.089-0.615-0.197-1.361-0.321-2.217c-0.062-0.428-0.128-0.884-0.197-1.365
			c-0.059-0.482-0.083-0.992-0.128-1.523c-0.082-1.063-0.171-2.214-0.265-3.432c-0.072-1.219-0.062-2.509-0.081-3.842
			c-0.049-1.334,0.063-2.709,0.128-4.108c0.037-1.402,0.213-2.815,0.382-4.229c0.134-1.419,0.448-2.812,0.698-4.19
			c0.248-1.38,0.66-2.703,0.973-4c0.434-1.264,0.769-2.514,1.268-3.635c0.233-0.565,0.46-1.116,0.679-1.648
			c0.25-0.519,0.492-1.02,0.724-1.5c0.474-0.956,0.968-1.805,1.433-2.535c0.462-0.734,0.899-1.351,1.278-1.844
			c0.381-0.491,0.691-0.869,0.92-1.111C94.236,84.289,94.365,84.167,94.365,84.167z"/>
	</g>
	<g>
		<path fill="#C92B00" d="M96.076,87.441c0,0-0.124,0.148-0.331,0.444c-0.214,0.29-0.5,0.737-0.847,1.313
			c-0.167,0.292-0.351,0.616-0.551,0.969c-0.181,0.363-0.376,0.755-0.584,1.174c-0.22,0.414-0.401,0.879-0.608,1.361
			c-0.2,0.485-0.444,0.981-0.625,1.529c-0.197,0.541-0.401,1.104-0.614,1.688c-0.177,0.595-0.36,1.209-0.549,1.841
			c-0.093,0.316-0.188,0.637-0.283,0.961c-0.075,0.33-0.15,0.664-0.227,1.001c-0.156,0.674-0.315,1.363-0.478,2.064
			c-0.216,1.422-0.538,2.877-0.677,4.383c-0.141,1.504-0.351,3.027-0.364,4.564c-0.073,1.533-0.157,3.067-0.091,4.58
			c0.035,1.511,0.019,3.001,0.173,4.436c0.131,1.435,0.189,2.829,0.338,4.141c0.173,1.311,0.337,2.549,0.489,3.693
			c0.132,1.147,0.313,2.189,0.491,3.111c0.168,0.923,0.315,1.728,0.436,2.391c0.241,1.327,0.379,2.085,0.379,2.085
			s-0.168-0.752-0.462-2.068c-0.147-0.658-0.326-1.458-0.53-2.375c-0.103-0.459-0.211-0.947-0.327-1.462
			c-0.103-0.517-0.172-1.068-0.266-1.639c-0.177-1.144-0.369-2.383-0.573-3.694c-0.179-1.314-0.275-2.712-0.409-4.154
			c-0.165-1.44-0.16-2.939-0.207-4.46c-0.078-1.521-0.006-3.066,0.058-4.611c0.025-1.548,0.247-3.082,0.401-4.596
			c0.151-1.515,0.486-2.982,0.715-4.413c0.363-1.404,0.619-2.787,1.063-4.043c0.204-0.632,0.402-1.248,0.594-1.842
			c0.227-0.583,0.446-1.146,0.656-1.687c0.432-1.075,0.894-2.036,1.334-2.867c0.226-0.413,0.438-0.799,0.634-1.156
			c0.215-0.346,0.413-0.663,0.591-0.95c0.37-0.564,0.673-1,0.9-1.282C95.947,87.584,96.076,87.441,96.076,87.441z"/>
	</g>
	<g>
		<path fill="#C92B00" d="M104.064,90.637c0,0-0.124,0.148-0.331,0.444c-0.214,0.29-0.5,0.737-0.847,1.313
			c-0.167,0.292-0.351,0.616-0.551,0.969c-0.181,0.363-0.376,0.755-0.584,1.174c-0.22,0.414-0.401,0.879-0.608,1.361
			c-0.2,0.485-0.444,0.981-0.625,1.529c-0.197,0.541-0.402,1.104-0.614,1.688c-0.177,0.595-0.36,1.209-0.549,1.841
			c-0.093,0.316-0.187,0.637-0.282,0.961c-0.075,0.33-0.151,0.664-0.227,1.002c-0.156,0.674-0.316,1.363-0.478,2.064
			c-0.216,1.422-0.538,2.877-0.677,4.382c-0.141,1.504-0.351,3.027-0.364,4.564c-0.073,1.533-0.157,3.067-0.091,4.58
			c0.035,1.511,0.019,3.001,0.173,4.436c0.131,1.435,0.189,2.829,0.338,4.141c0.173,1.311,0.337,2.55,0.489,3.693
			c0.132,1.147,0.313,2.189,0.491,3.111c0.168,0.923,0.315,1.728,0.436,2.391c0.241,1.327,0.379,2.085,0.379,2.085
			s-0.168-0.752-0.462-2.068c-0.147-0.658-0.326-1.458-0.53-2.375c-0.103-0.459-0.211-0.947-0.327-1.462
			c-0.103-0.517-0.172-1.067-0.266-1.638c-0.177-1.144-0.369-2.383-0.573-3.694c-0.179-1.314-0.275-2.712-0.409-4.154
			c-0.165-1.44-0.16-2.939-0.207-4.459c-0.078-1.521-0.006-3.066,0.058-4.611c0.025-1.548,0.247-3.082,0.401-4.596
			c0.151-1.515,0.486-2.982,0.715-4.413c0.363-1.404,0.619-2.787,1.063-4.043c0.204-0.632,0.402-1.248,0.594-1.843
			c0.227-0.583,0.446-1.146,0.656-1.687c0.432-1.075,0.894-2.036,1.334-2.868c0.226-0.413,0.438-0.799,0.633-1.156
			c0.215-0.346,0.413-0.664,0.592-0.95c0.37-0.564,0.673-1,0.9-1.282C103.936,90.78,104.064,90.637,104.064,90.637z"/>
	</g>
	<g>
		<path fill="#C92B00" d="M116.587,97.027c0,0-0.137,0.139-0.371,0.42c-0.242,0.273-0.563,0.703-0.967,1.251
			c-0.388,0.56-0.855,1.242-1.325,2.066c-0.252,0.401-0.495,0.843-0.73,1.32c-0.236,0.476-0.523,0.956-0.761,1.489
			c-0.477,1.063-1.011,2.207-1.438,3.473c-0.501,1.239-0.841,2.607-1.271,3.998c-0.212,0.696-0.333,1.429-0.507,2.157
			c-0.146,0.734-0.364,1.463-0.455,2.224c-0.111,0.756-0.224,1.518-0.336,2.283l-0.166,1.149l-0.086,1.161
			c-0.113,1.548-0.302,3.094-0.269,4.625c0.007,1.529-0.093,3.037,0.043,4.491c0.101,1.454,0.14,2.864,0.251,4.196
			c0.16,1.328,0.311,2.583,0.45,3.742c0.071,0.58,0.139,1.135,0.204,1.664c0.093,0.524,0.182,1.021,0.265,1.488
			c0.167,0.935,0.313,1.75,0.432,2.421c0.24,1.344,0.376,2.112,0.376,2.112s-0.167-0.762-0.459-2.094
			c-0.146-0.667-0.324-1.477-0.527-2.406c-0.102-0.465-0.21-0.96-0.324-1.481c-0.09-0.525-0.159-1.083-0.245-1.662
			c-0.166-1.16-0.345-2.417-0.535-3.747c-0.141-1.334-0.219-2.75-0.321-4.213c-0.147-1.461-0.059-2.98-0.076-4.52
			c-0.044-1.542,0.132-3.101,0.238-4.663l0.096-1.17l0.175-1.159c0.119-0.771,0.238-1.539,0.356-2.3
			c0.098-0.765,0.323-1.501,0.475-2.241c0.181-0.733,0.309-1.471,0.528-2.172c0.434-1.403,0.816-2.772,1.349-4.011
			c0.458-1.267,1.023-2.409,1.526-3.469c0.551-1.036,1.051-1.991,1.589-2.779c0.504-0.809,1-1.476,1.411-2.022
			c0.427-0.534,0.764-0.951,1.018-1.215C116.445,97.161,116.587,97.027,116.587,97.027z"/>
	</g>
	<g>
		<path fill="#F15A24" d="M139.754,82.782c0,0,0.569,0.841,1.213,2.227c0.166,0.344,0.346,0.717,0.536,1.112
			c0.205,0.39,0.354,0.825,0.518,1.272c0.326,0.896,0.674,1.852,1.021,2.807c0.151,0.485,0.355,0.955,0.458,1.446
			c0.121,0.485,0.24,0.963,0.356,1.425c0.233,0.924,0.412,1.796,0.585,2.537c0.327,1.487,0.504,2.484,0.504,2.484
			s-0.335-0.963-0.777-2.416c-0.212-0.729-0.482-1.572-0.729-2.486c-0.125-0.457-0.254-0.929-0.385-1.408
			c-0.111-0.486-0.326-0.947-0.485-1.425c-0.324-0.956-0.647-1.912-0.951-2.809c-0.161-0.444-0.272-0.893-0.449-1.288
			c-0.161-0.402-0.314-0.782-0.455-1.132c-0.294-0.697-0.473-1.312-0.679-1.707C139.856,83.015,139.754,82.782,139.754,82.782z"/>
	</g>
	<g>
		<path fill="#F15A24" d="M134.961,82.648c0,0,0.206,0.201,0.518,0.597c0.33,0.385,0.737,0.978,1.226,1.695
			c0.217,0.375,0.452,0.78,0.701,1.209c0.261,0.424,0.505,0.887,0.716,1.387c0.225,0.493,0.458,1.002,0.693,1.52
			c0.214,0.526,0.395,1.076,0.596,1.617c0.18,0.549,0.387,1.09,0.539,1.637c0.135,0.552,0.269,1.095,0.397,1.621
			c0.123,0.526,0.241,1.036,0.353,1.519c0.098,0.485,0.135,0.955,0.199,1.382c0.217,1.716,0.32,2.858,0.32,2.858
			s-0.264-1.125-0.597-2.808c-0.089-0.42-0.153-0.881-0.279-1.355c-0.132-0.473-0.272-0.972-0.417-1.488
			c-0.138-0.517-0.28-1.051-0.424-1.594c-0.16-0.538-0.377-1.067-0.563-1.606c-0.188-0.538-0.356-1.084-0.556-1.608
			c-0.223-0.515-0.442-1.022-0.655-1.512c-0.206-0.494-0.412-0.968-0.645-1.399c-0.22-0.439-0.429-0.854-0.621-1.236
			c-0.444-0.73-0.767-1.375-1.062-1.779C135.135,82.879,134.961,82.648,134.961,82.648z"/>
	</g>
	<g>
		<path fill="#F15A24" d="M133.363,85.044c0,0,0.185,0.15,0.469,0.459c0.15,0.149,0.312,0.345,0.494,0.574
			c0.177,0.231,0.41,0.473,0.594,0.781c0.397,0.6,0.878,1.293,1.272,2.103c0.198,0.403,0.448,0.801,0.619,1.241
			c0.187,0.434,0.376,0.874,0.566,1.314c0.184,0.443,0.362,0.888,0.493,1.341c0.144,0.449,0.285,0.891,0.421,1.318
			c0.297,0.848,0.464,1.67,0.611,2.372c0.295,1.404,0.452,2.343,0.452,2.343s-0.314-0.906-0.724-2.271
			c-0.101-0.342-0.209-0.712-0.324-1.103c-0.136-0.384-0.28-0.79-0.428-1.208c-0.145-0.42-0.295-0.854-0.447-1.294
			c-0.139-0.446-0.328-0.88-0.518-1.313c-0.177-0.438-0.353-0.877-0.527-1.309c-0.158-0.439-0.395-0.833-0.581-1.235
			c-0.206-0.392-0.362-0.794-0.562-1.148c-0.199-0.354-0.386-0.689-0.56-0.999c-0.166-0.315-0.361-0.574-0.509-0.824
			c-0.152-0.246-0.289-0.458-0.417-0.62C133.519,85.228,133.363,85.044,133.363,85.044z"/>
	</g>
	<g>
		<path fill="#F15A24" d="M142.417,81.85c0,0,0.201,0.193,0.502,0.583c0.162,0.188,0.323,0.438,0.515,0.721
			c0.189,0.285,0.421,0.598,0.606,0.977c0.199,0.371,0.416,0.774,0.645,1.199c0.208,0.436,0.407,0.904,0.608,1.391
			c0.2,0.487,0.426,0.985,0.582,1.515c0.173,0.525,0.349,1.058,0.524,1.591c0.18,0.533,0.32,1.076,0.432,1.617
			c0.124,0.538,0.245,1.067,0.363,1.579c0.114,0.513,0.241,1.005,0.302,1.483c0.066,0.477,0.128,0.928,0.186,1.344
			c0.221,1.665,0.328,2.776,0.328,2.776s-0.267-1.09-0.604-2.726c-0.083-0.409-0.172-0.853-0.266-1.322
			c-0.09-0.47-0.253-0.95-0.367-1.458c-0.127-0.505-0.258-1.027-0.392-1.558c-0.122-0.534-0.273-1.067-0.459-1.591
			c-0.163-0.53-0.326-1.061-0.486-1.583c-0.144-0.529-0.356-1.021-0.544-1.506c-0.186-0.485-0.366-0.955-0.536-1.4
			c-0.2-0.433-0.388-0.842-0.563-1.22c-0.165-0.384-0.359-0.711-0.516-1.011c-0.16-0.298-0.295-0.563-0.435-0.761
			C142.586,82.075,142.417,81.85,142.417,81.85z"/>
	</g>
	<g>
		<path fill="#E23A1A" d="M157.824,83.021c0,0,0.154,0.181,0.379,0.537c0.121,0.173,0.244,0.396,0.382,0.653
			c0.133,0.259,0.318,0.539,0.444,0.875c0.282,0.661,0.631,1.43,0.873,2.297c0.122,0.433,0.297,0.868,0.386,1.332
			c0.105,0.46,0.213,0.927,0.32,1.395c0.102,0.469,0.196,0.938,0.243,1.408c0.061,0.467,0.12,0.927,0.177,1.373
			c0.14,0.888,0.156,1.726,0.175,2.443c0.038,1.434,0.022,2.386,0.022,2.386s-0.146-0.948-0.304-2.364
			c-0.037-0.354-0.077-0.737-0.12-1.143c-0.064-0.402-0.133-0.827-0.203-1.266c-0.067-0.438-0.137-0.892-0.207-1.353
			c-0.057-0.463-0.164-0.924-0.272-1.384c-0.095-0.463-0.189-0.927-0.283-1.383c-0.076-0.461-0.238-0.89-0.349-1.319
			c-0.132-0.422-0.213-0.847-0.346-1.23c-0.132-0.384-0.256-0.748-0.371-1.083c-0.106-0.34-0.252-0.63-0.352-0.902
			c-0.105-0.27-0.202-0.503-0.3-0.685C157.944,83.229,157.824,83.021,157.824,83.021z"/>
	</g>
	<g>
		<path fill="#F15A24" d="M151.433,82.222c0,0,0.186,0.205,0.457,0.61c0.146,0.197,0.3,0.449,0.467,0.743
			c0.163,0.296,0.386,0.615,0.548,0.999c0.175,0.379,0.363,0.791,0.563,1.226c0.209,0.433,0.354,0.916,0.53,1.408
			c0.157,0.497,0.371,0.997,0.496,1.53c0.137,0.531,0.275,1.07,0.414,1.608c0.13,0.542,0.266,1.082,0.332,1.625
			c0.083,0.541,0.165,1.073,0.245,1.588c0.079,0.515,0.156,1.012,0.2,1.487c0.027,0.477,0.053,0.927,0.076,1.343
			c0.085,1.663,0.101,2.769,0.101,2.769s-0.177-1.098-0.381-2.74c-0.049-0.411-0.102-0.855-0.158-1.326
			c-0.085-0.466-0.174-0.957-0.267-1.465c-0.089-0.508-0.182-1.033-0.274-1.567c-0.076-0.537-0.224-1.067-0.36-1.599
			c-0.126-0.535-0.252-1.07-0.376-1.597c-0.113-0.53-0.313-1.025-0.459-1.519c-0.171-0.485-0.277-0.977-0.457-1.413
			c-0.171-0.44-0.332-0.857-0.48-1.241c-0.143-0.389-0.326-0.719-0.456-1.029c-0.136-0.308-0.263-0.572-0.385-0.778
			C151.584,82.457,151.433,82.222,151.433,82.222z"/>
	</g>
	<g>
		<path fill="#F15A24" d="M148.237,81.423c0,0,0.185,0.205,0.457,0.61c0.146,0.197,0.3,0.449,0.467,0.744
			c0.163,0.296,0.385,0.614,0.548,0.999c0.174,0.38,0.363,0.791,0.563,1.226c0.208,0.433,0.354,0.916,0.53,1.408
			c0.158,0.497,0.371,0.997,0.497,1.53c0.137,0.53,0.275,1.069,0.414,1.608c0.129,0.542,0.266,1.081,0.332,1.625
			c0.083,0.541,0.166,1.073,0.245,1.587c0.08,0.515,0.156,1.013,0.2,1.487c0.027,0.477,0.053,0.927,0.076,1.343
			c0.086,1.663,0.102,2.769,0.102,2.769s-0.177-1.098-0.382-2.74c-0.049-0.411-0.102-0.855-0.157-1.326
			c-0.085-0.466-0.175-0.957-0.268-1.465c-0.089-0.508-0.181-1.033-0.274-1.567c-0.076-0.537-0.224-1.067-0.36-1.6
			c-0.126-0.535-0.252-1.07-0.376-1.597c-0.113-0.53-0.313-1.024-0.459-1.519c-0.171-0.484-0.277-0.977-0.457-1.413
			c-0.17-0.44-0.332-0.857-0.48-1.241c-0.143-0.388-0.326-0.718-0.457-1.029c-0.135-0.308-0.262-0.572-0.385-0.778
			C148.389,81.658,148.237,81.423,148.237,81.423z"/>
	</g>
	<g>
		<path fill="#F15A24" d="M145.042,81.423c0,0,0.185,0.205,0.457,0.61c0.146,0.197,0.3,0.449,0.466,0.744
			c0.163,0.296,0.386,0.615,0.548,0.999c0.175,0.379,0.364,0.791,0.563,1.225c0.208,0.433,0.354,0.917,0.53,1.408
			c0.158,0.497,0.371,0.997,0.497,1.53c0.136,0.531,0.275,1.069,0.414,1.608c0.129,0.542,0.266,1.082,0.332,1.625
			c0.083,0.541,0.166,1.073,0.245,1.588c0.08,0.514,0.156,1.012,0.201,1.487c0.027,0.477,0.052,0.927,0.076,1.343
			c0.085,1.663,0.101,2.769,0.101,2.769s-0.177-1.098-0.381-2.74c-0.049-0.411-0.102-0.855-0.158-1.326
			c-0.085-0.465-0.174-0.957-0.267-1.465c-0.089-0.508-0.181-1.033-0.274-1.567c-0.076-0.537-0.224-1.067-0.36-1.6
			c-0.126-0.535-0.252-1.07-0.376-1.596c-0.113-0.53-0.313-1.025-0.459-1.519c-0.171-0.484-0.277-0.977-0.457-1.413
			c-0.17-0.44-0.332-0.857-0.48-1.241c-0.143-0.388-0.326-0.718-0.457-1.028c-0.135-0.309-0.262-0.572-0.385-0.779
			C145.194,81.658,145.042,81.423,145.042,81.423z"/>
	</g>
	<g>
		<path fill="#E23A1A" d="M165.216,86.443c0,0,0.154,0.186,0.368,0.555c0.118,0.18,0.238,0.409,0.361,0.679
			c0.121,0.27,0.297,0.563,0.406,0.912c0.12,0.346,0.249,0.721,0.387,1.117c0.148,0.395,0.219,0.833,0.322,1.278
			c0.083,0.449,0.225,0.907,0.268,1.385c0.055,0.477,0.11,0.961,0.166,1.446c0.048,0.485,0.1,0.971,0.079,1.451
			c-0.002,0.479-0.004,0.951-0.006,1.407c-0.002,0.456-0.002,0.897-0.036,1.313c-0.05,0.415-0.097,0.807-0.141,1.169
			c-0.184,1.446-0.345,2.398-0.345,2.398s0.002-0.974,0.063-2.418c0.019-0.361,0.037-0.751,0.058-1.165
			c0.005-0.413-0.034-0.849-0.033-1.299c-0.009-0.45-0.018-0.915-0.026-1.387c0.01-0.474-0.055-0.949-0.11-1.425
			c-0.043-0.477-0.087-0.954-0.13-1.424c-0.031-0.472-0.159-0.92-0.23-1.363c-0.101-0.437-0.13-0.876-0.249-1.27
			c-0.106-0.398-0.207-0.774-0.301-1.121c-0.089-0.35-0.224-0.65-0.312-0.931c-0.091-0.28-0.183-0.518-0.275-0.706
			C165.336,86.657,165.216,86.443,165.216,86.443z"/>
	</g>
	<g>
		<path fill="#E23A1A" d="M160.219,83.021c0,0,0.186,0.205,0.457,0.61c0.146,0.197,0.3,0.449,0.467,0.743
			c0.163,0.296,0.386,0.615,0.548,0.999c0.175,0.379,0.363,0.791,0.563,1.226c0.209,0.433,0.354,0.916,0.53,1.408
			c0.158,0.497,0.371,0.997,0.497,1.53c0.137,0.531,0.274,1.07,0.413,1.608c0.13,0.542,0.267,1.082,0.333,1.625
			c0.083,0.541,0.166,1.073,0.245,1.588c0.079,0.515,0.156,1.012,0.2,1.487c0.027,0.477,0.053,0.927,0.076,1.343
			c0.086,1.663,0.102,2.769,0.102,2.769s-0.177-1.098-0.382-2.74c-0.049-0.411-0.102-0.855-0.157-1.326
			c-0.085-0.466-0.175-0.957-0.268-1.465c-0.089-0.508-0.181-1.033-0.274-1.567c-0.076-0.537-0.224-1.067-0.361-1.599
			c-0.125-0.535-0.251-1.07-0.375-1.597c-0.113-0.53-0.313-1.025-0.46-1.519c-0.171-0.485-0.277-0.977-0.457-1.413
			c-0.17-0.44-0.331-0.857-0.48-1.241c-0.143-0.389-0.326-0.719-0.456-1.029c-0.136-0.308-0.263-0.572-0.385-0.778
			C160.37,83.255,160.219,83.021,160.219,83.021z"/>
	</g>
	<g>
		<path fill="#C92B00" d="M169.51,78.455c0,0,0.525,0.727,1.334,2.072c0.404,0.671,0.878,1.499,1.398,2.46
			c0.506,0.969,1.09,2.057,1.63,3.291c0.589,1.212,1.116,2.572,1.7,4.001c0.543,1.443,1.099,2.976,1.589,4.587
			c0.45,1.622,0.981,3.283,1.322,5.021c0.19,0.864,0.382,1.734,0.574,2.608c0.139,0.885,0.278,1.772,0.418,2.66
			c0.322,1.771,0.402,3.571,0.558,5.333c0.036,0.441,0.071,0.88,0.107,1.317c0.003,0.438,0.007,0.875,0.01,1.308
			c0.007,0.867,0.013,1.724,0.02,2.566c0.003,0.421,0.006,0.838,0.009,1.252c-0.03,0.413-0.061,0.821-0.091,1.226
			c-0.063,0.808-0.123,1.599-0.183,2.369c-0.069,1.544-0.329,2.982-0.546,4.311c-0.233,1.326-0.362,2.557-0.649,3.613
			c-0.272,1.059-0.51,1.981-0.706,2.741c-0.391,1.518-0.614,2.385-0.614,2.385s0.193-0.875,0.533-2.405
			c0.169-0.764,0.374-1.692,0.61-2.757c0.248-1.062,0.334-2.295,0.548-3.618c0.19-1.327,0.421-2.762,0.461-4.3
			c0.044-0.766,0.09-1.553,0.137-2.358c0.024-0.402,0.049-0.808,0.074-1.218c-0.006-0.411-0.012-0.826-0.017-1.245
			c-0.012-0.837-0.023-1.688-0.036-2.549c-0.006-0.431-0.012-0.864-0.018-1.299c-0.038-0.434-0.076-0.87-0.114-1.308
			c-0.165-1.749-0.258-3.535-0.587-5.292c-0.133-0.883-0.266-1.765-0.398-2.645c-0.186-0.869-0.37-1.735-0.554-2.595
			c-0.327-1.729-0.846-3.381-1.283-4.998c-0.485-1.601-1-3.138-1.514-4.583c-0.554-1.432-1.053-2.797-1.615-4.015
			c-0.522-1.236-1.063-2.339-1.534-3.323c-0.486-0.975-0.931-1.816-1.312-2.5C170.011,79.199,169.51,78.455,169.51,78.455z"/>
	</g>
	<g>
		<path fill="#C92B00" d="M116.388,88.241c0,0-0.702,0.727-1.778,2.125c-0.507,0.72-1.176,1.559-1.813,2.609
			c-0.323,0.521-0.694,1.06-1.036,1.656c-0.338,0.599-0.694,1.228-1.065,1.885c-0.393,0.645-0.697,1.373-1.063,2.098
			c-0.344,0.737-0.754,1.472-1.054,2.285c-0.324,0.8-0.657,1.623-0.998,2.463c-0.343,0.839-0.589,1.735-0.897,2.625
			c-0.651,1.771-1.056,3.679-1.539,5.596c-0.274,0.952-0.372,1.949-0.551,2.933c-0.16,0.988-0.321,1.979-0.482,2.971
			c-0.149,2.003-0.393,4.002-0.464,5.978c0.015,1.978-0.048,3.928,0.029,5.81c0.148,1.88,0.292,3.697,0.428,5.421
			c0.196,1.717,0.515,3.324,0.738,4.817c0.12,0.746,0.235,1.46,0.344,2.14c0.101,0.682,0.296,1.308,0.426,1.907
			c0.287,1.194,0.536,2.236,0.742,3.093c0.412,1.716,0.647,2.697,0.647,2.697s-0.265-0.973-0.729-2.676
			c-0.232-0.852-0.514-1.887-0.837-3.074c-0.148-0.597-0.364-1.219-0.485-1.899c-0.123-0.679-0.251-1.394-0.386-2.139
			c-0.25-1.494-0.597-3.103-0.823-4.823c-0.159-1.731-0.327-3.556-0.5-5.444c-0.088-1.893-0.037-3.855-0.062-5.847
			c0.061-1.99,0.293-4.005,0.435-6.024c0.167-0.998,0.335-1.997,0.502-2.991c0.187-0.991,0.291-1.994,0.572-2.953
			c0.498-1.93,0.917-3.849,1.583-5.63c0.318-0.894,0.563-1.797,0.928-2.635c0.357-0.841,0.706-1.663,1.046-2.463
			c0.315-0.812,0.741-1.546,1.1-2.281c0.381-0.724,0.699-1.449,1.105-2.091c0.386-0.653,0.755-1.279,1.107-1.874
			c0.361-0.589,0.75-1.119,1.09-1.631c0.671-1.033,1.367-1.855,1.897-2.561C115.664,88.946,116.388,88.241,116.388,88.241z"/>
	</g>
	<g>
		<path fill="#C92B00" d="M111.4,87.162c0,0-0.184,0.157-0.499,0.482c-0.32,0.317-0.764,0.813-1.291,1.47
			c-0.256,0.334-0.54,0.704-0.849,1.107c-0.282,0.422-0.587,0.878-0.914,1.366c-0.341,0.477-0.614,1.042-0.952,1.606
			c-0.334,0.566-0.677,1.166-0.974,1.824c-0.309,0.652-0.658,1.317-0.969,2.029c-0.287,0.723-0.583,1.47-0.888,2.237
			c-0.332,0.758-0.548,1.582-0.814,2.406c-0.239,0.833-0.566,1.661-0.764,2.541c-0.391,1.759-0.922,3.55-1.159,5.432
			c-0.15,0.935-0.301,1.876-0.453,2.822c-0.123,0.949-0.177,1.911-0.27,2.868c-0.087,0.958-0.174,1.916-0.261,2.87
			c-0.022,0.958-0.043,1.913-0.065,2.859c-0.021,0.947-0.043,1.887-0.064,2.815c0.01,0.928,0.073,1.845,0.105,2.747
			c0.038,0.902,0.076,1.789,0.113,2.657c0.024,0.869,0.062,1.718,0.166,2.54c0.167,1.648,0.326,3.206,0.473,4.644
			c0.116,1.442,0.348,2.748,0.526,3.909c0.181,1.162,0.338,2.174,0.468,3.008c0.26,1.669,0.408,2.623,0.408,2.623
			s-0.179-0.948-0.491-2.607c-0.156-0.83-0.346-1.838-0.563-2.995c-0.217-1.157-0.492-2.458-0.627-3.902
			c-0.172-1.439-0.359-2.998-0.557-4.647c-0.119-0.823-0.173-1.674-0.212-2.546c-0.044-0.872-0.09-1.762-0.137-2.667
			c-0.038-0.906-0.106-1.826-0.122-2.758c0.016-0.933,0.032-1.877,0.048-2.83s0.033-1.912,0.049-2.876
			c0.082-0.96,0.164-1.925,0.246-2.889c0.099-0.963,0.16-1.93,0.289-2.885c0.159-0.952,0.316-1.899,0.473-2.839
			c0.25-1.893,0.796-3.696,1.2-5.465c0.207-0.884,0.533-1.72,0.794-2.553c0.283-0.827,0.515-1.651,0.863-2.41
			c0.32-0.768,0.632-1.515,0.934-2.238c0.326-0.711,0.689-1.376,1.012-2.027c0.313-0.656,0.663-1.257,1.018-1.816
			c0.357-0.557,0.649-1.115,1.007-1.585c0.343-0.479,0.664-0.928,0.961-1.343c0.323-0.395,0.62-0.757,0.887-1.085
			c0.549-0.642,1.009-1.124,1.34-1.432C111.212,87.313,111.4,87.162,111.4,87.162z"/>
	</g>
	<g>
		<path fill="#C92B00" d="M102.613,81.57c0,0-0.574,0.751-1.444,2.154c-0.408,0.717-0.946,1.563-1.455,2.594
			c-0.549,1.009-1.087,2.187-1.679,3.469c-0.315,0.632-0.552,1.332-0.847,2.033c-0.274,0.709-0.601,1.427-0.839,2.201
			c-0.258,0.766-0.522,1.553-0.793,2.358c-0.275,0.803-0.47,1.65-0.717,2.497c-0.519,1.688-0.854,3.481-1.236,5.292
			c-0.217,0.901-0.316,1.831-0.453,2.757c-0.131,0.928-0.262,1.859-0.394,2.79c-0.153,1.874-0.316,3.75-0.42,5.597
			c-0.006,1.853-0.013,3.675-0.019,5.439c0.11,1.762,0.217,3.465,0.318,5.08c0.114,1.614,0.391,3.124,0.556,4.527
			c0.193,1.4,0.328,2.691,0.592,3.811c0.227,1.127,0.425,2.109,0.588,2.918c0.327,1.619,0.513,2.544,0.513,2.544
			s-0.216-0.918-0.595-2.526c-0.189-0.805-0.42-1.781-0.684-2.902c-0.304-1.114-0.481-2.401-0.693-3.803
			c-0.191-1.404-0.497-2.915-0.64-4.534c-0.124-1.621-0.254-3.331-0.389-5.1c-0.004-1.774-0.009-3.608-0.014-5.471
			c0.094-1.86,0.245-3.75,0.39-5.637c0.138-0.937,0.276-1.874,0.413-2.807c0.143-0.932,0.249-1.867,0.472-2.773
			c0.396-1.821,0.745-3.624,1.277-5.32c0.255-0.85,0.449-1.703,0.745-2.505c0.287-0.805,0.568-1.592,0.841-2.358
			c0.254-0.773,0.595-1.49,0.884-2.198c0.309-0.7,0.559-1.397,0.888-2.027c0.611-1.282,1.191-2.445,1.776-3.439
			c0.543-1.016,1.111-1.848,1.542-2.552C102.016,82.302,102.613,81.57,102.613,81.57z"/>
	</g>
</g>
<radialGradient id="SVGID_27_" cx="239.7148" cy="222.1055" r="9.1747" gradientTransform="matrix(0.8619 -0.1858 0.0991 0.4597 -66.4627 72.8558)" gradientUnits="userSpaceOnUse">
	<stop  offset="0" style="stop-color:#FF0000;stop-opacity:0.1"/>
	<stop  offset="1" style="stop-color:#FF0000;stop-opacity:0"/>
</radialGradient>
<path fill="url(#SVGID_27_)" d="M170.904,128.522c0.612,2.845-2.808,5.999-7.639,7.04c-4.833,1.042-9.247-0.42-9.862-3.268
	c-0.614-2.845,2.807-5.999,7.638-7.04C165.876,124.212,170.289,125.675,170.904,128.522z"/>
<g>
	<circle fill="#C69C6D" cx="134.466" cy="131.47" r="0.257"/>
	<circle fill="#C69C6D" cx="131.516" cy="129.631" r="0.257"/>
	<circle fill="#C69C6D" cx="129.398" cy="131.383" r="0.256"/>
	<circle fill="#C69C6D" cx="128.384" cy="129.726" r="0.257"/>
	<circle fill="#C69C6D" cx="138.196" cy="131.236" r="0.256"/>
	<circle fill="#C69C6D" cx="136.721" cy="130.315" r="0.257"/>
</g>
<g>
	<circle fill="#C69C6D" cx="147.833" cy="131.045" r="0.305"/>
	<path fill="#C69C6D" d="M144.393,129.16c0.056,0.16-0.027,0.333-0.188,0.389c-0.158,0.056-0.333-0.027-0.387-0.186
		c-0.057-0.162,0.025-0.335,0.186-0.391C144.162,128.915,144.336,128.998,144.393,129.16z"/>
	<circle fill="#C69C6D" cx="141.833" cy="131.611" r="0.305"/>
	<circle fill="#C69C6D" cx="140.415" cy="129.786" r="0.305"/>
	<circle fill="#C69C6D" cx="152.214" cy="130.277" r="0.305"/>
	<circle fill="#C69C6D" cx="150.348" cy="129.384" r="0.305"/>
</g>
<g>
	<circle fill="#C69C6D" cx="160.28" cy="130.815" r="0.242"/>
	<circle fill="#C69C6D" cx="157.297" cy="129.472" r="0.24"/>
	<circle fill="#C69C6D" cx="155.542" cy="131.372" r="0.242"/>
	<circle fill="#C69C6D" cx="154.386" cy="129.954" r="0.241"/>
	<circle fill="#C69C6D" cx="163.732" cy="130.129" r="0.242"/>
	<circle fill="#C69C6D" cx="162.24" cy="129.455" r="0.242"/>
</g>
<circle fill="none" stroke="#EA6928" stroke-width="2" stroke-miterlimit="10" cx="151.111" cy="150.449" r="146.527"/>
</svg>
